<svg xmlns="http://www.w3.org/2000/svg" viewBox="0 0 81.957 25.374"><defs><style>.a{fill:#fff;}</style></defs><g transform="translate(0 0.023)"><g transform="translate(0 -0.023)"><path class="a" d="M15.031,18.286c-.082.13-.157.26-.239.383a5.466,5.466,0,0,1-2.125,1.858,8.411,8.411,0,0,1-2.562.82,7.85,7.85,0,0,1-2.05.055,8.732,8.732,0,0,1-2.241-.533,7.693,7.693,0,0,1-2.4-1.5A9.879,9.879,0,0,1,.588,14.911a11.991,11.991,0,0,1-.5-2.5A12,12,0,0,1,0,11.2v-.984A12.715,12.715,0,0,1,.253,8.434,10.03,10.03,0,0,1,2.576,3.781a8.636,8.636,0,0,1,3.307-2.3A9,9,0,0,1,8,.932a9.476,9.476,0,0,1,3.081.1A6.149,6.149,0,0,1,13.528,2a4.256,4.256,0,0,1,1.257,1.319c.055.1.1.2.15.307a.8.8,0,0,0,.1.191.4.4,0,0,0,0-.1c0-.1,0-.2,0-.314a3.765,3.765,0,0,1,.424-1.981A1.469,1.469,0,0,1,16.124.8a3.279,3.279,0,0,1,1.1-.348,5.268,5.268,0,0,1,.793-.089A3.751,3.751,0,0,1,19.943.8,1.845,1.845,0,0,1,20.8,1.834a6.627,6.627,0,0,1,.383,1.852V18.108a6.388,6.388,0,0,1-.1,1.3,2.924,2.924,0,0,1-.683,1.366,2.378,2.378,0,0,1-1.264.765,4.783,4.783,0,0,1-2.583-.157,1.79,1.79,0,0,1-1.073-.929,3.3,3.3,0,0,1-.444-1.626V18.3Zm-1.366-7.167c0-.26-.034-.506-.055-.752a5.842,5.842,0,0,0-.328-1.517,2.89,2.89,0,0,0-2.1-1.906A4.468,4.468,0,0,0,8.7,7.033a2.945,2.945,0,0,0-1.817,1.6,5.192,5.192,0,0,0-.444,1.729,8.731,8.731,0,0,0,0,1.77,5.008,5.008,0,0,0,.588,1.961,3.307,3.307,0,0,0,1.7,1.544,3.826,3.826,0,0,0,1.653.246,3.027,3.027,0,0,0,1.763-.683,3.669,3.669,0,0,0,1-1.319,6.374,6.374,0,0,0,.512-2.76Z" transform="translate(0 -0.097)"/><path class="a" d="M41.716,21.554a14.348,14.348,0,0,1-4.031-.547A9.565,9.565,0,0,1,35.1,19.867,6.149,6.149,0,0,1,33.34,18.22a3.737,3.737,0,0,1-.683-1.5,2.33,2.33,0,0,1,.683-2.179,1.858,1.858,0,0,1,.533-.348,3.683,3.683,0,0,1,1.448-.383,1.954,1.954,0,0,1,1.366.471c.225.191.437.4.642.608a5.917,5.917,0,0,0,2.8,1.688,6.272,6.272,0,0,0,1.934.164,6.552,6.552,0,0,0,1.366-.212,1.681,1.681,0,0,0,.553-.246,1.086,1.086,0,0,0,.471-.813,1.23,1.23,0,0,0-.649-1.264,7.823,7.823,0,0,0-1.462-.615c-1.428-.492-2.863-.943-4.263-1.51a14.142,14.142,0,0,1-2.207-1.114,5.725,5.725,0,0,1-1.428-1.2,3.874,3.874,0,0,1-.4-.594A6.832,6.832,0,0,1,33.36,7.3a4.742,4.742,0,0,1-.068-1.4,6.655,6.655,0,0,1,.13-.957A4.783,4.783,0,0,1,34.59,2.807,8.123,8.123,0,0,1,37.166.976,10.344,10.344,0,0,1,40.391.094a11.833,11.833,0,0,1,1.79-.1,12.12,12.12,0,0,1,3.771.683,7.515,7.515,0,0,1,2.371,1.366,5.616,5.616,0,0,1,1.448,1.92,2.234,2.234,0,0,1,.184.813A1.537,1.537,0,0,1,49.471,6a2.528,2.528,0,0,1-.683.492,5.548,5.548,0,0,1-1.3.451,2,2,0,0,1-1.455-.239q-.581-.355-1.134-.745a5.322,5.322,0,0,0-1.776-.881,4.243,4.243,0,0,0-1.366-.1,3.594,3.594,0,0,0-1.161.246,2.514,2.514,0,0,0-.478.239,1.073,1.073,0,0,0,0,1.742,2.9,2.9,0,0,0,.758.417q.728.256,1.455.492L45.515,9.14a10.248,10.248,0,0,1,2.651,1.312A6.491,6.491,0,0,1,50.372,13a4.919,4.919,0,0,1,.451,2.6,5.3,5.3,0,0,1-1.988,3.676,8.656,8.656,0,0,1-2.815,1.517,12.8,12.8,0,0,1-2.733.622C42.782,21.486,42.249,21.513,41.716,21.554Z" transform="translate(-10.329 0.017)"/><path class="a" d="M67.149,12.906v5.261a5.158,5.158,0,0,1-.458,2.05,1.872,1.872,0,0,1-1.093,1,3.942,3.942,0,0,1-1.852.253,3.9,3.9,0,0,1-1.271-.3,1.92,1.92,0,0,1-1.025-1.114,6.607,6.607,0,0,1-.451-2.3q0-6.955,0-13.9a6.832,6.832,0,0,1,.478-2.425A1.968,1.968,0,0,1,62.77.232a4.3,4.3,0,0,1,1.824-.239A3.737,3.737,0,0,1,65.68.232a2.255,2.255,0,0,1,1.407,1.811,5.329,5.329,0,0,1,.061,1.284V6.381h.041l.13-.137,3.689-4.181a7.419,7.419,0,0,1,1.127-1.052,3.662,3.662,0,0,1,.813-.458,2.173,2.173,0,0,1,1.633,0A3.416,3.416,0,0,1,76.4,2.042a2.2,2.2,0,0,1,.178,1.865,2.89,2.89,0,0,1-.635,1.079l-4.215,4.53-.109.13.1.157,5.076,7.31a3.04,3.04,0,0,1,.54,1.168,2.665,2.665,0,0,1-.622,2.337,2.829,2.829,0,0,1-4.065.1,3.861,3.861,0,0,1-.492-.588q-2.419-3.539-4.824-7.085l-.109-.157Z" transform="translate(-19.324 0.023)"/><path class="a" d="M87.064,12.663a1.414,1.414,0,0,0-.191,0h-.82a.588.588,0,0,1-.553-.6q.021-.343.075-.683a1.615,1.615,0,0,1,.062-.355.752.752,0,0,1,.417-.574,1.216,1.216,0,0,1,.553-.137h.588c.2,0,.219,0,.239-.2a6.545,6.545,0,0,1,.225-1.223,4.2,4.2,0,0,1,1.578-2.323,3.594,3.594,0,0,1,.389-.239,5.288,5.288,0,0,1,1.906-.615,8.506,8.506,0,0,1,1.435-.089,9.2,9.2,0,0,1,1.011.109.629.629,0,0,1,.526.588,2.241,2.241,0,0,1,0,.471c-.041.307-.1.615-.157.922a.512.512,0,0,1-.547.458h-.97a2.89,2.89,0,0,0-.929.061,1.729,1.729,0,0,0-1.168,1.066,3.526,3.526,0,0,0-.2.806,1.222,1.222,0,0,0,0,.157h4.263a.779.779,0,0,1,.765.861v.294l.2-.143c.212-.164.417-.342.629-.5a3.744,3.744,0,0,1,1.975-.683,9.155,9.155,0,0,1,.916,0,2.617,2.617,0,0,1,1.489.485,2.241,2.241,0,0,1,.779.97l.041.089h.034l.1-.089a7.03,7.03,0,0,1,1.414-1.052,3.881,3.881,0,0,1,2.248-.458,5.145,5.145,0,0,1,1.107.2,2.125,2.125,0,0,1,1.428,1.4,3.464,3.464,0,0,1,.2,1.366q-.041.683-.123,1.4c-.048.437-.116.875-.178,1.312-.089.629-.178,1.25-.266,1.879-.109.82-.219,1.633-.328,2.453-.034.273-.089.54-.13.806-.055.4-.1.793-.157,1.182a5.542,5.542,0,0,1-.13.642.745.745,0,0,1-.683.581,3.143,3.143,0,0,1-.362,0H104.4a.683.683,0,0,1-.683-.738,4.518,4.518,0,0,1,.075-.6c.048-.348.1-.683.15-1.038s.1-.738.15-1.107c.082-.581.164-1.155.246-1.735.055-.369.1-.738.15-1.107s.089-.547.13-.827.082-.581.116-.875c.055-.458.109-.922.15-1.366a1.927,1.927,0,0,0,0-.506.9.9,0,0,0-.827-.7,1.8,1.8,0,0,0-.97.157,3.648,3.648,0,0,0-1.223.922.547.547,0,0,0-.116.26c-.041.246-.061.5-.089.745-.068.526-.143,1.052-.212,1.571-.034.287-.061.574-.1.861-.055.41-.123.82-.184,1.23s-.109.765-.164,1.148c-.075.588-.15,1.182-.232,1.77-.048.376-.109.745-.164,1.114a1.632,1.632,0,0,1-.075.287.834.834,0,0,1-.806.608H98.111a.629.629,0,0,1-.642-.649A3.314,3.314,0,0,1,97.544,22c.034-.28.082-.56.123-.84l.184-1.332c.061-.444.116-.854.178-1.284.15-1.018.307-2.05.444-3.061a8.506,8.506,0,0,0,.143-1.872,2.235,2.235,0,0,0-.068-.417.683.683,0,0,0-.376-.43,1.5,1.5,0,0,0-1.155-.048,2.186,2.186,0,0,0-.8.41c-.239.2-.465.41-.683.622a.4.4,0,0,0-.137.273c-.041.471-.116.943-.2,1.407s-.1.813-.157,1.216-.123.854-.178,1.284-.123.909-.191,1.366q-.137.984-.28,1.961-.1.683-.2,1.312a.861.861,0,0,1-.916.765H91.7a.56.56,0,0,1-.588-.54,2.323,2.323,0,0,1,0-.683c.061-.383.116-.765.171-1.148s.1-.765.157-1.148l.116-.84.225-1.653c.075-.526.143-1.052.219-1.571s.164-1.114.246-1.667q.1-.649.184-1.3a.922.922,0,0,0,0-.109H90.391c-.2,0-.225,0-.253.219q-.116.745-.219,1.489c-.1.683-.2,1.414-.3,2.125-.048.335-.1.683-.15,1-.137.984-.287,1.968-.4,2.952a17.538,17.538,0,0,1-.594,2.986,8.035,8.035,0,0,1-.724,1.735,3.375,3.375,0,0,1-1.209,1.2,5.1,5.1,0,0,1-1.551.683,2.986,2.986,0,0,1-1.366,0,1.325,1.325,0,0,1-.752-.465,1.366,1.366,0,0,1-.246-1.011,1.312,1.312,0,0,1,.936-1.114,3.32,3.32,0,0,0,1.688-1.319,3.792,3.792,0,0,0,.424-1.093,10.7,10.7,0,0,0,.273-1.428c.055-.478.137-.95.2-1.428s.109-.779.164-1.168.123-.752.178-1.134.089-.683.13-.977l.178-1.284.253-1.8Z" transform="translate(-26.168 -1.764)"/></g></g></svg>