<svg xmlns="http://www.w3.org/2000/svg" viewBox="0 0 161.864 29.723"><defs><style>.a{fill:#fff;fill-rule:evenodd;}</style></defs><g transform="translate(-0.025 -0.14)"><g transform="translate(-80 -35)"><g transform="translate(80 35)"><path class="a" d="M50.155,16.233l1.064,1.12A5.506,5.506,0,0,1,46.736,19.2a5.673,5.673,0,0,1-5.881-5.914A5.8,5.8,0,0,1,46.87,7.383a6.077,6.077,0,0,1,4.214,1.539l-.9,1.214c-.327.438-.684.327-1.079.074a3.914,3.914,0,0,0-2.246-.616c-2.123,0-3.253,1.792-3.253,3.7a3.441,3.441,0,0,0,3.308,3.7,3.506,3.506,0,0,0,2.435-.729.569.569,0,0,1,.81-.025ZM159.639,9.8a7.547,7.547,0,0,0-2.016-.3c-.822,0-2.3.1-2.3,1.188,0,.832,1.044,1.027,1.7,1.151,2.225.448,4.872,1.081,4.872,3.623,0,2.507-1.948,3.721-4.521,3.721a12.56,12.56,0,0,1-4.354-.822l.6-1.354a.783.783,0,0,1,.978-.411,7.48,7.48,0,0,0,2.487.458c.822,0,2.227-.193,2.227-1.233,0-1.247-1.884-1.383-2.877-1.595-1.865-.411-3.526-1.35-3.526-3.321,0-2.219,1.918-3.526,4.254-3.526a15.548,15.548,0,0,1,3.976.563l-.563,1.4a.781.781,0,0,1-.937.462ZM64.007,13.274a6.011,6.011,0,0,1-12.021,0,6.009,6.009,0,0,1,12.016,0Zm-2.745,0c0-2.077-1.027-3.7-3.255-3.7s-3.269,1.6-3.269,3.7,1.027,3.7,3.269,3.7S61.262,15.368,61.262,13.274ZM79,7.5V19.058H76.644V12.409c0-.154,0-.321.012-.5s.021-.362.043-.549l-3.078,5.944a1.01,1.01,0,0,1-.384.411,1.07,1.07,0,0,1-.553.144h-.355a1.066,1.066,0,0,1-.551-.144,1.012,1.012,0,0,1-.386-.411L68.32,11.347c.016.191.029.376.039.559s.016.353.016.505v6.647H66V7.5h2.361a.772.772,0,0,1,.232.047.534.534,0,0,1,.187.121.932.932,0,0,1,.16.236l2.977,5.866c.1.205.205.411.306.627s.191.44.279.666c.09-.232.185-.46.284-.682s.205-.43.312-.635L76.068,7.9a.931.931,0,0,1,.164-.236.522.522,0,0,1,.185-.121.791.791,0,0,1,.236-.047H79Zm7.582,6.164a1.878,1.878,0,0,0,1.968-2.139,1.879,1.879,0,0,0-1.968-2.014H84.216v4.149Zm0-6.164c2.466,0,4.652,1.264,4.652,4.021,0,2.815-2.079,4.163-4.652,4.163H84.216v3.378H81.532V7.5Zm11.864,9.452a2.443,2.443,0,0,0,2.53-2.6V7.5h2.681v6.849c0,2.971-2.278,4.841-5.211,4.841s-5.211-1.86-5.211-4.841V7.5h2.679v6.843a2.454,2.454,0,0,0,2.53,2.6Zm16.88-7.317h-3.493v9.427h-2.687V9.623h-3.494V7.5h9.677V9.623Zm13.215,3.643a6.009,6.009,0,0,1-12.017,0,6.009,6.009,0,0,1,12.017,0Zm-2.745,0c0-2.077-1.028-3.7-3.255-3.7s-3.269,1.6-3.269,3.7,1.027,3.7,3.269,3.7S125.8,15.368,125.8,13.274Zm16.454,0a6.009,6.009,0,0,1-12.016,0,6.009,6.009,0,0,1,12.016,0Zm-2.745,0c0-2.077-1.027-3.7-3.255-3.7s-3.269,1.6-3.269,3.7,1.028,3.7,3.269,3.7S139.508,15.368,139.508,13.274Zm12.317,3.643v2.141h-7.457V7.5h2.683v9.421Z"/><path class="a" d="M42.764,22.708v3.514H42.09V22.708Zm.127-1.087a.427.427,0,0,1-.037.177.5.5,0,0,1-.1.148.47.47,0,0,1-.152.1.462.462,0,0,1-.179.037.437.437,0,0,1-.177-.037.476.476,0,0,1-.146-.1A.466.466,0,0,1,42,21.8a.446.446,0,0,1-.037-.177A.46.46,0,0,1,42,21.438a.467.467,0,0,1,.1-.148.477.477,0,0,1,.146-.1.439.439,0,0,1,.177-.035.465.465,0,0,1,.179.035.47.47,0,0,1,.152.1.5.5,0,0,1,.1.148A.445.445,0,0,1,42.892,21.621Zm2.54,1.574a2.371,2.371,0,0,1,.238-.222,1.516,1.516,0,0,1,.265-.173,1.408,1.408,0,0,1,.3-.111,1.442,1.442,0,0,1,.343-.039,1.262,1.262,0,0,1,.512.1,1.007,1.007,0,0,1,.376.267,1.177,1.177,0,0,1,.224.411,1.837,1.837,0,0,1,.076.542V26.2h-.678V23.984a.9.9,0,0,0-.173-.588.648.648,0,0,0-.53-.206,1,1,0,0,0-.485.121,1.621,1.621,0,0,0-.411.335v2.577h-.694V22.71h.411a.158.158,0,0,1,.177.136l.051.353Zm4.931,0a2.372,2.372,0,0,1,.238-.222,1.512,1.512,0,0,1,.265-.173,1.416,1.416,0,0,1,.3-.111,1.442,1.442,0,0,1,.343-.039,1.262,1.262,0,0,1,.512.1,1.006,1.006,0,0,1,.368.271,1.174,1.174,0,0,1,.224.411,1.831,1.831,0,0,1,.076.542v2.238h-.678V23.984a.9.9,0,0,0-.173-.588.648.648,0,0,0-.53-.206,1,1,0,0,0-.485.121,1.629,1.629,0,0,0-.411.335v2.577h-.686V22.71h.411a.158.158,0,0,1,.177.136l.051.353Zm5.79-.542a1.86,1.86,0,0,1,.7.125,1.463,1.463,0,0,1,.532.364,1.618,1.618,0,0,1,.337.571,2.447,2.447,0,0,1,0,1.5,1.6,1.6,0,0,1-.337.571,1.471,1.471,0,0,1-.532.362,2.006,2.006,0,0,1-1.4,0,1.491,1.491,0,0,1-.534-.362,1.6,1.6,0,0,1-.339-.571,2.4,2.4,0,0,1,0-1.5,1.623,1.623,0,0,1,.339-.571,1.48,1.48,0,0,1,.534-.364A1.867,1.867,0,0,1,56.153,22.652Zm0,3.082A.861.861,0,0,0,56.9,25.4a1.942,1.942,0,0,0,0-1.89.859.859,0,0,0-.744-.337.871.871,0,0,0-.752.337,1.925,1.925,0,0,0,0,1.89A.871.871,0,0,0,56.153,25.734ZM62.6,22.7l-1.424,3.514h-.616L59.131,22.7h.557a.218.218,0,0,1,.132.039.205.205,0,0,1,.07.1l.84,2.158a2.159,2.159,0,0,1,.078.267c.023.088.041.179.06.265.019-.088.039-.175.062-.263a2.361,2.361,0,0,1,.082-.269l.851-2.158a.2.2,0,0,1,.2-.136Zm3.4,1.96a5.177,5.177,0,0,0-.7.064,1.926,1.926,0,0,0-.466.134.637.637,0,0,0-.259.2.43.43,0,0,0-.08.251.546.546,0,0,0,.043.226.426.426,0,0,0,.117.156.472.472,0,0,0,.175.088.82.82,0,0,0,.218.027,1.248,1.248,0,0,0,.286-.031,1.156,1.156,0,0,0,.243-.088,1.232,1.232,0,0,0,.218-.14A1.954,1.954,0,0,0,66,25.348Zm-1.979-1.463a1.933,1.933,0,0,1,1.393-.557,1.353,1.353,0,0,1,.532.1,1.1,1.1,0,0,1,.39.275,1.166,1.166,0,0,1,.24.421,1.729,1.729,0,0,1,.08.542v2.242h-.3a.287.287,0,0,1-.152-.033.191.191,0,0,1-.082-.121l-.072-.308a2.87,2.87,0,0,1-.267.22,1.7,1.7,0,0,1-.275.162,1.4,1.4,0,0,1-.306.1,1.744,1.744,0,0,1-.36.035,1.3,1.3,0,0,1-.388-.058.87.87,0,0,1-.316-.175.823.823,0,0,1-.205-.294,1.028,1.028,0,0,1-.078-.411.783.783,0,0,1,.113-.4,1.007,1.007,0,0,1,.366-.343A2.364,2.364,0,0,1,65,24.345,4.969,4.969,0,0,1,66,24.234v-.255a.894.894,0,0,0-.168-.6.616.616,0,0,0-.5-.205,1.08,1.08,0,0,0-.372.056,1.436,1.436,0,0,0-.259.121q-.108.068-.191.123a.3.3,0,0,1-.168.056.192.192,0,0,1-.119-.037.3.3,0,0,1-.082-.09l-.121-.218Zm5.655,3.082a.867.867,0,0,1-.656-.238.943.943,0,0,1-.23-.682v-2.1h-.411a.141.141,0,0,1-.1-.037.14.14,0,0,1-.041-.109v-.273l.571-.08.152-1.048a.148.148,0,0,1,.053-.092.154.154,0,0,1,.1-.033h.343v1.18h1v.491h-1v2.055a.422.422,0,0,0,.1.308.354.354,0,0,0,.261.1.489.489,0,0,0,.162-.025.64.64,0,0,0,.115-.053l.082-.053a.115.115,0,0,1,.062-.025.087.087,0,0,1,.055.014.206.206,0,0,1,.039.051l.205.325a1.163,1.163,0,0,1-.395.234,1.378,1.378,0,0,1-.475.082Zm3.173-3.569v3.514h-.674V22.708Zm.127-1.087a.431.431,0,0,1-.037.177.5.5,0,0,1-.1.148.469.469,0,0,1-.152.1.461.461,0,0,1-.179.037.437.437,0,0,1-.177-.037.475.475,0,0,1-.146-.1.467.467,0,0,1-.1-.148.446.446,0,0,1-.037-.177.46.46,0,0,1,.037-.183.467.467,0,0,1,.1-.148.477.477,0,0,1,.146-.1.439.439,0,0,1,.177-.035.471.471,0,0,1,.331.136.5.5,0,0,1,.1.148A.442.442,0,0,1,72.974,21.621Zm4.958,1.087-1.426,3.514H75.89l-1.424-3.514h.557a.216.216,0,0,1,.132.039.206.206,0,0,1,.07.1L76.064,25a2.155,2.155,0,0,1,.078.267c.023.088.041.179.06.265.018-.088.039-.175.062-.263A2.3,2.3,0,0,1,76.346,25l.851-2.157a.2.2,0,0,1,.2-.136Zm3.822,1.366a1.161,1.161,0,0,0-.055-.37.846.846,0,0,0-.169-.294.761.761,0,0,0-.269-.193.918.918,0,0,0-.366-.07.9.9,0,0,0-.668.244,1.19,1.19,0,0,0-.31.682Zm.557,1.644a1.327,1.327,0,0,1-.288.251,1.658,1.658,0,0,1-.345.173,2.079,2.079,0,0,1-.378.1,2.487,2.487,0,0,1-.386.031,1.81,1.81,0,0,1-.672-.123,1.492,1.492,0,0,1-.536-.36,1.642,1.642,0,0,1-.353-.588,2.376,2.376,0,0,1-.127-.808,2.005,2.005,0,0,1,.115-.684,1.646,1.646,0,0,1,.327-.551,1.512,1.512,0,0,1,.52-.37,1.71,1.71,0,0,1,.692-.136,1.642,1.642,0,0,1,.594.1,1.316,1.316,0,0,1,.468.306,1.417,1.417,0,0,1,.31.5,1.871,1.871,0,0,1,.111.67.425.425,0,0,1-.035.205.142.142,0,0,1-.127.053H79.9a1.9,1.9,0,0,0,.09.549,1.11,1.11,0,0,0,.22.39.87.87,0,0,0,.333.232,1.177,1.177,0,0,0,.431.076,1.3,1.3,0,0,0,.4-.047,1.877,1.877,0,0,0,.283-.113c.078-.041.146-.078.206-.111A.277.277,0,0,1,82,25.41a.154.154,0,0,1,.127.062l.193.249Zm7.155-2.408a.178.178,0,0,1-.06.064.151.151,0,0,1-.08.021.248.248,0,0,1-.121-.037c-.045-.025-.1-.053-.162-.082a1.569,1.569,0,0,0-.224-.082,1.077,1.077,0,0,0-.3-.039.9.9,0,0,0-.263.035.627.627,0,0,0-.206.1.449.449,0,0,0-.127.152.41.41,0,0,0-.045.189.312.312,0,0,0,.078.218.663.663,0,0,0,.205.148,1.972,1.972,0,0,0,.288.111l.329.107c.111.037.222.078.329.125a1.2,1.2,0,0,1,.288.177.822.822,0,0,1,.205.255.777.777,0,0,1,.078.364,1.158,1.158,0,0,1-.088.454,1,1,0,0,1-.259.362,1.233,1.233,0,0,1-.423.238,1.784,1.784,0,0,1-.577.086,1.822,1.822,0,0,1-.672-.121,1.684,1.684,0,0,1-.516-.308l.16-.259a.225.225,0,0,1,.07-.074.205.205,0,0,1,.111-.025.236.236,0,0,1,.136.049,1.721,1.721,0,0,0,.166.1,1.257,1.257,0,0,0,.236.1,1.091,1.091,0,0,0,.345.047.947.947,0,0,0,.3-.043.617.617,0,0,0,.205-.117.476.476,0,0,0,.125-.17.516.516,0,0,0,.041-.205.345.345,0,0,0-.078-.23.667.667,0,0,0-.205-.156,1.64,1.64,0,0,0-.29-.115l-.333-.1a3.416,3.416,0,0,1-.333-.127,1.142,1.142,0,0,1-.288-.183.851.851,0,0,1-.205-.269.877.877,0,0,1-.078-.388.938.938,0,0,1,.084-.39.972.972,0,0,1,.244-.329,1.211,1.211,0,0,1,.4-.228,1.6,1.6,0,0,1,.54-.084,1.722,1.722,0,0,1,.631.111,1.439,1.439,0,0,1,.483.3l-.148.244Zm3.493-.66a1.865,1.865,0,0,1,.7.125,1.46,1.46,0,0,1,.532.364,1.622,1.622,0,0,1,.337.571,2.452,2.452,0,0,1,0,1.5,1.6,1.6,0,0,1-.337.571,1.47,1.47,0,0,1-.532.362,2.008,2.008,0,0,1-1.406,0,1.494,1.494,0,0,1-.534-.362,1.605,1.605,0,0,1-.339-.571,2.408,2.408,0,0,1,0-1.5,1.63,1.63,0,0,1,.339-.571,1.48,1.48,0,0,1,.534-.364,1.869,1.869,0,0,1,.7-.125Zm0,3.082A.863.863,0,0,0,93.7,25.4a1.946,1.946,0,0,0,0-1.891,1,1,0,0,0-1.5,0,1.926,1.926,0,0,0,0,1.891A.872.872,0,0,0,92.959,25.732Zm3.645.477V23.26l-.366-.045a.257.257,0,0,1-.13-.058.138.138,0,0,1-.051-.115v-.279H96.6v-.319a1.551,1.551,0,0,1,.086-.536,1.114,1.114,0,0,1,.249-.4,1.053,1.053,0,0,1,.388-.249,1.438,1.438,0,0,1,.51-.084,1.336,1.336,0,0,1,.44.07l-.014.339a.092.092,0,0,1-.027.068.144.144,0,0,1-.064.033.449.449,0,0,1-.1.012h-.123a.992.992,0,0,0-.284.039.506.506,0,0,0-.218.127.586.586,0,0,0-.138.236,1.182,1.182,0,0,0-.049.366v.3h.986v.491h-.966v2.967Zm4.371.056a.868.868,0,0,1-.656-.238.945.945,0,0,1-.23-.682v-2.09h-.411a.134.134,0,0,1-.138-.146v-.273l.572-.08.152-1.048a.143.143,0,0,1,.053-.092.154.154,0,0,1,.1-.033h.343v1.18h1v.491h-1v2.055a.41.41,0,0,0,.1.308.353.353,0,0,0,.261.1.486.486,0,0,0,.162-.025.627.627,0,0,0,.115-.053l.082-.053a.116.116,0,0,1,.062-.025.083.083,0,0,1,.053.014.193.193,0,0,1,.039.051l.206.325a1.172,1.172,0,0,1-.4.234,1.378,1.378,0,0,1-.474.082Zm7.348-3.569-1.133,3.514h-.546c-.064,0-.1-.043-.132-.127l-.739-2.289c-.019-.058-.035-.115-.05-.173s-.026-.113-.039-.171a2.462,2.462,0,0,1-.086.349l-.748,2.3c-.027.084-.072.127-.148.127h-.512l-1.134-3.514h.532a.226.226,0,0,1,.134.039.179.179,0,0,1,.07.1L104.425,25c.024.086.039.173.055.257s.031.166.045.249c.021-.082.043-.166.068-.249s.045-.168.074-.257l.7-2.172a.181.181,0,0,1,.183-.131h.294a.2.2,0,0,1,.127.035.185.185,0,0,1,.068.1L106.726,25c.027.086.049.173.072.257s.043.169.062.255c.014-.082.03-.167.047-.251s.037-.173.061-.261l.644-2.158a.176.176,0,0,1,.072-.1.2.2,0,0,1,.121-.039Zm3.47,1.962a5.165,5.165,0,0,0-.7.064,1.922,1.922,0,0,0-.467.134.635.635,0,0,0-.259.2.433.433,0,0,0-.08.251.548.548,0,0,0,.043.226.439.439,0,0,0,.117.156.476.476,0,0,0,.175.088.819.819,0,0,0,.218.027,1.222,1.222,0,0,0,.285-.031,1.148,1.148,0,0,0,.243-.082,1.263,1.263,0,0,0,.218-.14,1.97,1.97,0,0,0,.205-.191Zm-1.979-1.463a1.935,1.935,0,0,1,1.394-.557,1.351,1.351,0,0,1,.532.1,1.1,1.1,0,0,1,.39.275,1.171,1.171,0,0,1,.241.421,1.749,1.749,0,0,1,.08.542v2.242h-.3a.285.285,0,0,1-.152-.033.193.193,0,0,1-.083-.121l-.071-.308a2.869,2.869,0,0,1-.268.22,1.659,1.659,0,0,1-.273.162,1.393,1.393,0,0,1-.306.1,1.744,1.744,0,0,1-.36.035,1.293,1.293,0,0,1-.388-.058.875.875,0,0,1-.316-.175.815.815,0,0,1-.206-.294,1.016,1.016,0,0,1-.078-.411.786.786,0,0,1,.113-.4,1.011,1.011,0,0,1,.366-.343,2.357,2.357,0,0,1,.663-.249,4.982,4.982,0,0,1,1.007-.111v-.255a.893.893,0,0,0-.168-.6.617.617,0,0,0-.5-.205,1.08,1.08,0,0,0-.372.056,1.44,1.44,0,0,0-.259.121l-.191.123a.3.3,0,0,1-.169.056.19.19,0,0,1-.119-.037.3.3,0,0,1-.082-.09l-.121-.218Zm5.238.183a1.614,1.614,0,0,1,.411-.542.873.873,0,0,1,.575-.205.888.888,0,0,1,.216.025.557.557,0,0,1,.177.078l-.045.507a.1.1,0,0,1-.038.07.1.1,0,0,1-.075.023.844.844,0,0,1-.146-.021,1.1,1.1,0,0,0-.206-.018.817.817,0,0,0-.287.045.656.656,0,0,0-.222.138.909.909,0,0,0-.175.224,2.271,2.271,0,0,0-.142.3v2.2h-.674V22.689h.387a.217.217,0,0,1,.152.039.224.224,0,0,1,.055.14l.041.5Zm5.153.694a1.133,1.133,0,0,0-.057-.37.84.84,0,0,0-.169-.294.755.755,0,0,0-.269-.193.914.914,0,0,0-.365-.07.9.9,0,0,0-.668.244,1.191,1.191,0,0,0-.311.682Zm.557,1.644a1.327,1.327,0,0,1-.287.251,1.659,1.659,0,0,1-.346.173,2.059,2.059,0,0,1-.378.1,2.454,2.454,0,0,1-.386.031,1.809,1.809,0,0,1-.672-.123,1.489,1.489,0,0,1-.536-.36,1.655,1.655,0,0,1-.354-.588,2.408,2.408,0,0,1-.127-.808,1.994,1.994,0,0,1,.115-.684,1.648,1.648,0,0,1,.327-.551,1.507,1.507,0,0,1,.52-.37,1.7,1.7,0,0,1,.692-.136,1.63,1.63,0,0,1,.594.1,1.313,1.313,0,0,1,.468.306,1.416,1.416,0,0,1,.311.5,1.887,1.887,0,0,1,.111.67.439.439,0,0,1-.035.205.144.144,0,0,1-.128.053h-2.305a1.893,1.893,0,0,0,.09.549,1.112,1.112,0,0,0,.22.39.866.866,0,0,0,.333.232,1.174,1.174,0,0,0,.432.076,1.3,1.3,0,0,0,.39-.051,1.953,1.953,0,0,0,.284-.113c.08-.041.145-.078.205-.111a.274.274,0,0,1,.144-.051.153.153,0,0,1,.127.062l.193.249Zm7.155-2.408a.184.184,0,0,1-.059.064.152.152,0,0,1-.081.021.257.257,0,0,1-.121-.037q-.067-.037-.162-.082a1.573,1.573,0,0,0-.224-.082,1.076,1.076,0,0,0-.3-.039.9.9,0,0,0-.265.035.633.633,0,0,0-.206.1.444.444,0,0,0-.127.152.4.4,0,0,0-.045.189.311.311,0,0,0,.078.218.663.663,0,0,0,.205.148,1.957,1.957,0,0,0,.288.111l.329.107c.111.037.222.078.328.125a1.2,1.2,0,0,1,.288.177.83.83,0,0,1,.206.255.788.788,0,0,1,.076.364,1.16,1.16,0,0,1-.089.454.991.991,0,0,1-.259.362,1.227,1.227,0,0,1-.423.238,1.774,1.774,0,0,1-.577.086,1.821,1.821,0,0,1-.672-.121,1.691,1.691,0,0,1-.516-.308l.158-.259a.183.183,0,0,1,.179-.1.238.238,0,0,1,.136.049,1.65,1.65,0,0,0,.166.1,1.25,1.25,0,0,0,.234.1,1.1,1.1,0,0,0,.345.047.94.94,0,0,0,.3-.043.611.611,0,0,0,.206-.117.469.469,0,0,0,.125-.17.5.5,0,0,0,.041-.205.338.338,0,0,0-.076-.23.661.661,0,0,0-.205-.156,1.652,1.652,0,0,0-.29-.115l-.329-.093a3.429,3.429,0,0,1-.33-.127,1.128,1.128,0,0,1-.288-.183.856.856,0,0,1-.206-.269.88.88,0,0,1-.078-.388.94.94,0,0,1,.085-.39.956.956,0,0,1,.246-.329,1.212,1.212,0,0,1,.4-.228,1.592,1.592,0,0,1,.54-.084,1.721,1.721,0,0,1,.633.111,1.443,1.443,0,0,1,.481.3l-.148.245Zm3.493-.66a1.859,1.859,0,0,1,.7.125,1.46,1.46,0,0,1,.532.364,1.616,1.616,0,0,1,.337.571,2.447,2.447,0,0,1,0,1.5,1.6,1.6,0,0,1-.337.571,1.463,1.463,0,0,1-.532.362,2,2,0,0,1-1.4,0,1.49,1.49,0,0,1-.535-.362,1.613,1.613,0,0,1-.339-.571,2.4,2.4,0,0,1,0-1.5,1.634,1.634,0,0,1,.339-.571,1.48,1.48,0,0,1,.535-.364A1.862,1.862,0,0,1,131.41,22.648Zm0,3.082a.861.861,0,0,0,.744-.335,1.939,1.939,0,0,0,0-1.89.859.859,0,0,0-.744-.337.869.869,0,0,0-.752.337,1.929,1.929,0,0,0,0,1.89A.871.871,0,0,0,131.41,25.73ZM135.6,21.1v5.1h-.678V21.115Zm4.931,1.59v3.514h-.411a.172.172,0,0,1-.178-.136l-.05-.353a2.378,2.378,0,0,1-.238.222,1.463,1.463,0,0,1-.567.282,1.4,1.4,0,0,1-.343.041,1.251,1.251,0,0,1-.51-.1,1.013,1.013,0,0,1-.368-.271,1.177,1.177,0,0,1-.226-.411,1.844,1.844,0,0,1-.076-.543V22.708h.678v2.238a.9.9,0,0,0,.173.586.648.648,0,0,0,.53.205.992.992,0,0,0,.485-.123,1.645,1.645,0,0,0,.421-.337V22.708Zm3.1,3.583a.864.864,0,0,1-.655-.238.94.94,0,0,1-.23-.682v-2.1h-.411a.142.142,0,0,1-.1-.037.138.138,0,0,1-.041-.109v-.273l.571-.08.152-1.048a.163.163,0,0,1,.054-.092.15.15,0,0,1,.1-.033h.354v1.18h1v.491h-1v2.055a.409.409,0,0,0,.1.308.352.352,0,0,0,.261.1.491.491,0,0,0,.163-.025.644.644,0,0,0,.115-.053l.082-.053a.114.114,0,0,1,.062-.025.084.084,0,0,1,.053.014.192.192,0,0,1,.039.051l.206.325a1.169,1.169,0,0,1-.395.234,1.377,1.377,0,0,1-.475.082Zm3.173-3.569v3.514h-.674V22.708Zm.127-1.087a.415.415,0,0,1-.039.177.479.479,0,0,1-.1.148.474.474,0,0,1-.33.138.439.439,0,0,1-.177-.037.478.478,0,0,1-.247-.249.448.448,0,0,1-.037-.177.459.459,0,0,1,.037-.183.487.487,0,0,1,.247-.249.437.437,0,0,1,.177-.035.46.46,0,0,1,.18.035.476.476,0,0,1,.251.249A.443.443,0,0,1,146.93,21.621Zm3.405,1.027a1.87,1.87,0,0,1,.7.125,1.461,1.461,0,0,1,.532.364,1.63,1.63,0,0,1,.337.571,2.447,2.447,0,0,1,0,1.5,1.6,1.6,0,0,1-.337.571,1.472,1.472,0,0,1-.532.362,2.01,2.01,0,0,1-1.406,0,1.489,1.489,0,0,1-.534-.362,1.6,1.6,0,0,1-.339-.571,2.4,2.4,0,0,1,0-1.5,1.622,1.622,0,0,1,.339-.571,1.478,1.478,0,0,1,.534-.364,1.869,1.869,0,0,1,.7-.125Zm0,3.082a.862.862,0,0,0,.744-.335,1.944,1.944,0,0,0,0-1.89.86.86,0,0,0-.744-.337.871.871,0,0,0-.752.337,1.929,1.929,0,0,0,0,1.89A.873.873,0,0,0,150.335,25.73Zm4.128-2.55a2.426,2.426,0,0,1,.238-.222,1.51,1.51,0,0,1,.265-.173,1.386,1.386,0,0,1,.644-.15,1.252,1.252,0,0,1,.509.1,1.006,1.006,0,0,1,.368.271,1.2,1.2,0,0,1,.224.411,1.844,1.844,0,0,1,.076.542v2.238h-.678V23.984a.9.9,0,0,0-.173-.588.646.646,0,0,0-.53-.206,1,1,0,0,0-.485.121,1.639,1.639,0,0,0-.411.335v2.577h-.674V22.71h.411a.165.165,0,0,1,.177.136l.051.353Zm6.37.117a.188.188,0,0,1-.06.064.149.149,0,0,1-.08.021.253.253,0,0,1-.121-.037q-.068-.037-.162-.082a1.66,1.66,0,0,0-.224-.082,1.08,1.08,0,0,0-.3-.039.908.908,0,0,0-.264.035.632.632,0,0,0-.205.1.442.442,0,0,0-.127.152.415.415,0,0,0-.046.189.321.321,0,0,0,.078.218.683.683,0,0,0,.206.148,1.968,1.968,0,0,0,.288.111l.328.107c.111.037.222.078.329.125a1.2,1.2,0,0,1,.288.177.844.844,0,0,1,.205.255.763.763,0,0,1,.076.364,1.142,1.142,0,0,1-.088.454,1,1,0,0,1-.259.362,1.238,1.238,0,0,1-.423.238,1.782,1.782,0,0,1-.578.086,1.827,1.827,0,0,1-.672-.121,1.694,1.694,0,0,1-.515-.308l.158-.259a.209.209,0,0,1,.07-.074.2.2,0,0,1,.1-.021.233.233,0,0,1,.135.049,1.7,1.7,0,0,0,.167.1,1.257,1.257,0,0,0,.234.1,1.1,1.1,0,0,0,.345.047.94.94,0,0,0,.3-.043.62.62,0,0,0,.206-.117.468.468,0,0,0,.125-.171.5.5,0,0,0,.041-.205.344.344,0,0,0-.078-.23.674.674,0,0,0-.206-.156,1.612,1.612,0,0,0-.289-.115l-.331-.1a3.485,3.485,0,0,1-.333-.127,1.164,1.164,0,0,1-.288-.183.868.868,0,0,1-.205-.269.88.88,0,0,1-.078-.388.939.939,0,0,1,.086-.39.967.967,0,0,1,.245-.329,1.21,1.21,0,0,1,.4-.228,1.6,1.6,0,0,1,.541-.084,1.713,1.713,0,0,1,.63.111,1.435,1.435,0,0,1,.483.3Z"/><path class="a" d="M17.955.14A14.864,14.864,0,0,1,32.632,12.674a24.641,24.641,0,0,1-3.53,2.347,2.9,2.9,0,0,1,.871.742,27.714,27.714,0,0,0,2.986-1.95,10.08,10.08,0,0,0,2.322-2.275c.635-.97.551-1.7-.5-2.182A6.639,6.639,0,0,0,32.7,8.868l.109-1.105a7.711,7.711,0,0,1,2.435.584A2.263,2.263,0,0,1,36.38,11.8a9.911,9.911,0,0,1-2.747,2.891q-.39.3-.822.6A14.86,14.86,0,0,1,17.953,29.862V21.933c-1.325.392-2.62.734-3.869,1.027a8.774,8.774,0,0,0,1.835.653v6.115a14.744,14.744,0,0,1-1.5-.288A2.649,2.649,0,0,0,9.6,27.288a14.945,14.945,0,0,1-2.466-2.1A2.634,2.634,0,0,0,8,23.953q-.372.033-.727.058a12.863,12.863,0,0,1-5.605-.581,2.24,2.24,0,0,1-1.36-3.255,6.846,6.846,0,0,1,1.508-1.96l.771.8A5.778,5.778,0,0,0,1.317,20.64a1.176,1.176,0,0,0,.633,1.744A11.35,11.35,0,0,0,7.2,22.9a53.324,53.324,0,0,0,12.945-2.834c1.3-.44,2.554-.908,3.75-1.4l.09-.037a2.894,2.894,0,0,0,.306.491l.023.029.045.056.027.031.023.027.049.053.056.058q.07.07.146.136a2.877,2.877,0,0,0,1.895.709h.109a2.877,2.877,0,0,1,.9-5.587,2.887,2.887,0,0,0-3.9,2.7v.205c-1.367.555-2.7,1.04-3.9,1.449-1.543.524-3.522,1.124-5.632,1.644A6.808,6.808,0,0,1,17.955,8.192Zm0,18.374q.756-.236,1.506-.489l.166-.058c-.084-.049-.179-.09-.187-.205,0-.08-.177-.14-.205-.205a2.856,2.856,0,0,0-.179-.337c-.074-.127-.076-.125.031-.23a.6.6,0,0,0,.064-.062.507.507,0,0,0,.148-.294c0-.156.012-.312.019-.452l.456-.084h.033a.928.928,0,0,0,.218-.031c.218-.088.154.167.386.16a1.685,1.685,0,0,1,.012-.177c.021-.115.049-.23.066-.345,0-.045.023-.062.064-.064.121-.01.24-.025.362-.031.016,0,.041.027.049.047.037.084.068.171.1.261l.205-.205a1.02,1.02,0,0,0,.123.092.389.389,0,0,0,.158.064,1.179,1.179,0,0,1,.6.1.462.462,0,0,1,.053-.088c.051-.054.058-.158.166-.148a.127.127,0,0,0,.016-.049,1.118,1.118,0,0,1,.542-.847.939.939,0,0,0,.454-.423.158.158,0,0,0-.027-.162c-.031-.051-.07-.029-.107-.021a.081.081,0,0,1-.1-.049c-.045-.123-.1-.242-.158-.359l.169-.142a.417.417,0,0,0-.033-.045c-.109-.113-.107-.111.01-.222.053-.049.123-.1.138-.168a.617.617,0,0,1,.31-.444.431.431,0,0,0,.187-.177.861.861,0,0,1,.471-.386c.068-.029.132-.057.152-.14a2.374,2.374,0,0,0,.056-.238.51.51,0,0,1,.177-.339,5,5,0,0,1,.411-.3.191.191,0,0,0-.236-.16c-.123.033-.247.057-.372.082A.191.191,0,0,1,24.212,11c-.014-.057-.027-.115-.043-.173l-.021-.072a.191.191,0,0,1,.119-.232l.064-.023a.136.136,0,0,0,.093-.107.962.962,0,0,1,.113-.3,1.527,1.527,0,0,1,.686-.547c.29-.121.59-.222.884-.333a1.266,1.266,0,0,1,.658-.051.1.1,0,0,0,.084-.035,1.04,1.04,0,0,1,.489-.411c-.029-.016-.047-.037-.07-.041a1.785,1.785,0,0,0-.205-.029.189.189,0,0,1-.175-.16l-.01-.01a.883.883,0,0,1-.684-.156,1,1,0,0,1-.29-.411c-.035-.07-.047-.15-.127-.205s-.131-.082-.205-.125a.189.189,0,0,0-.224,0,.8.8,0,0,1-.244.107.1.1,0,0,0-.035.021,1.147,1.147,0,0,1-.337.205c-.115.051-.228.111-.343.171a.191.191,0,0,1-.255-.076l-.07-.121c0-.016-.031-.035-.045-.033a.382.382,0,0,0-.09.027l-.025.014c-.06.039-.084,0-.107-.041l-.144-.3a.189.189,0,0,1,.062-.238l.082-.058a1.942,1.942,0,0,0-.964-.29.191.191,0,0,0-.185.255.617.617,0,0,1,.037.146.772.772,0,0,1-.025.238.187.187,0,0,0,.088.205q.052.031.1.068a.651.651,0,0,1,.179.762,1.438,1.438,0,0,1-.306.4c-.158.148-.154.15.02.279a.434.434,0,0,1,.064.645,2.567,2.567,0,0,1-.271.259.592.592,0,0,1-.637.1,1.3,1.3,0,0,1-.616-.629,2.589,2.589,0,0,0-.167-.279c-.051-.074-.115-.064-.152.014a.466.466,0,0,0-.051.1c-.014.08-.066.1-.136.107-.115.014-.205.012-.265-.123-.041-.095-.088-.205-.222-.234A2.724,2.724,0,0,1,20,9.2c-.129-.037-.275-.027-.38-.134h-.043c-.154.033-.31.058-.46.1-.119.035-.259,0-.267-.095a.205.205,0,0,0-.388-.078c-.043.308-.23.316-.5.316a5.615,5.615,0,0,0-5.694,5.62.265.265,0,0,0,.224.23c.249.039.411-.206.645-.167s.259.205.267.36-.24.205-.1.411a.915.915,0,0,0,.542.329,1.38,1.38,0,0,1,.75.518c.01.014.047.018.07.016a.917.917,0,0,1,.205-.023c.162.025.567-.218.725-.173a.382.382,0,0,1,.294.362.234.234,0,0,0,.092.205c.222.187.446.577.869.586.364,0,.1.216.23.355.064.068.023.156.191.206a1.543,1.543,0,0,1,.676.37ZM7.79,21.781a37.95,37.95,0,0,0,3.869-.569A8.836,8.836,0,0,1,15.92,6.4V.277a14.8,14.8,0,0,0-1.5.286A2.649,2.649,0,0,1,9.6,2.712a14.924,14.924,0,0,0-2.466,2.1,2.649,2.649,0,0,1-2.877,4.42,14.755,14.755,0,0,0-.925,3.127,2.649,2.649,0,0,1,0,5.277,14.747,14.747,0,0,0,.927,3.127,2.649,2.649,0,0,1,3.462.894c.025.039.049.078.072.117Zm13.594,2.207a1.493,1.493,0,0,0-.092.81c.025.516.253-.037.292.247a.931.931,0,0,1-.271.822c-.127.127-.251.259-.374.39a.616.616,0,0,0-.171.362.167.167,0,0,0,.08.187c.152.072.193.129.138.288s-.125.281-.187.423c-.033.076-.09.162-.076.23.051.226.121.45.185.674a13.707,13.707,0,0,0,6.134-3.113.778.778,0,0,0-.1-.109.947.947,0,0,0-.384.056c-.047.016-.119,0-.062-.053s.292-.206.205-.24c-.205-.06-.376-.44-.446-.458-.167-.041-.205-.121-.205-.249a.205.205,0,0,0-.1-.205,5.142,5.142,0,0,1-.694-.5.382.382,0,0,0-.376-.07.354.354,0,0,0-.181.111.205.205,0,0,1-.312.043c-.084-.062-.17-.123-.257-.183-.205-.156-.273-.436-.411-.446-.205-.017-.016-.205-.238-.249-.14-.027-.206.014-.249.078a.8.8,0,0,0-.107.259c-.047.269-.066.629-.234.571-.59-.411-.014-.859.074-1.027a3.3,3.3,0,0,0,.033-.46,1.171,1.171,0,0,0-.514-.364c-.692.064-.7-.834-.75-1.2l-1.233.432c.411,1.124,1.3,1.015,1.527,1.223a.786.786,0,0,0,.29.187c.01,0,.205.193-.093.329-.257.117-.273.232-.205.378.123.271-.109.351-.162.534a.477.477,0,0,1-.1.187c-.084.1-.259-.021-.362.109Z"/></g></g></g></svg>