<svg xmlns="http://www.w3.org/2000/svg" viewBox="0 0 131 33.7"><defs><style>.a{fill:#fff;}</style></defs><g transform="translate(0 0)"><g transform="translate(0 0)"><path class="a" d="M556.34,79.89h1.27c.145,0,.188.085.246.179l2.505,4.133c.359.592.719,1.184,1.115,1.766v-6.06h1.391V88.3c-.431,0-.864.01-1.3-.008-.072,0-.163-.109-.207-.189-.538-.876-1.07-1.756-1.6-2.635l-1.81-3c-.047-.077-.1-.152-.187-.287v6.1H556.34Z" transform="translate(-465.609 -66.861)"/><path class="a" d="M204.6,88.324V79.933c.093,0,.183-.013.272-.013h2.609a3.359,3.359,0,0,1,3.425,3.188,14.254,14.254,0,0,1-.047,2.36,3.26,3.26,0,0,1-2.761,2.8,5.608,5.608,0,0,1-.775.055C206.427,88.327,205.528,88.324,204.6,88.324Zm1.437-7.285V87.2c.45,0,.886.011,1.319,0a2.034,2.034,0,0,0,2.068-1.708,7.013,7.013,0,0,0,0-2.79,2.026,2.026,0,0,0-1.911-1.657C207.027,81.013,206.544,81.039,206.037,81.039Z" transform="translate(-171.233 -66.886)"/><path class="a" d="M405.645,81.566h-1.319a3.627,3.627,0,0,0-.1-.465,1.283,1.283,0,0,0-.83-.838,2.378,2.378,0,0,0-1.556,0,1.092,1.092,0,0,0-.766,1.328.939.939,0,0,0,.512.6,10.752,10.752,0,0,0,1.287.507,6.309,6.309,0,0,1,2.03.931,2.169,2.169,0,0,1-.23,3.559,3.514,3.514,0,0,1-1.391.442,4.1,4.1,0,0,1-2.984-.7,2.089,2.089,0,0,1-.9-1.743,1.288,1.288,0,0,1,.02-.184h1.228c.046,0,.109.08.127.135.031.095.023.2.047.3a1.246,1.246,0,0,0,.758.868,2.654,2.654,0,0,0,1.874.1,1.128,1.128,0,0,0,.254-2.092,6.805,6.805,0,0,0-1.156-.46,6.3,6.3,0,0,1-2.166-.979,1.985,1.985,0,0,1-.352-2.8,2.315,2.315,0,0,1,.708-.6,3.777,3.777,0,0,1,3.7-.018,2.231,2.231,0,0,1,1.23,1.869.973.973,0,0,1,0,.139A.613.613,0,0,1,405.645,81.566Z" transform="translate(-334.263 -66.097)"/><path class="a" d="M713.145,79.94h1.388v5.607a2.628,2.628,0,0,0,.054.553,1.393,1.393,0,0,0,.835,1.044,2.317,2.317,0,0,0,1.957-.038,1.389,1.389,0,0,0,.815-1.142,5.316,5.316,0,0,0,.042-.664V79.95h1.4v5.622a2.613,2.613,0,0,1-2.094,2.74,4.411,4.411,0,0,1-2.626-.077,2.514,2.514,0,0,1-1.794-2.423c-.024-1.929,0-3.859,0-5.788A.429.429,0,0,1,713.145,79.94Z" transform="translate(-596.815 -66.903)"/><path class="a" d="M653.9,88.374V80h5.625v1.086h-4.183v2.4h3.647V84.6h-3.647v2.676h4.216v1.1Z" transform="translate(-547.258 -66.953)"/><path class="a" d="M514,80h5.615v1.094h-4.193v2.391h3.647v1.124h-3.647v2.666h4.224v1.1H514Z" transform="translate(-430.174 -66.953)"/><path class="a" d="M757.46,88.259c.163-.471.326-.905.489-1.339q1.248-3.4,2.49-6.8c.077-.21.173-.29.4-.271a4.766,4.766,0,0,0,.778,0c.214-.018.3.059.375.259.509,1.429,1.031,2.854,1.546,4.281q.664,1.83,1.324,3.656c.021.06.039.122.07.215H763.59c-.051,0-.121-.1-.145-.163-.186-.522-.372-1.045-.541-1.575a.253.253,0,0,0-.292-.207q-1.42.011-2.841,0a.238.238,0,0,0-.274.194c-.173.528-.365,1.049-.535,1.577a.222.222,0,0,1-.254.186C758.3,88.252,757.907,88.259,757.46,88.259Zm3.774-6.672h-.057c-.4,1.191-.8,2.381-1.205,3.588h2.446C762.023,83.968,761.625,82.778,761.234,81.587Z" transform="translate(-633.929 -66.821)"/><path class="a" d="M339.195,88.228h-1.259a.205.205,0,0,1-.232-.174c-.173-.528-.364-1.05-.537-1.577-.046-.142-.1-.207-.266-.205q-1.433.015-2.867,0a.238.238,0,0,0-.272.2c-.173.527-.365,1.049-.537,1.577a.22.22,0,0,1-.254.183c-.4-.01-.8,0-1.231,0,.036-.114.062-.207.095-.3q1.438-3.924,2.872-7.848a.326.326,0,0,1,.4-.267,6.485,6.485,0,0,0,.835,0,.258.258,0,0,1,.3.209c.561,1.569,1.132,3.133,1.7,4.7q.594,1.647,1.191,3.291C339.147,88.075,339.165,88.137,339.195,88.228Zm-2.5-3.073-1.194-3.6h-.054l-1.21,3.6Z" transform="translate(-277.638 -66.79)"/><path class="a" d="M246.68,88.273c.091-.259.163-.489.258-.724q1.358-3.7,2.717-7.4c.117-.316.029-.281.406-.284.269,0,.538.01.807,0a.269.269,0,0,1,.316.217q1.062,2.952,2.136,5.9.375,1.032.745,2.063c.024.07.046.14.075.232h-1.295c-.142,0-.163-.082-.2-.183-.173-.517-.364-1.029-.525-1.551a.269.269,0,0,0-.313-.222q-1.4.011-2.812,0a.256.256,0,0,0-.294.205c-.171.528-.362,1.05-.538,1.577-.036.109-.07.176-.2.173C247.548,88.268,247.13,88.273,246.68,88.273Zm4.964-3.076c-.4-1.215-.8-2.41-1.2-3.606l-.051.013c-.4,1.191-.8,2.381-1.208,3.588Z" transform="translate(-206.45 -66.836)"/><path class="a" d="M610.808,84.946h1.363a2.708,2.708,0,0,1-.448,1.657,2.609,2.609,0,0,1-1.295,1.01,3.779,3.779,0,0,1-2.482.068,2.991,2.991,0,0,1-2.132-2.474,9.853,9.853,0,0,1,.025-3.485A3.1,3.1,0,0,1,609,79.208a3.873,3.873,0,0,1,1.871.434,2.543,2.543,0,0,1,1.282,2.481h-1.339c-.015-.124-.024-.251-.046-.375a1.563,1.563,0,0,0-1.618-1.412,1.665,1.665,0,0,0-1.739,1.078,3.294,3.294,0,0,0-.267,1.125c-.031.757,0,1.518.029,2.283a2.161,2.161,0,0,0,.336,1.019,1.871,1.871,0,0,0,2.523.664,1.569,1.569,0,0,0,.755-1.29C610.8,85.12,610.8,85.044,610.808,84.946Z" transform="translate(-506.895 -66.289)"/><path class="a" d="M450.217,81.956c-.029-.2-.047-.388-.085-.566a1.564,1.564,0,0,0-1.6-1.241,1.705,1.705,0,0,0-1.732,1.058,2.65,2.65,0,0,0-.272,1.155c-.008.76.01,1.52.039,2.283a2.141,2.141,0,0,0,.339,1.018,1.876,1.876,0,0,0,2.526.652,1.557,1.557,0,0,0,.745-1.267c.01-.082.011-.163.018-.267h1.37a2.7,2.7,0,0,1-.68,1.942,2.921,2.921,0,0,1-1.957.928,3.355,3.355,0,0,1-2.319-.489,3.278,3.278,0,0,1-1.468-2.67,18.472,18.472,0,0,1,0-2.308,3.14,3.14,0,0,1,2.024-2.936,3.588,3.588,0,0,1,3.066.192,2.485,2.485,0,0,1,1.349,2.216c.016.3.01.3-.274.3C450.938,81.957,450.577,81.956,450.217,81.956Z" transform="translate(-372.518 -66.11)"/><path class="a" d="M296.552,81.091H294V80h6.458v1.083h-2.505v7.288h-1.4Z" transform="translate(-246.053 -66.953)"/><path class="a" d="M79.109,129.4l-.39,1.28c-.173.086-.347.163-.515.261-.359.2-.719.4-1.07.615a9.694,9.694,0,0,1-1.014.652c-.326.137-.577.365-.882.515-.088.044-.178.085-.263.134-.308.171-.613.346-.918.519-.186.1-.378.2-.558.313-.3.188-.582.4-.887.577-.564.326-1.142.638-1.709.961-.129.073-.241.173-.367.25-.269.163-.541.326-.815.476-.106.062-.222.108-.326.163-.336.2-.669.414-1.006.618a7,7,0,0,0-.695.413c-.189.147-.489.129-.589.4a.375.375,0,0,0-.1-.011.27.27,0,0,0-.126.039,3.316,3.316,0,0,1-.7.489,8.382,8.382,0,0,0-.815.47,3.46,3.46,0,0,0-.326.163c-.148.088-.289.191-.435.282-.183.113-.365.222-.551.326s-.409.235-.618.346c-.062.034-.163.028-.2.075-.292.347-.753.429-1.1.718a6.241,6.241,0,0,1-1.083.566c-.223.121-.427.277-.652.409-.082.049-.2.051-.259.116a.53.53,0,0,1-.426.175l-1.047-.217a5.31,5.31,0,0,1,1.037-.674c.236-.163.489-.3.749-.448.417-.245.838-.489,1.256-.731.21-.122.417-.25.63-.378l-.108-.13c.264-.07.525-.147.791-.209a11.906,11.906,0,0,0,1.711-.572,14.568,14.568,0,0,0,3.555-2.074,13.4,13.4,0,0,0,1.7-1.608c.021-.023.065-.028.1-.042s.1.029.132.011a7.826,7.826,0,0,1,1.544-.851c.015,0,.024-.026.039-.037.253-.173.5-.356.76-.517s.538-.3.806-.453c.5-.292,1-.589,1.5-.884l1.7-1,1.293-.76Z" transform="translate(-49.102 -108.297)"/><path class="a" d="M493.68,88.37V80h1.38v8.371Z" transform="translate(-413.168 -66.953)"/><path class="a" d="M100.642,159.992l-1.174,1.559c-.077-.02-.207-.077-.223-.052a1.286,1.286,0,0,1-.44.29c-.279.163-.546.362-.828.528-.393.235-.789.468-1.2.674-.207.1-.383.243-.577.36-.3.183-.616.341-.923.514-.222.124-.44.251-.652.378q-.871.5-1.737,1.011c-.462.272-.92.553-1.381.825-.579.341-1.161.677-1.74,1.018-.016.01-.016.051-.023.077l-1.567.271.3.016-1.132.1-.276-.049.111-.055c.163,0,.316.008.473,0a.584.584,0,0,0,.261-.067c.346-.209.68-.437,1.027-.643.711-.422,1.443-.815,2.12-1.28.326-.227.7-.39,1.052-.589q.995-.568,1.985-1.142c.37-.217.731-.452,1.1-.672.3-.183.613-.352.915-.537s.6-.388.912-.564c.367-.21.75-.393,1.119-.605.44-.253.874-.52,1.3-.786.272-.163.545-.334.806-.517A.393.393,0,0,1,100.642,159.992Z" transform="translate(-72.87 -133.877)"/><path class="a" d="M89.889,145.792c-.088.188-.176.375-.263.563-.028,0-.062-.013-.083,0-.479.259-.962.51-1.432.783-.365.212-.716.45-1.075.675-.173.109-.342.223-.522.326-.414.228-.838.439-1.246.675-.326.188-.626.409-.948.6a6.588,6.588,0,0,0-.644.349,2.046,2.046,0,0,1-.478.271.979.979,0,0,0-.178.122c-.086.06-.173.126-.263.181-.117.072-.238.134-.354.206-.258.163-.506.326-.77.478-.387.217-.815.382-1.173.63-.326.22-.674.4-.99.638a8.6,8.6,0,0,1-1.049.561c-.227.126-.435.28-.652.417-.129.08-.266.15-.395.228s-.207.142-.315.2c-.272.163-.548.308-.815.466-.4.235-.806.471-1.205.714-.359.217-.713.44-1.068.662l-.222.049a2.319,2.319,0,0,1-1-.113,2.374,2.374,0,0,0,.341-.016.23.23,0,0,0,.163-.051,1.28,1.28,0,0,1,.5-.385c.294-.147.566-.339.851-.506a.569.569,0,0,1,.176-.031l-.055.137c.1-.024.207-.08.2-.132-.013-.29.246-.285.4-.393.082-.055.174-.095.254-.153.173-.129.326-.326.577-.152.018.013.077-.034.126-.057-.253-.13,0-.163,0-.274l.135.179a.527.527,0,0,1,.326-.391,4.241,4.241,0,0,0,.711-.437.457.457,0,0,1,.351-.109.729.729,0,0,0,.5-.228.478.478,0,0,0,.163-.033,4.165,4.165,0,0,0,.55-.364c.259-.219.652-.215.843-.537.326-.021.522-.3.8-.429s.5-.326.76-.463a6.858,6.858,0,0,0,.979-.532c.313-.253.687-.38,1-.63a8.611,8.611,0,0,1,1.213-.7c.181-.1.377-.183.546-.3.326-.219.67-.393,1.006-.587.171-.1.326-.22.5-.326l.447-.209-.282-.047c.214-.2.548-.147.652-.44a1.341,1.341,0,0,0,.672-.4,1.638,1.638,0,0,1,.551-.248c.036-.013.086.015.13.023s.077.021.1.01.028-.057.036-.09c.02-.067.033-.194.057-.2.163-.013.31-.205.489-.059.018.013.072-.021.114-.034-.223-.134-.049-.176,0-.232Z" transform="translate(-60.886 -121.905)"/><path class="a" d="M139.67,117.445l.778-1.559c.129.135.233.059.351-.028.08-.059.126-.139.253-.163a2.335,2.335,0,0,0,.63-.338c.264-.163.519-.356.778-.532.018-.013.054,0,.077,0a3.515,3.515,0,0,0,.4-.163c.106-.059.189-.163.294-.217a1.358,1.358,0,0,0,.289-.13,1.7,1.7,0,0,1,.665-.421c.258-.072.387-.313.644-.393a3.169,3.169,0,0,0,.63-.4c.077-.046.222-.031.251-.09.093-.173.258-.205.4-.287a6.867,6.867,0,0,1,.683-.426.939.939,0,0,0,.55-.383v.375c-.021.163-.041.326-.06.489-.038.042-.111.095-.1.126.065.259-.124.326-.29.406-.064.033-.124.072-.186.109-.391.236-.781.478-1.177.708-.3.171-.608.315-.9.489-.352.21-.688.45-1.04.662s-.731.409-1.093.621c-.825.489-1.647.979-2.476,1.451A1.5,1.5,0,0,1,139.67,117.445Z" transform="translate(-116.892 -93.667)"/><path class="a" d="M68.806,149.869l-.556-.065c.034-.036.06-.085.1-.106.176-.088.416-.122.525-.263.228-.29.6-.349.856-.59.163-.147.426-.2.631-.347.326-.233.7-.406,1.052-.61a2.7,2.7,0,0,1,.453-.285A11.939,11.939,0,0,0,73,146.967a9.469,9.469,0,0,0,.979-.6c.135-.083.279-.148.411-.233.09-.057.163-.178.251-.2a1.678,1.678,0,0,0,.691-.367c.174-.134.411-.163.55-.359.028-.039.093-.054.14-.08.419-.227.856-.426,1.251-.69.284-.191.641-.276.856-.568.013-.018.054-.013.077-.024.245-.129.489-.266.731-.388.326-.163.61-.4.936-.564a7.635,7.635,0,0,0,.91-.535,8.809,8.809,0,0,1,.962-.559c.163-.09.308-.261.462-.311a8.26,8.26,0,0,0,1.068-.59c.362-.184.695-.452,1.058-.652a7.164,7.164,0,0,0,1.08-.623.7.7,0,0,1,.093-.06c.194-.1.39-.205.582-.311s.365-.205.548-.308c-.083.222-.163.442-.248.662a.186.186,0,0,0-.326.021c-.129.188-.334.22-.507.326-.078.044-.181.07-.23.137a.8.8,0,0,1-.447.259.753.753,0,0,0-.364.192,1.142,1.142,0,0,1-.47.3c-.039.018-.108.01-.126.038-.189.284-.541.326-.784.53a4.079,4.079,0,0,1-.615.326c-.139.08-.258.2-.4.276-.463.263-.936.51-1.4.778-.364.21-.711.448-1.071.662s-.74.419-1.112.626a1.253,1.253,0,0,0-.214.109,7.273,7.273,0,0,1-1.073.675c-.351.2-.716.377-1.068.574-.248.14-.489.3-.727.452s-.506.359-.771.514c-.406.235-.827.439-1.235.67s-.77.455-1.151.688c-.209.127-.4.28-.623.391-.15.077-.336.088-.4.285,0,.018-.047.024-.072.034a3.11,3.11,0,0,0-.876.447,5.1,5.1,0,0,1-.719.4c-.267.152-.53.315-.793.476C68.811,149.8,68.813,149.841,68.806,149.869Z" transform="translate(-57.119 -116.289)"/><path class="a" d="M151.381,89.666v-.113a1.844,1.844,0,0,1,.326-.113c.256-.041.326-.382.625-.367a.452.452,0,0,0,.292-.178.951.951,0,0,1,.391-.23c.049-.021.145-.008.153-.034.073-.214.284-.228.44-.326q.417-.245.843-.478a.729.729,0,0,0,.338-.241c.029-.052.117-.072.181-.1a1.648,1.648,0,0,0,.406-.184,1.558,1.558,0,0,1,.382-.263c.22-.1.409-.267.623-.387s.409-.173.612-.274q.065.519.129,1.04l-1.323.815c-.085.051-.163.1-.251.163-.25.148-.489.3-.752.444a3.242,3.242,0,0,0-.53.272,7.026,7.026,0,0,1-.894.554c-.326.207-.669.4-1.014.581s-.672.411-1.018.626c.042-.388.083-.742.116-1.1C151.457,89.743,151.407,89.7,151.381,89.666Z" transform="translate(-126.659 -72.293)"/><path class="a" d="M80.2,159.042c.356-.222.709-.445,1.068-.662.4-.243.8-.479,1.205-.714.272-.163.548-.308.815-.466.108-.062.207-.139.315-.2s.266-.148.395-.228c.22-.137.429-.292.652-.417a8.69,8.69,0,0,0,1.049-.561c.312-.235.665-.417.99-.638.365-.248.786-.413,1.173-.63.264-.147.512-.326.77-.478.116-.072.236-.134.354-.206.09-.055.176-.121.263-.181a.978.978,0,0,1,.178-.122,2.046,2.046,0,0,0,.478-.271,6.591,6.591,0,0,1,.644-.349c.326-.192.623-.414.948-.6.408-.236.832-.447,1.246-.675.179-.1.349-.212.522-.326.359-.225.709-.463,1.075-.675.47-.272.952-.524,1.432-.783.021-.011.055,0,.083,0l-.391.724a.24.24,0,0,0-.279,0c-.452.285-.912.556-1.373.825s-.928.523-1.386.794c-.351.209-.687.444-1.04.652-.395.23-.815.427-1.2.652-.5.292-.979.608-1.468.905-.612.369-1.228.727-1.84,1.094-.307.183-.605.378-.915.554-.514.292-1.037.566-1.549.861-.359.205-.7.439-1.057.652-.432.258-.864.514-1.3.755a3.736,3.736,0,0,1-1.494.69l-.018.021Z" transform="translate(-67.121 -125.411)"/><path class="a" d="M82.871,119.925l-1.411-.2a2,2,0,0,0,.163-.142c.02-.018.015-.073.034-.08.129-.047.261-.086.411-.134l-.194-.1c.113-.139.356.148.38-.163a.326.326,0,0,0,.413-.142l-.144-.1c.2-.059.339-.22.538-.108.026.015.086-.021.124-.046.122-.075.24-.163.364-.238l-.163-.145a.964.964,0,0,0,.243.011c.108-.026.3-.064.3-.111.013-.148.065-.111.163-.086.041.011.093-.024.181-.052L84.06,118l.013-.064.315.039-.038-.082c.1-.178.372-.067.522-.2l-.215-.093a1.657,1.657,0,0,0,.936-.68c.083.186.178.227.354.121.072-.042.2-.042.189-.194,0-.044.139-.15.179-.134.266.1.4-.127.607-.2l-.091-.217.279.083c.033-.163.034-.153.163-.179s.241-.07.383-.113l-.2-.144.432-.02-.179-.127.413.072-.07-.447.047-.054a3.508,3.508,0,0,1,.1.558c0,.276-.036.551-.055.825-.039-.013-.111-.042-.113-.039-.121.25-.387.276-.594.39-.148.083-.29.178-.439.263s-.281.163-.424.232a2.19,2.19,0,0,0-.7.377,1.238,1.238,0,0,1-.558.336c-.173.07-.044.147-.049.189-.254.1-.5.176-.737.289-.207.1-.39.245-.592.354a.992.992,0,0,0-.4.285c-.024.038-.095.041-.142.065C83.187,119.6,82.931,119.644,82.871,119.925Z" transform="translate(-68.175 -96.555)"/><path class="a" d="M151.34,103.629v-.375a.939.939,0,0,1-.55.383,6.315,6.315,0,0,0-.683.426c-.147.082-.312.114-.4.287-.029.059-.174.044-.251.09a3.171,3.171,0,0,1-.63.4c-.258.08-.387.326-.644.393a1.7,1.7,0,0,0-.665.421c-.073.067-.2.075-.289.13s-.188.163-.294.217a3.513,3.513,0,0,1-.4.163.2.2,0,0,1-.077,0c-.259.176-.514.362-.778.532a2.335,2.335,0,0,1-.63.338c-.127.033-.173.113-.253.163-.117.086-.222.163-.351.028l.444-1.169c.08.178.186.124.313.046.326-.207.674-.406,1.014-.6.15-.088.313-.163.463-.243q.8-.475,1.6-.959c.1-.062.194-.145.3-.2.409-.232.827-.45,1.235-.688.37-.215.726-.453,1.1-.669.281-.163.525-.336.434-.721a.56.56,0,0,1,0-.139l.064-.282a2.923,2.923,0,0,1,.047.39c0,.39-.026.78-.049,1.169C151.391,103.324,151.36,103.477,151.34,103.629Z" transform="translate(-120.884 -85.022)"/><path class="a" d="M157.252,80.3c-.2.093-.408.173-.6.281s-.4.284-.623.387a1.558,1.558,0,0,0-.382.263,1.649,1.649,0,0,1-.406.184c-.064.028-.152.047-.181.1a.729.729,0,0,1-.338.241q-.426.232-.843.478c-.163.091-.367.106-.44.326,0,.026-.1.013-.153.034a.951.951,0,0,0-.391.23A.452.452,0,0,1,152.6,83c-.3-.015-.369.326-.625.367a1.844,1.844,0,0,0-.326.113l.041-1.3.062-.47v1.283c.054-.145.026-.326.1-.426s.039-.142-.047-.243l.382.041-.038-.113.489-.163-.181-.114.78-.263-.114-.124a1.009,1.009,0,0,1,.171-.013.583.583,0,0,1,.134.044l-.018-.142c.15-.046.36-.046.419-.142.095-.15.29-.02.352-.179l-.188-.072c.326.024.478-.326.815-.264l-.176-.163c.2-.029.326-.205.522-.1.033.018.14-.039.163-.085.051-.109.1-.188.235-.163.013,0,.046-.047.044-.049-.1-.1-.021-.113.062-.132s.134-.077.188-.064a.4.4,0,0,0,.435-.175l-.127-.093a.245.245,0,0,1,.191-.018c.078.021.191.1.1-.082,0-.01,0-.042.018-.044.09-.023.21.041.253-.109,0-.011.135.033.184,0,.147-.072-.075-.114-.031-.129.217-.068.036-.2.057-.294h.051Z" transform="translate(-126.918 -66.208)"/><path class="a" d="M101.236,156.138a.393.393,0,0,0-.385.052c-.261.183-.533.349-.806.517-.434.266-.868.533-1.3.786-.369.212-.752.395-1.119.605-.31.176-.605.38-.912.564s-.612.354-.915.537c-.367.22-.727.455-1.1.672q-.988.579-1.985,1.142c-.351.2-.722.362-1.052.589-.685.471-1.417.858-2.12,1.28-.347.205-.682.434-1.027.643a.584.584,0,0,1-.261.067c-.163.011-.315,0-.473,0a1.048,1.048,0,0,1,.163-.163c.233-.147.475-.284.709-.429.085-.052.153-.153.241-.163.3-.052.489-.3.75-.4a2.327,2.327,0,0,0,.357-.173c.212-.129.416-.272.628-.4.08-.049.183-.065.259-.117a2.153,2.153,0,0,1,.408-.3.876.876,0,0,0,.326-.181,1.76,1.76,0,0,1,.3-.2c.271-.163.546-.312.815-.466.039-.021.08-.039.119-.059.179-.091.414-.142.522-.287s.236.016.272-.08c.078-.214.29-.219.439-.326a3.019,3.019,0,0,1,.418-.3c.2-.09.422-.13.553-.336a.163.163,0,0,1,.086-.06,1.924,1.924,0,0,0,.475-.259c.395-.279.83-.5,1.248-.747a5.057,5.057,0,0,1,.431-.276c.171-.082.373-.091.489-.274.028-.042.116-.044.176-.065a.407.407,0,0,0,.144-.057,6.187,6.187,0,0,1,.752-.479c.24-.184.548-.3.815-.489.383-.277.815-.489,1.22-.736.08-.046.163-.08.248-.126.163-.091.326-.188.489-.277a.3.3,0,0,1,.064.046Z" transform="translate(-73.464 -130.023)"/><path class="a" d="M133.11,128.206q.251-.38.507-.757c.055-.082.114-.163.171-.238a.622.622,0,0,0,.207-.052c.311-.217.652-.383.967-.6.382-.259.8-.46,1.212-.682.077-.042.192-.038.245-.1a2.655,2.655,0,0,1,.68-.444c.152-.091.287-.212.445-.292.186-.1.4-.145.524-.336.021-.033.077-.044.116-.062.2-.088.45-.124.574-.271.246-.294.644-.3.9-.553.114-.113.308-.139.453-.227.171-.1.326-.225.489-.339a2.448,2.448,0,0,1,.31-.214c.2-.095.408-.163.628-.256l.082.188-.152.628c-.073-.016-.163-.065-.217-.041a5.525,5.525,0,0,0-.592.31c-.31.179-.612.373-.92.554-.352.209-.713.4-1.063.613-.421.253-.83.524-1.252.773-.616.362-1.241.709-1.861,1.067a1.577,1.577,0,0,1-.292.188c-.326.1-.532.375-.848.489-.215.077-.346.326-.6.359-.075.01-.14.083-.212.124-.134.078-.267.163-.406.227C133.19,128.276,133.143,128.227,133.11,128.206Z" transform="translate(-111.402 -102.765)"/><path class="a" d="M20.008,115.192c-.044.367-.086.736-.129,1.1a4.6,4.6,0,0,0-.537.326c-.354.292-.815.38-1.171.7a4.605,4.605,0,0,1-.858.47c-.356.205-.7.431-1.055.643-.3.183-.613.352-.915.537s-.569.364-.855.546H12.93v-.055a2.242,2.242,0,0,0,.747-.4c.373-.227.755-.44,1.142-.652.489-.274.979-.54,1.455-.815.357-.207.7-.431,1.058-.643.282-.163.569-.326.853-.5.473-.282.938-.576,1.419-.842.23-.127.4-.259.351-.545H20Z" transform="translate(-10.821 -96.304)"/><path class="a" d="M103.42,175.015c0-.026,0-.067.023-.077.579-.341,1.161-.677,1.74-1.018.462-.272.92-.553,1.381-.825q.866-.509,1.737-1.011l.652-.378c.307-.173.621-.326.923-.514.194-.117.37-.258.577-.36.409-.205.806-.439,1.2-.674.282-.163.55-.359.828-.528a1.286,1.286,0,0,0,.44-.29c.016-.024.147.033.223.052l-.638.693c-.163.176-.315.356-.478.527a1.741,1.741,0,0,1-.209.163c-.024-.144-.127-.13-.207-.077-.3.209-.641.367-.934.577a9.04,9.04,0,0,0-.835.514,4.6,4.6,0,0,1-.869.5c-.292.165-.592.357-.9.5-.217.1-.326.326-.589.387-.15.031-.276.188-.413.284a.489.489,0,0,1-.1.042,1.883,1.883,0,0,0-.62.3c-.254.272-.636.292-.887.54-.121.122-.377.1-.375.351l-1.4.365Z" transform="translate(-86.554 -141.717)"/><path class="a" d="M150.413,71.9c-.055-.316-.109-.631-.163-.948l.1-.055c.026.129.054.256.08.372.326-.173.634-.326.926-.489.338-.2.652-.421.993-.623.434-.259.876-.507,1.313-.763.409-.24.827-.471,1.221-.732a.535.535,0,0,1,.432-.106l.217.652c-.02.049-.026.119-.064.145a5.672,5.672,0,0,1-.525.352c-.522.3-1.055.577-1.572.881s-1.055.652-1.588.979c-.272.163-.561.3-.835.46a5.219,5.219,0,0,0-.432.308,2.016,2.016,0,0,0,0-.3C150.506,71.981,150.449,71.94,150.413,71.9Z" transform="translate(-125.746 -57.364)"/><path class="a" d="M68.569,67.964a2.686,2.686,0,0,1,.279-1.231c.031.016.075.054.088.044.24-.163.466-.326.714-.473a6.488,6.488,0,0,0,1.06-.564c.254-.215.652-.191.806-.545,0-.015.055,0,.078-.02a5.007,5.007,0,0,0,.789-.435.749.749,0,0,1,.67-.235,1.665,1.665,0,0,0,.468,0,.689.689,0,0,0,.173-.055l.558.06c.073.144-.041.2-.13.254-.326.207-.665.414-1,.612-.727.435-1.466.85-2.2,1.274-.452.263-.9.532-1.349.8-.122.073-.235.163-.362.232C69,67.788,68.782,67.875,68.569,67.964Z" transform="translate(-57.386 -53.939)"/><path class="a" d="M90.11,126.855c.06-.281.316-.326.522-.426.047-.024.117-.028.142-.065a.992.992,0,0,1,.4-.285c.2-.109.385-.254.592-.354.233-.113.489-.191.737-.289,0-.042-.124-.119.049-.189a1.238,1.238,0,0,0,.558-.336,2.244,2.244,0,0,1,.7-.377c.144-.073.284-.152.424-.232s.29-.179.439-.263c.207-.114.473-.14.594-.39l.113.039a3.177,3.177,0,0,1-.881,1.794c-.1-.067-.209-.2-.326-.039a.643.643,0,0,1-.38.259c-.259.059-.364.351-.628.414a1.24,1.24,0,0,0-.3.174l-.256.152.23.091A6.444,6.444,0,0,1,90.11,126.855Z" transform="translate(-75.414 -103.484)"/><path class="a" d="M71.66,152.837c0-.028,0-.068.021-.078.263-.163.525-.326.793-.476a5.1,5.1,0,0,0,.719-.4,3.11,3.11,0,0,1,.876-.447c.024-.01.065-.016.072-.034.062-.2.248-.209.4-.285.219-.111.414-.264.623-.391.382-.233.762-.468,1.151-.688s.828-.435,1.235-.67c.266-.155.512-.346.771-.514s.479-.311.727-.452c.352-.2.718-.372,1.068-.574a7.275,7.275,0,0,0,1.073-.675,1.253,1.253,0,0,1,.214-.109c.372-.207.745-.409,1.112-.626s.708-.452,1.071-.662c.462-.267.934-.515,1.4-.778.139-.08.258-.2.4-.276a3.8,3.8,0,0,0,.615-.326c.243-.209.6-.246.784-.53.018-.028.086-.02.126-.038a1.142,1.142,0,0,0,.47-.3.753.753,0,0,1,.364-.192.8.8,0,0,0,.45-.25c.049-.067.152-.093.23-.137.173-.1.378-.13.507-.326a.186.186,0,0,1,.326-.021l-.264.561L88.732,143c-.051.055-.225.1,0,.232-.042.013-.1.047-.114.034-.184-.147-.326.046-.489.059-.024,0-.038.129-.057.2-.008.033-.015.08-.036.09a.2.2,0,0,1-.1-.01c-.036-.01-.095-.036-.13-.023a1.637,1.637,0,0,0-.551.248,1.341,1.341,0,0,1-.672.4c-.1.294-.434.245-.652.44l.282.047-.447.209c-.073,0-.163-.034-.215,0-.289.147-.571.31-.856.463a1.572,1.572,0,0,0-.326.163.978.978,0,0,1-.409.254,1.132,1.132,0,0,0-.294.194.547.547,0,0,1-.129.088,2.284,2.284,0,0,0-.543.263c-.535.356-1.089.68-1.631,1.018-.083.051-.163.121-.241.163a8.129,8.129,0,0,0-.815.4,4.629,4.629,0,0,0-1.014.669.1.1,0,0,1-.042.034,1.44,1.44,0,0,0-.722.393,1.142,1.142,0,0,1-.21.117c-.091.051-.186.1-.277.15s-.15.086-.222.135c-.163.108-.408.116-.409.385a.729.729,0,0,1-.5.228.457.457,0,0,0-.351.109,4.239,4.239,0,0,1-.711.437.527.527,0,0,0-.326.391l-.135-.179c-.01.113-.258.144,0,.274-.049.023-.108.07-.126.057-.258-.183-.4.023-.577.152-.08.059-.173.1-.254.153-.153.108-.413.1-.4.393,0,.052-.1.108-.2.132l.055-.137a.569.569,0,0,0-.176.031c-.285.163-.558.359-.851.506a1.28,1.28,0,0,0-.5.385c-.026.037-.1.044-.163.051-.113.01-.227.011-.341.016Z" transform="translate(-59.973 -119.258)"/><path class="a" d="M84.01,137.6c-.183.1-.364.209-.548.308l-.582.311a.7.7,0,0,0-.093.06,7.165,7.165,0,0,1-1.08.623c-.364.2-.691.458-1.058.652a7.493,7.493,0,0,1-1.068.59c-.153.051-.292.222-.462.311a8.808,8.808,0,0,0-.962.559,7.634,7.634,0,0,1-.91.535c-.326.163-.608.4-.936.564-.246.122-.489.259-.731.388-.023.011-.064,0-.077.024-.215.292-.572.377-.856.568-.395.264-.832.463-1.251.69-.047.026-.113.041-.14.08-.139.191-.375.225-.55.359a1.678,1.678,0,0,1-.691.367c-.093.018-.163.139-.251.2-.132.085-.276.15-.411.233a9.468,9.468,0,0,1-.979.6c-.395.181-.709.489-1.127.634a2.706,2.706,0,0,0-.453.287c-.351.2-.722.377-1.052.61-.205.147-.471.2-.631.347-.261.241-.628.3-.856.59-.109.14-.349.174-.525.263-.042.021-.068.07-.1.106l-.517-.1a.53.53,0,0,0,.426-.174c.055-.065.178-.067.259-.116.217-.132.421-.289.652-.409a6.24,6.24,0,0,0,1.083-.566c.342-.289.8-.37,1.1-.718.039-.047.135-.041.2-.075.209-.111.414-.227.618-.346s.369-.215.551-.326c.147-.091.287-.194.435-.282a3.454,3.454,0,0,1,.326-.163c.285-.132.509-.36.815-.47a3.257,3.257,0,0,0,.7-.489.271.271,0,0,1,.126-.039c.034,0,.1.018.1.011.1-.271.4-.253.589-.4a6.994,6.994,0,0,1,.693-.413c.338-.2.67-.414,1.006-.618.1-.062.22-.108.326-.163.271-.163.543-.313.815-.476.126-.077.238-.176.367-.25.568-.326,1.142-.631,1.709-.961.3-.178.589-.39.887-.577.179-.113.372-.209.558-.313.3-.173.61-.347.918-.519.085-.049.174-.09.263-.134.3-.15.559-.378.882-.515a7.475,7.475,0,0,0,1.014-.652c.342-.217.711-.414,1.07-.615.163-.093.342-.174.515-.261Z" transform="translate(-54.491 -114.933)"/><path class="a" d="M153.6,103.45a.562.562,0,0,0,0,.139c.091.385-.153.556-.434.721-.37.215-.726.453-1.1.669-.408.238-.825.457-1.235.688-.1.059-.2.142-.3.2q-.8.489-1.6.959c-.15.088-.313.163-.463.243-.341.2-.68.395-1.014.6-.127.078-.233.132-.313-.046.091-.279.184-.558.276-.837l.02.233c.145-.075.3-.14.435-.223.489-.287.957-.582,1.438-.871q.652-.387,1.295-.762c.3-.163.6-.326.892-.506.509-.3,1.009-.616,1.518-.918C153.212,103.636,153.411,103.548,153.6,103.45Z" transform="translate(-123.152 -86.579)"/><path class="a" d="M132.7,31.5l-.413-.55c.031-.02.078-.033.09-.06a.489.489,0,0,1,.378-.308c.147-.036.264-.2.4-.3a.815.815,0,0,1,.135-.068,1.683,1.683,0,0,0,.468-.236,1.272,1.272,0,0,1,.44-.271,2.9,2.9,0,0,0,.753-.373,3.056,3.056,0,0,1,.7-.422,1.158,1.158,0,0,0,.4-.326l.452.45c.041.093.08.184.132.3-.589.347-1.177.7-1.769,1.044-.564.326-1.142.636-1.693.988A.61.61,0,0,1,132.7,31.5Z" transform="translate(-110.715 -23.927)"/><path class="a" d="M68.562,68.291c.214-.1.431-.183.639-.289.127-.064.24-.163.362-.232.448-.269.9-.538,1.349-.8.732-.424,1.468-.838,2.2-1.264.339-.2.672-.4,1-.612.09-.055.2-.111.13-.254.192.034.387.06.577.1.126.029.246.08.369.121-.145.082-.326.121-.408.29-.011.023-.062.031-.1.039a.842.842,0,0,0-.533.3.326.326,0,0,1-.132.086c-.246.119-.489.223-.734.357-.181.1-.326.285-.512.347a1.037,1.037,0,0,0-.524.326l.652-.033v.1c-.246.023-.489.028-.739.072a1.807,1.807,0,0,0-.881.489c-.2-.09-.326.047-.45.163a1.559,1.559,0,0,1-.256.191c-.163.1-.378.1-.489.3a.212.212,0,0,1-.1.085c-.2.09-.427.13-.545.347-.008.015-.026.034-.041.034-.326.029-.553.289-.842.406Z" transform="translate(-57.379 -54.265)"/><path class="a" d="M155.028,100.3c-.194.1-.393.186-.579.3-.509.3-1.01.616-1.518.918-.294.174-.6.326-.892.506q-.652.377-1.295.762c-.489.289-.957.584-1.438.871-.14.083-.29.148-.435.223l-.02-.233c.049-.225.1-.452.145-.677.091.059.147.163.3.065.395-.266.806-.506,1.215-.749.447-.267.9-.527,1.349-.788s.89-.519,1.334-.781c.478-.281.949-.569,1.43-.843a3.424,3.424,0,0,1,.447-.183c0,.111.01.22.016.326Z" transform="translate(-124.575 -83.432)"/><path class="a" d="M22.49,125.833c.285-.183.566-.37.855-.546s.612-.354.915-.537c.354-.212.7-.437,1.055-.643a4.605,4.605,0,0,0,.858-.47c.349-.326.815-.409,1.171-.7a4.6,4.6,0,0,1,.537-.326,3.8,3.8,0,0,1-.54,1.345c-.055-.1-.108-.163-.233-.065a4.6,4.6,0,0,1-.5.326q-.775.45-1.553.9c-.215.122-.44.23-.652.364-.163.1-.311.238-.466.359l-.163.054a1.586,1.586,0,0,0-.261-.044C23.168,125.829,22.829,125.833,22.49,125.833Z" transform="translate(-18.822 -102.614)"/><path class="a" d="M145,51.781c-.093-.24-.186-.489-.281-.721l.047-.068c.046.1.091.1.189.039.316-.205.643-.395.967-.589.489-.3.979-.59,1.468-.881s1.011-.582,1.513-.879a1.22,1.22,0,0,0,.2-.183c.117.2.233.4.351.6-.037.077-.057.188-.117.222-.307.173-.625.326-.934.489a1.261,1.261,0,0,0-.212.173c-.047.041-.086.111-.14.124a7.782,7.782,0,0,0-1.3.713,11,11,0,0,0-.99.6c-.09.054-.259.047-.289.116C145.372,51.745,145.173,51.727,145,51.781Z" transform="translate(-121.118 -40.59)"/><path class="a" d="M146.44,54.819c.173-.054.372-.036.47-.256.029-.068.2-.062.289-.116a11,11,0,0,1,.99-.6,8.256,8.256,0,0,1,1.3-.713c.054-.013.093-.083.14-.124a1.262,1.262,0,0,1,.212-.173c.31-.163.628-.313.934-.489.06-.034.08-.145.117-.222l.375.683a1.412,1.412,0,0,1-.2.163c-.236.129-.489.235-.716.373-.326.2-.634.422-.959.623s-.641.369-.961.554c-.537.313-1.068.63-1.6.938-.044.026-.109.011-.163.015Z" transform="translate(-122.558 -43.628)"/><path class="a" d="M142.892,37.23l.568.721a1.618,1.618,0,0,1-.445.238c-.186.034-.276.189-.439.256a6.129,6.129,0,0,0-.732.448,11.089,11.089,0,0,0-.979.582,11.16,11.16,0,0,1-1.171.67c-.3.163-.3.163-.522.1l-.282-.489.908-.605c-.064-.124-.023-.181.163-.207a1.942,1.942,0,0,0,.553-.163c.186-.088.347-.225.528-.326a3.7,3.7,0,0,0,.7-.364,3.689,3.689,0,0,1,.695-.431A1.412,1.412,0,0,0,142.892,37.23Z" transform="translate(-116.239 -31.158)"/><path class="a" d="M79.7.37c.3.031.6.049.9.1.409.065.815.152,1.223.23l-.077.038.072.021c-.517.3-1.036.607-1.551.913-.413.248-.815.5-1.233.75L77.14,1.973l.313-.033a.6.6,0,0,0,.222-.036c.375-.214.737-.452,1.116-.652A7.9,7.9,0,0,1,79.942.589c.028-.01.042-.054.085-.113-.122,0-.214,0-.3,0C79.712.473,79.707.406,79.7.37Z" transform="translate(-64.56 -0.31)"/><path class="a" d="M129.428,132.155c.033.023.08.072.1.064.139-.07.272-.148.406-.227.072-.041.137-.114.212-.124.256-.038.387-.282.6-.359.316-.116.527-.393.848-.489a1.578,1.578,0,0,0,.292-.188c.62-.357,1.244-.7,1.861-1.067.422-.25.832-.52,1.253-.773.351-.21.711-.4,1.063-.613.308-.181.61-.375.92-.554a5.521,5.521,0,0,1,.592-.31c.055-.024.144.024.217.041l-.064.261-1.249.737-1.293.76-1.7,1c-.5.3-.995.592-1.5.884-.267.155-.545.292-.806.453s-.507.344-.76.517c-.015.011-.024.033-.039.038a7.429,7.429,0,0,0-1.544.851c-.033.018-.088,0-.132-.011.114-.163.222-.326.344-.47S129.3,132.294,129.428,132.155Z" transform="translate(-107.719 -106.714)"/><path class="a" d="M150.41,94.947c.026.034.077.07.073.1-.033.354-.073.708-.116,1.1.346-.215.67-.444,1.018-.626s.688-.373,1.014-.581a7.627,7.627,0,0,0,.894-.554,3.242,3.242,0,0,1,.53-.272c.254-.142.5-.3.752-.444.085-.051.163-.1.251-.163l1.323-.815c.018.228.034.457.052.685a1.3,1.3,0,0,0-.3.083c-.2.106-.388.236-.584.351-.163.091-.365.113-.439.326,0,.015-.051.013-.075.024a1.73,1.73,0,0,0-.771.432c-.029.038-.091.049-.14.068-.145.064-.326.088-.426.2a.753.753,0,0,1-.455.246c-.044.01-.116.015-.124.041-.124.326-.51.276-.726.5a3.431,3.431,0,0,1-.786.448c-.259.157-.53.373-.815.52-.117.06-.2.233-.377.163q.055-.468.114-.934T150.41,94.947Z" transform="translate(-125.688 -77.574)"/><path class="a" d="M105.066,9.381l-.946-.554a2.963,2.963,0,0,1,.282-.212c.274-.163.553-.316.828-.478.359-.21.718-.424,1.075-.636l.85-.5-.351-.163.044-.064,1.4.607c-.375.219-.752.435-1.125.652-.417.246-.845.479-1.248.75C105.6,8.975,105.242,9.058,105.066,9.381Z" transform="translate(-87.14 -5.666)"/><path class="a" d="M147.82,59.036a.333.333,0,0,0,.163-.015c.537-.308,1.068-.625,1.6-.938.326-.186.652-.362.961-.554s.633-.426.959-.623c.23-.139.479-.245.716-.373a1.411,1.411,0,0,0,.2-.163l.276.558c-.026.047-.041.116-.08.139a4.98,4.98,0,0,1-.652.388c-.308.116-.561.316-.853.448a1.908,1.908,0,0,0-.287.13c-.116.075-.205.209-.326.25-.163.055-.315.091-.377.274,0,.018-.046.024-.072.036l-.535.243c-.248.116-.426.359-.721.4a.341.341,0,0,0-.189.142.452.452,0,0,1-.682.113Z" transform="translate(-123.713 -47.177)"/><path class="a" d="M97.061,154.337c-.021-.016-.054-.051-.064-.046-.163.09-.326.186-.489.277-.08.046-.163.08-.248.126-.409.241-.837.458-1.22.736-.261.188-.564.3-.815.489a5.569,5.569,0,0,0-.752.479.408.408,0,0,1-.144.057c-.06.021-.148.023-.176.065-.121.183-.326.192-.489.274a5.051,5.051,0,0,0-.431.276c-.417.248-.853.468-1.248.747a1.924,1.924,0,0,1-.475.259.163.163,0,0,0-.086.06c-.13.205-.351.246-.553.336a3.019,3.019,0,0,0-.431.3c-.148.1-.36.108-.439.326-.036.1-.163-.064-.272.08s-.342.2-.522.287c-.039.02-.08.038-.119.059-.272.155-.548.308-.815.466a1.759,1.759,0,0,0-.3.2.876.876,0,0,1-.326.181,2.153,2.153,0,0,0-.408.3c-.077.052-.179.069-.259.117-.212.129-.416.272-.628.4a2.329,2.329,0,0,1-.357.173c-.264.1-.452.347-.75.4-.088.015-.163.116-.241.163-.235.145-.476.282-.709.429a1.049,1.049,0,0,0-.163.163l-.111.055H82.25s.011-.02.018-.021a3.612,3.612,0,0,0,1.494-.69c.442-.241.874-.5,1.3-.755.356-.212.7-.445,1.057-.652.512-.3,1.036-.569,1.549-.861.31-.176.608-.372.915-.555.612-.367,1.228-.726,1.84-1.094.489-.3.979-.613,1.468-.905.395-.23.815-.427,1.2-.652.354-.205.69-.44,1.04-.652.458-.271.926-.525,1.386-.794s.921-.54,1.373-.825a.24.24,0,0,1,.279,0Z" transform="translate(-68.836 -128.948)"/><path class="a" d="M155.76,65.7a.535.535,0,0,0-.432.106c-.395.261-.815.489-1.221.732-.437.256-.879.5-1.313.763-.326.2-.652.426-.993.623-.292.163-.6.316-.926.489-.026-.116-.054-.243-.08-.372a1.318,1.318,0,0,1-.016-.243c.342-.085.559-.373.856-.524.062-.033.148-.023.205-.06a9.785,9.785,0,0,1,1.006-.618c.163-.083.289-.235.45-.326.3-.163.674-.2.9-.507.434-.1.719-.466,1.13-.612a.186.186,0,0,1,.212.041Z" transform="translate(-126.188 -54.514)"/><path class="a" d="M145.115,118.222l-.082-.188c-.22.088-.429.163-.628.256a2.448,2.448,0,0,0-.31.214c-.163.114-.326.238-.489.339-.145.088-.339.114-.453.227-.259.256-.652.259-.9.553-.124.147-.378.183-.574.271-.039.018-.095.029-.116.062-.127.191-.338.24-.523.336-.163.08-.294.2-.445.292a2.683,2.683,0,0,0-.68.444c-.052.059-.163.054-.245.1-.408.222-.83.422-1.212.682-.315.215-.652.382-.967.6a.623.623,0,0,1-.207.052l.391-.667a1.5,1.5,0,0,0,.349-.106c.828-.479,1.65-.969,2.476-1.451.362-.212.734-.4,1.093-.621s.688-.452,1.04-.662c.294-.175.605-.318.9-.489.4-.23.786-.471,1.177-.708.062-.038.122-.077.186-.109.163-.085.356-.147.29-.406,0-.031.067-.083.1-.126Z" transform="translate(-114.892 -98.011)"/><path class="a" d="M131.174,23.19l.781.67c-.2.1-.411.189-.605.3-.25.147-.489.326-.732.47-.4.235-.8.463-1.208.682a7.049,7.049,0,0,1-1.3.727l-.445-.5c.186-.122.365-.253.556-.365.75-.44,1.505-.876,2.259-1.3.264-.153.532-.3.771-.437Z" transform="translate(-106.84 -19.408)"/><path class="a" d="M61.917.163C62.541.111,63.164.042,63.789,0a6.1,6.1,0,0,1,.788.047h.346a5.382,5.382,0,0,1-.615.442c-.271.137-.514.326-.793.447a3.118,3.118,0,0,0-.687.417.739.739,0,0,1-.422.139c-.274,0-.548-.028-.824-.046H60.55L62.654.2l-.01-.034-.616.062Z" transform="translate(-50.675 0)"/><path class="a" d="M157.47,76.465h-.051a4.086,4.086,0,0,0-.512.3c-.274.212-.605.326-.877.543a4.625,4.625,0,0,1-.859.452,1.554,1.554,0,0,0-.447.246,2.406,2.406,0,0,1-.533.346c-.256.163-.537.3-.8.452-.351.209-.7.429-1.045.641a.36.36,0,0,1-.106.026v-.445c0-.044,0-.119.026-.127a2.471,2.471,0,0,0,.682-.419,3.956,3.956,0,0,1,.625-.369c.3-.163.61-.336.908-.514.4-.24.794-.5,1.2-.732a3.86,3.86,0,0,0,.631-.38,3.588,3.588,0,0,1,.572-.3,4.276,4.276,0,0,0,.373-.256c.113.135.016.351.212.422Z" transform="translate(-127.412 -63.547)"/><path class="a" d="M109.92,12.553c.176-.326.533-.406.815-.59.4-.271.83-.5,1.248-.75.373-.22.75-.437,1.125-.652l.444.225c0,.034,0,.082.02.1a1.878,1.878,0,0,0,.189.122,2.853,2.853,0,0,1-.316.261c-.378.22-.763.427-1.142.643a2.707,2.707,0,0,1-.385.243,11.269,11.269,0,0,0-1.38.815Z" transform="translate(-91.994 -8.838)"/><path class="a" d="M92.829,2.429l-.072-.021.077-.038,1.468.382c-.075.01,0,.093-.1.144-.465.241-.9.537-1.347.815a1.556,1.556,0,0,1-.4.256,3.093,3.093,0,0,0-1.06.62L90.3,4.166a1.142,1.142,0,0,0,.718-.365.326.326,0,0,1,.1-.083c.2-.1.4-.184.6-.294.219-.126.416-.284.636-.4s.453-.209.677-.326a1.3,1.3,0,0,0,.209-.183Z" transform="translate(-75.573 -1.983)"/><path class="a" d="M149.778,100.391c.176.067.259-.106.377-.163.285-.147.54-.354.815-.52a3.769,3.769,0,0,0,.786-.448c.2-.207.6-.163.726-.5.008-.026.08-.031.124-.041a.753.753,0,0,0,.455-.246c.093-.108.281-.132.426-.2.049-.02.111-.031.14-.068a1.656,1.656,0,0,1,.771-.432c.024-.011.07-.01.075-.024.073-.209.281-.23.439-.326.2-.114.383-.245.584-.351a1.3,1.3,0,0,1,.3-.075c0,.148-.01.3-.013.445a3.426,3.426,0,0,0-.45.183c-.481.274-.952.563-1.43.843-.444.263-.889.52-1.334.781s-.9.52-1.355.781c-.409.243-.815.489-1.215.749-.163.106-.21,0-.3-.065C149.731,100.607,149.749,100.5,149.778,100.391Z" transform="translate(-125.286 -81.181)"/><path class="a" d="M19.089,65.567a2.584,2.584,0,0,1,1.285.326c-.127.068-.258.13-.378.207-.38.24-.75.489-1.142.729-.269.163-.561.281-.833.437a3.482,3.482,0,0,0-.385.3h-1.28l-.126-.086,3.1-1.82-.24-.042Z" transform="translate(-13.583 -54.871)"/><path class="a" d="M140.62,43.963c.227.072.227.068.522-.1a11.159,11.159,0,0,0,1.171-.665,11.093,11.093,0,0,1,.979-.577,6.132,6.132,0,0,1,.726-.448c.163-.067.253-.222.439-.256a1.618,1.618,0,0,0,.445-.238l.289.378c-.134.093-.261.194-.4.281s-.334.188-.5.285c-.36.212-.718.431-1.078.652-.393.232-.786.462-1.182.69-.36.209-.722.414-1.085.623Z" transform="translate(-117.687 -34.883)"/><path class="a" d="M148.53,62.319a.452.452,0,0,0,.682-.113.341.341,0,0,1,.189-.142c.3-.038.473-.281.721-.4.178-.083.357-.163.535-.243.026-.011.065-.018.072-.036.062-.183.214-.219.377-.274.122-.041.212-.174.326-.25a1.906,1.906,0,0,1,.287-.13c.292-.132.545-.326.853-.448a4.984,4.984,0,0,0,.652-.388c.039-.023.054-.091.08-.139.057.13.116.259.173.39a1.357,1.357,0,0,1-.181.181,5.544,5.544,0,0,1-.6.377c-.54.276-1.034.626-1.569.912s-1.057.652-1.585.979a3.609,3.609,0,0,0-.478.276.311.311,0,0,1-.369.067Z" transform="translate(-124.307 -50.014)"/><path class="a" d="M156.645,73.549c-.2-.072-.1-.287-.212-.422a4.274,4.274,0,0,1-.378.256,3.514,3.514,0,0,0-.572.3,3.861,3.861,0,0,1-.631.38c-.4.235-.8.489-1.2.732-.3.178-.607.342-.908.514a3.956,3.956,0,0,0-.625.369,2.471,2.471,0,0,1-.682.419c-.021.008-.018.083-.026.127l-.062.47-.1-1.416c.036.044.093.085.1.132a2.016,2.016,0,0,1,0,.3,5.217,5.217,0,0,1,.432-.308c.274-.163.563-.3.835-.46.533-.326,1.054-.652,1.588-.979s1.05-.584,1.572-.881a5.667,5.667,0,0,0,.525-.352c.038-.026.044-.1.064-.145C156.464,72.908,156.554,73.229,156.645,73.549Z" transform="translate(-126.583 -60.743)"/><path class="a" d="M126.077,19.49l.507.382a1.4,1.4,0,0,1-.2.179c-.318.186-.644.36-.964.543s-.59.347-.884.525c-.219.132-.432.277-.652.406-.3.178-.613.346-.92.519l-.452-.44a3.317,3.317,0,0,0,.677-.364c.245-.215.546-.326.8-.512a12.609,12.609,0,0,1,1.151-.695c.109-.065.209-.148.326-.21C125.661,19.707,125.871,19.6,126.077,19.49Z" transform="translate(-102.53 -16.311)"/><path class="a" d="M148.355,46.45a1.22,1.22,0,0,1-.2.183c-.5.3-1.01.584-1.513.879s-.979.585-1.468.881c-.326.194-.652.383-.967.589-.1.064-.144.057-.189-.039l-.047.068-.153-.339a1.037,1.037,0,0,1,.184-.163,2.6,2.6,0,0,0,.678-.357,1.487,1.487,0,0,1,.5-.326,1.234,1.234,0,0,0,.308-.163,3.111,3.111,0,0,1,.413-.254c.163-.093.382-.09.489-.289a.323.323,0,0,1,.163-.1c.119-.055.3-.072.354-.163a.678.678,0,0,1,.357-.272.788.788,0,0,0,.4-.285c.016-.026.059-.038.09-.054l.336-.192Z" transform="translate(-120.365 -38.54)"/><path class="a" d="M75.16,64.51a.688.688,0,0,1-.173.055,1.665,1.665,0,0,1-.468,0,.749.749,0,0,0-.664.232,4.426,4.426,0,0,1-.789.435c-.023.015-.072,0-.078.02-.147.354-.551.326-.806.545a6.488,6.488,0,0,1-1.06.564c-.248.14-.475.326-.714.473-.013.01-.057-.028-.088-.044a2.924,2.924,0,0,1,.979-1.341,4.206,4.206,0,0,1,1.866-.843A13.672,13.672,0,0,1,75.16,64.51Z" transform="translate(-58.852 -53.989)"/><path class="a" d="M84.745,96.93l1.112.175c-.01.036-.01.088-.033.1-.3.188-.6.375-.91.554q-.5.3-1.014.576c-.31.163-.625.326-.938.489l-.277.049-.558-.163c-.073-.144.038-.2.129-.251.183-.113.37-.217.556-.326.418-.243.84-.478,1.251-.732C84.3,97.268,84.518,97.09,84.745,96.93Z" transform="translate(-68.714 -81.122)"/><path class="a" d="M134.82,33.838a.61.61,0,0,0,.468-.124c.55-.352,1.129-.652,1.693-.988.592-.346,1.181-.7,1.769-1.044-.052-.117-.091-.209-.132-.3l.664.716c-.163,0-.346-.039-.414.186,0,.023-.059.033-.09.047a1.742,1.742,0,0,0-.775.429c-.029.038-.091.049-.137.073-.174.09-.352.173-.523.269-.119.068-.227.163-.342.23-.088.057-.183.1-.271.163a2.078,2.078,0,0,1-.184.122c-.212.108-.432.2-.643.316s-.4.233-.61.356l-.033.222Z" transform="translate(-112.833 -26.262)"/><path class="a" d="M137.52,38.157l.033-.222c.207-.122.4-.246.61-.356s.431-.209.643-.316c.065-.034.121-.085.184-.122s.183-.1.271-.163c.116-.075.223-.163.342-.23.171-.1.349-.179.524-.269.046-.024.108-.036.137-.073a1.742,1.742,0,0,1,.775-.429c.031-.015.083-.024.09-.047.068-.225.25-.183.414-.186l.2.238a1.412,1.412,0,0,1-.457.426,3.689,3.689,0,0,0-.695.431,4.117,4.117,0,0,1-.7.364c-.181.1-.342.236-.528.326a1.942,1.942,0,0,1-.553.163c-.183.026-.223.083-.163.207l-.908.59Z" transform="translate(-115.092 -29.913)"/><path class="a" d="M32.863,69.33l.734.582c-.064.207-.284.233-.424.342a6.581,6.581,0,0,1-.83.458c-.3.163-.6.344-.892.517l-.89-.39.163-.02-.139-.108c.3-.163.6-.307.877-.489a8.481,8.481,0,0,1,1.3-.75C32.8,69.46,32.827,69.382,32.863,69.33Z" transform="translate(-25.576 -58.023)"/><path class="a" d="M69.453,126.64l.605.284a1.319,1.319,0,0,0,.228.163,2.05,2.05,0,0,0,.307.082c-.024.042-.029.065-.042.073-.537.326-1.076.638-1.606.965-.2.122-.377.274-.564.413l-.83-.572a2.875,2.875,0,0,1,.336-.279c.543-.326,1.093-.652,1.631-.956Z" transform="translate(-56.534 -105.987)"/><path class="a" d="M42.4,192.093l-1.112-.45a.843.843,0,0,0,.476-.24.815.815,0,0,1,.106-.08c.163-.095.352-.095.489-.263a1.142,1.142,0,0,1,.385-.233c.181-.1.406-.116.532-.315.02-.031.1-.023.155-.033l.815.055-.3.02v.042h.838c-.033.055-.052.134-.1.163-.189.108-.395.188-.581.3C43.541,191.4,42.973,191.747,42.4,192.093Z" transform="translate(-34.556 -159.415)"/><path class="a" d="M80.022,96.051c-.227.163-.445.326-.682.476-.411.254-.833.489-1.251.732-.186.108-.373.212-.556.326-.091.055-.2.108-.129.251l-.944-.455c.652-.387,1.3-.771,1.942-1.164a5.451,5.451,0,0,0,.453-.338l.921.163A2.433,2.433,0,0,0,80.022,96.051Z" transform="translate(-63.99 -80.243)"/><path class="a" d="M121.758,15.73l.616.383c-.02.036-.029.088-.06.106q-.693.411-1.388.815c-.489.276-.979.527-1.445.828a1.65,1.65,0,0,1-.675.318l-.326-.294a1.688,1.688,0,0,1,.667-.448c.181-.08.418-.114.489-.357a1.321,1.321,0,0,0,.7-.393c.163-.163.489-.083.572-.385,0-.008.033-.013.051-.013.357.016.475-.387.786-.453A.442.442,0,0,0,121.758,15.73Z" transform="translate(-99.158 -13.165)"/><path class="a" d="M95.22,69.434v-.1c.046,0,.108.016.137,0a.8.8,0,0,1,.522-.178c.091,0,.181-.1.281-.163l-.121-.078c.124-.026.258.036.356,0s.189-.178.3-.246a2.609,2.609,0,0,1,.37-.163l-.171-.121.509-.144-.044-.086a1.484,1.484,0,0,0,.362-.047,3.246,3.246,0,0,0,.422-.233l.652.4a1.5,1.5,0,0,0-.246.228c-.134.191-.383.163-.54.326a1.717,1.717,0,0,1-.338.241c-.326.186-.664.364-1,.545A4.682,4.682,0,0,0,95.22,69.434Z" transform="translate(-79.691 -56.801)"/><path class="a" d="M105.269,107.067a1.6,1.6,0,0,0-.489-.749c.385-.236.77-.471,1.153-.709.086-.054.163-.124.25-.175.25-.142.5-.277.755-.414l.45.691a2.27,2.27,0,0,1-.724.517c-.315.153-.6.364-.9.546C105.6,106.874,105.434,106.974,105.269,107.067Z" transform="translate(-87.692 -87.893)"/><path class="a" d="M66.88,1.488c.276.018.55.054.824.046a.739.739,0,0,0,.422-.139A3.118,3.118,0,0,1,68.813.97c.279-.127.522-.31.793-.447A5.382,5.382,0,0,0,70.22.092h-.346c.232-.016.462-.042.691-.042.183,0,.364.034.546.052,0,.036.013.1.024.1.09.008.181,0,.3,0-.042.059-.057.1-.085.113A7.7,7.7,0,0,0,70.2.98c-.391.21-.74.442-1.116.652a.6.6,0,0,1-.222.036l-.313.029L66.88,1.534Z" transform="translate(-55.973 -0.042)"/><path class="a" d="M125.27,24c.307-.173.616-.341.92-.519.222-.129.435-.274.652-.406.294-.178.587-.354.884-.525s.652-.357.964-.543a1.4,1.4,0,0,0,.2-.179l.281.222.067.236c-.24.137-.507.284-.771.437l-2.259,1.3c-.191.113-.37.243-.556.365Z" transform="translate(-104.84 -18.27)"/><path class="a" d="M104.11,71.6c.326-.181.667-.359,1-.545a1.717,1.717,0,0,0,.338-.241c.163-.148.406-.127.54-.326a1.5,1.5,0,0,1,.246-.228l.471.369c.127.1.075.178-.018.269q-.548.525-1.088,1.063c-.1.1-.2.214-.315.326A3.317,3.317,0,0,0,104.11,71.6Z" transform="translate(-87.131 -58.802)"/><path class="a" d="M32.869,3.939c-.612.137-1.228.256-1.833.414-.453.117-.892.285-1.339.429a.6.6,0,0,1-.217.029,16.387,16.387,0,0,1,4.447-1.933c.163-.044.326-.073.489-.109l.222.1A20.463,20.463,0,0,1,32.681,3.92Z" transform="translate(-24.672 -2.318)"/><path class="a" d="M113.66,14.062a13.215,13.215,0,0,1,1.38-.815,2.707,2.707,0,0,0,.385-.243c.38-.215.765-.422,1.142-.643a2.853,2.853,0,0,0,.316-.261,1.877,1.877,0,0,1-.189-.122c-.021-.016-.015-.064-.02-.1q.44.253.884.5a1.6,1.6,0,0,0-.3.111c-.285.175-.561.364-.843.543-.106.067-.217.126-.326.184-.148.08-.3.147-.448.235-.269.163-.533.338-.8.506-.015.01-.038,0-.052.015-.219.135-.489.21-.6.479Z" transform="translate(-95.124 -9.942)"/><path class="a" d="M87.37,99.732c.313-.163.628-.326.938-.489q.51-.279,1.014-.576c.307-.179.608-.367.91-.554.023-.015.023-.067.033-.1l.8.215c-.034.057.036.153-.1.181a1.007,1.007,0,0,0-.3.163c-.223.139-.452.263-.665.417a4.729,4.729,0,0,1-.709.356.909.909,0,0,0-.152.1.97.97,0,0,1-.571.3c-.026,0-.047.1-.07.153Z" transform="translate(-73.121 -82.026)"/><path class="a" d="M54.722,190.609H55l.665-.036.3-.023v.059l-1.006.6c-.281.163-.561.326-.843.5-.173.1-.352.191-.52.3-.276.174-.545.357-.815.537l-.558-.163a.353.353,0,0,1,.031-.184.489.489,0,0,1,.277-.22,2.357,2.357,0,0,0,.525-.312c.163-.095.326-.174.489-.272a7.377,7.377,0,0,0,.815-.522c.119-.095.326-.016.372-.21Z" transform="translate(-43.704 -159.474)"/><path class="a" d="M147.077,44.251l-.354.176c-.031.016-.073.028-.09.054a.788.788,0,0,1-.4.285.678.678,0,0,0-.357.272c-.059.093-.235.109-.354.163a.414.414,0,0,0-.163.1c-.106.2-.326.2-.489.289a3.111,3.111,0,0,0-.4.256,1.235,1.235,0,0,1-.308.163,1.487,1.487,0,0,0-.5.326,2.523,2.523,0,0,1-.678.357,1.038,1.038,0,0,0-.184.163l-.188-.426c.362-.209.724-.414,1.085-.623.4-.228.789-.458,1.182-.69.36-.214.718-.432,1.078-.652.163-.1.336-.184.5-.285s.266-.188.4-.281Z" transform="translate(-119.352 -36.74)"/><path class="a" d="M96.94,6.585A3.019,3.019,0,0,1,98,5.965a1.556,1.556,0,0,0,.4-.256c.445-.277.882-.572,1.347-.815.1-.051.024-.134.1-.144l.652.219c-.044.038.163.064-.013.14a8.391,8.391,0,0,0-.979.538c-.5.3-.979.623-1.5.894-.191.1-.364.326-.633.228Z" transform="translate(-81.131 -3.975)"/><path class="a" d="M99.6,7.85c.269.1.442-.127.633-.228.514-.271,1-.6,1.5-.894a8.391,8.391,0,0,1,.979-.538c.179-.077-.031-.1.013-.14l.326.126-.044.064.351.163-.85.5c-.357.212-.716.426-1.075.636-.276.163-.554.315-.828.478a2.963,2.963,0,0,0-.282.212Z" transform="translate(-83.357 -5.063)"/><path class="a" d="M71.238,85.957l.1.726a1.59,1.59,0,0,1-.509.313c-.232.127-.46.263-.687.4-.277.163-.551.342-.827.514-.049-.088-.049-.088-.148-.1-.068-.228-.139-.457-.209-.685a.7.7,0,0,0,.6-.271.514.514,0,0,1,.176-.117c.2-.106.47-.082.572-.347.01-.028.08-.031.121-.051a1.161,1.161,0,0,0,.39-.212A.4.4,0,0,1,71.238,85.957Z" transform="translate(-57.714 -71.932)"/><path class="a" d="M31.744,188.482l-1.114-.616c.059-.08.1-.189.178-.236.308-.179.628-.341.943-.509l-.028-.024.041-.036,1.326.339c-.013.06,0,.163-.042.178-.316.2-.634.4-.965.568a.652.652,0,0,0-.338.338Z" transform="translate(-25.635 -156.553)"/><path class="a" d="M42.766,80.59l.059.163a3.509,3.509,0,0,1,.039.409c0,.1,0,.25-.07.289-.365.23-.745.437-1.122.652-.077.042-.163.067-.24.113-.219.137-.432.279-.7.452a2.754,2.754,0,0,0-.021-.362.61.61,0,0,0-.1-.163l-.07-.373.059-.06.07.135c.434-.25.856-.489,1.27-.732C42.22,80.947,42.491,80.764,42.766,80.59Z" transform="translate(-33.929 -67.447)"/><path class="a" d="M31.37,132.1c.155-.121.3-.254.466-.359.209-.134.434-.241.652-.364q.778-.445,1.553-.9a4.6,4.6,0,0,0,.5-.326c.126-.1.178-.034.233.065a3.785,3.785,0,0,1-2.446,1.766A7.4,7.4,0,0,1,31.37,132.1Z" transform="translate(-26.254 -108.892)"/><path class="a" d="M149.54,64.89a.312.312,0,0,0,.369-.067,3.608,3.608,0,0,1,.478-.276c.528-.326,1.039-.68,1.585-.979s1.029-.636,1.569-.912a5.545,5.545,0,0,0,.6-.377,1.358,1.358,0,0,0,.181-.181c.06.184.122.369.183.551a.186.186,0,0,0-.212-.041c-.411.145-.7.515-1.13.612-.223.3-.592.347-.9.507-.163.085-.287.236-.45.326a9.787,9.787,0,0,0-1.006.618c-.057.038-.144.028-.205.06-.3.15-.514.439-.856.524a1.319,1.319,0,0,0,.016.243l-.1.055C149.615,65.334,149.577,65.112,149.54,64.89Z" transform="translate(-125.152 -51.972)"/><path class="a" d="M113.7,181.532c0-.251.254-.228.375-.351.251-.248.633-.267.887-.54.145-.163.409-.2.62-.3a.489.489,0,0,0,.1-.042c.137-.1.263-.253.413-.284.259-.054.372-.285.589-.387.31-.147.6-.336.9-.5a4.657,4.657,0,0,0,.869-.5,8.358,8.358,0,0,1,.835-.514c.294-.21.633-.369.934-.577.08-.054.183-.067.207.077l-.815.736a.548.548,0,0,0-.416.085,4.436,4.436,0,0,1-.553.346c-.091.052-.2.077-.289.129-.2.119-.4.254-.6.372-.145.085-.326.109-.432.259a.744.744,0,0,1-.246.181,3.287,3.287,0,0,1-.638.31c-.245.07-.326.351-.589.385a.824.824,0,0,0-.29.122,2.924,2.924,0,0,1-.46.3c-.14.051-.132.127-.134.228-.163-.018-.238.135-.364.181C114.312,181.351,114,181.438,113.7,181.532Z" transform="translate(-95.157 -148.551)"/><path class="a" d="M130.36,29.482a6.915,6.915,0,0,0,1.3-.727c.408-.219.815-.447,1.208-.682.25-.147.489-.326.732-.47.194-.114.4-.2.605-.3l.225.215a1.158,1.158,0,0,1-.4.326,3.056,3.056,0,0,0-.7.422,2.9,2.9,0,0,1-.753.369,1.272,1.272,0,0,0-.439.271,1.683,1.683,0,0,1-.468.236.816.816,0,0,0-.135.068c-.134.1-.251.261-.4.3a.489.489,0,0,0-.378.308c-.011.028-.059.041-.09.06Z" transform="translate(-109.1 -22.848)"/><path class="a" d="M28,67.865c-.036.052-.062.13-.111.15a8.481,8.481,0,0,0-1.3.75c-.276.176-.574.326-.877.489l.139.108-.163.02-.2-.02c-.052-.034-.1-.095-.163-.1-.188-.011-.378,0-.568,0a3.479,3.479,0,0,1,.406-.311c.272-.163.564-.276.833-.437.387-.232.757-.489,1.142-.729.121-.077.251-.139.378-.207Z" transform="translate(-20.714 -56.559)"/><path class="a" d="M76.014,132.226l-.447-.163-.038-.181c.241-.106.525-.114.669-.377.013-.026.062-.029.093-.046.251-.134.506-.261.75-.4.279-.163.546-.342.815-.5a.687.687,0,0,1,.3-.093c.284-.013.569,0,.855,0-.176.111-.349.227-.528.326-.437.254-.879.5-1.314.755C76.787,131.762,76.4,131.995,76.014,132.226Z" transform="translate(-63.212 -109.179)"/><path class="a" d="M121.51,185.36c0-.1,0-.178.134-.228a2.924,2.924,0,0,0,.46-.3.824.824,0,0,1,.29-.122c.259-.034.344-.315.589-.385a3.287,3.287,0,0,0,.638-.31.744.744,0,0,0,.253-.183c.113-.15.287-.175.432-.259.2-.117.4-.253.6-.372.091-.052.2-.077.289-.129a4.436,4.436,0,0,0,.553-.346.548.548,0,0,1,.416-.085c-.579.431-1.142.882-1.74,1.284a14.377,14.377,0,0,1-2.5,1.3,3.424,3.424,0,0,1-.419.126Z" transform="translate(-101.694 -152.85)"/><path class="a" d="M55.62,191.314c.272-.179.541-.362.815-.537.163-.106.347-.2.52-.3.282-.163.563-.326.843-.5l1.016-.6v-.059l-.3.023-.665.036A.461.461,0,0,1,58,189.31c.269-.023.54-.031.815-.057.1-.01.2-.062.3-.082.191-.036.385-.06.577-.091l.108.13c-.212.129-.419.256-.63.378-.417.245-.838.489-1.256.731-.251.147-.512.281-.749.448a5.311,5.311,0,0,0-1.037.674Z" transform="translate(-46.549 -158.244)"/><path class="a" d="M68.108,124.25l.057.163c-.532.311-1.081.628-1.631.956a2.876,2.876,0,0,0-.336.279c-.341-.357-.341-.357,0-.695s.726-.714,1.078-1.081c.106-.108.184-.116.3-.024C67.746,123.983,67.93,124.118,68.108,124.25Z" transform="translate(-55.188 -103.597)"/><path class="a" d="M37.46,190.24a.652.652,0,0,1,.338-.334,11.144,11.144,0,0,0,.965-.568c.038-.023.029-.117.042-.178l1.417.215c-.054.01-.135,0-.155.033-.126.2-.351.219-.532.315a1.142,1.142,0,0,0-.385.227c-.132.163-.326.163-.489.263a.815.815,0,0,0-.106.08.843.843,0,0,1-.476.24Z" transform="translate(-31.351 -158.311)"/><path class="a" d="M94.792,66.533a3.247,3.247,0,0,1-.422.233,1.484,1.484,0,0,1-.362.047l.044.086-.509.144.171.117a2.609,2.609,0,0,0-.37.163c-.108.068-.183.207-.3.246s-.232-.026-.356,0l.121.078c-.1.057-.189.152-.281.163a.8.8,0,0,0-.522.178c-.029.023-.091,0-.137,0l-.652.033a1.037,1.037,0,0,1,.523-.326c.188-.062.326-.246.512-.347.236-.134.489-.238.734-.357a.326.326,0,0,0,.132-.086.841.841,0,0,1,.533-.3.126.126,0,0,0,.1-.039c.086-.163.263-.209.408-.29Z" transform="translate(-76.343 -55.462)"/><path class="a" d="M70.97,81.583a.4.4,0,0,0-.416.163,1.161,1.161,0,0,1-.388.227c-.041.02-.111.023-.121.051-.1.266-.377.241-.572.347a.514.514,0,0,0-.176.117.7.7,0,0,1-.6.271l-.059-.5c.289-.117.509-.377.842-.406.015,0,.033-.02.041-.034.117-.217.346-.258.545-.347a.212.212,0,0,0,.1-.085c.1-.2.326-.2.489-.3a1.559,1.559,0,0,0,.259-.173c.13-.116.246-.253.45-.163A2.009,2.009,0,0,0,70.97,81.583Z" transform="translate(-57.446 -67.558)"/><path class="a" d="M40.024,75.3l.215.344c-.142.093-.281.192-.429.277-.326.192-.669.372-1,.568-.238.142-.465.3-.7.457l-.336-.519a.934.934,0,0,1,.189-.215c.258-.163.538-.276.784-.445s.563-.2.781-.44a.259.259,0,0,1,.427,0Z" transform="translate(-31.619 -62.945)"/><path class="a" d="M104.577,102.891c-.253.137-.506.272-.755.414-.088.051-.163.121-.25.175-.383.238-.768.473-1.153.709l-.447-.223c-.023-.117-.023-.2.122-.267a5.177,5.177,0,0,0,.815-.468,6.261,6.261,0,0,1,.713-.435c.192-.1.383-.21.574-.315Z" transform="translate(-85.333 -85.767)"/><path class="a" d="M0,64.944a.571.571,0,0,1,.163-.054h4.7a2.516,2.516,0,0,1,.326.042c-.97,0-1.939,0-2.909.011A1.758,1.758,0,0,0,2,65c-.217.122-.489.163-.63.4-.011.02-.047.026-.072.038a1.047,1.047,0,0,0-.525.326c-.024.038-.093.042-.14.064a1.052,1.052,0,0,0-.582.39v-.907A3.354,3.354,0,0,0,0,64.944Z" transform="translate(0 -54.307)"/><path class="a" d="M94.2,101c.023-.054.044-.153.07-.153a.977.977,0,0,0,.571-.3.909.909,0,0,1,.152-.1,4.729,4.729,0,0,0,.709-.356c.214-.163.442-.279.665-.418a1.006,1.006,0,0,1,.3-.163c.132-.028.062-.124.1-.181l.274.114-.068.046.263.147c-.015.038-.018.075-.038.086-.391.243-.783.489-1.179.724a9.156,9.156,0,0,0-.83.489.53.53,0,0,1-.574.132c-.018,0-.055.034-.085.054l-.276-.013Z" transform="translate(-78.837 -83.131)"/><path class="a" d="M76.554,94.807c-.15.113-.294.24-.453.338-.652.393-1.295.778-1.942,1.164l-.448-.377c.378-.064.621-.372.956-.52.163-.073.289-.251.453-.3.342-.1.561-.382.873-.514Z" transform="translate(-61.689 -79.172)"/><path class="a" d="M76.643,128.654h-.855a.686.686,0,0,0-.3.093c-.277.163-.545.341-.815.5-.245.144-.5.271-.75.4-.031.016-.08.02-.093.046-.144.263-.427.271-.669.377l.038.181-.509-.251c.188-.139.365-.29.564-.413.53-.326,1.07-.652,1.606-.965.013,0,.018-.031.042-.073a2.05,2.05,0,0,1-.307-.082,1.32,1.32,0,0,1-.228-.163,8.2,8.2,0,0,0,1.125.276,10.2,10.2,0,0,0,1.261-.033Z" transform="translate(-60.835 -107.384)"/><path class="a" d="M117,17.063c.111-.269.378-.344.6-.479.015-.008.038,0,.052-.015.266-.163.53-.342.8-.506.144-.088.3-.155.448-.235.111-.059.222-.117.326-.184.282-.179.558-.369.843-.543a1.6,1.6,0,0,1,.3-.111l.163.121c0,.036,0,.1-.015.1-.311.067-.429.47-.786.453-.018,0-.049,0-.051.013-.08.3-.413.227-.572.385a1.321,1.321,0,0,1-.708.393c-.07.243-.307.277-.489.357a1.688,1.688,0,0,0-.667.448Z" transform="translate(-97.919 -12.545)"/><path class="a" d="M120.48,20.128a1.65,1.65,0,0,0,.675-.318c.465-.3.962-.553,1.445-.828s.926-.538,1.388-.815c.031-.018.041-.07.06-.106l.326.23c-.205.109-.416.217-.618.326-.113.062-.212.145-.326.21a12.61,12.61,0,0,0-1.151.695c-.254.191-.556.3-.8.512a3.317,3.317,0,0,1-.677.364Z" transform="translate(-100.831 -15.115)"/><path class="a" d="M39.84,79.151c.232-.153.458-.315.7-.457.326-.2.667-.375,1-.568.148-.085.287-.184.429-.277l.217.447c-.276.174-.546.357-.827.525q-.621.369-1.27.732l-.07-.135-.059.06Z" transform="translate(-33.343 -65.154)"/><path class="a" d="M70.24,91.619c.1.011.1.011.148.1.276-.163.55-.346.827-.514.227-.139.455-.274.687-.4a1.59,1.59,0,0,0,.509-.313l.163.279a.386.386,0,0,1-.233.421c-.289.163-.584.326-.873.489s-.6.359-.892.538C70.467,92.02,70.354,91.819,70.24,91.619Z" transform="translate(-58.785 -75.732)"/><path class="a" d="M110.231,113.117l-.047.054c-.227.147-.452.3-.682.439-.184.111-.38.2-.564.311-.29.173-.574.354-.864.525-.064.039-.163.111-.163-.051a3.317,3.317,0,0,0,.106-.387.287.287,0,0,1,.15-.246c.225-.153.548-.15.695-.426.015-.026.06-.036.093-.052a2.3,2.3,0,0,0,.5-.261,2.312,2.312,0,0,1,.737-.354Z" transform="translate(-90.311 -94.295)"/><path class="a" d="M26.642,184.762l-.041.036.028.024c-.315.163-.634.326-.943.509-.078.047-.119.163-.178.236l-1-.633a1.409,1.409,0,0,0,.2-.064c.163-.083.336-.178.507-.261s.176-.124.077-.3c.147.042.3.078.442.129C26.041,184.542,26.341,184.654,26.642,184.762Z" transform="translate(-20.513 -154.252)"/><path class="a" d="M41,83a.61.61,0,0,1,.1.163,2.755,2.755,0,0,1,.021.362c.267-.173.489-.315.7-.452.075-.046.163-.07.24-.113.377-.212.757-.419,1.122-.652.062-.039.068-.189.07-.289a3.508,3.508,0,0,0-.039-.409,2.86,2.86,0,0,1,.232,1.27V83l-.09-.347a2.513,2.513,0,0,0-.517.248c-.095.072-.14.207-.292.207-.116,0-.145.23-.308.117-.01,0-.06.02-.065.038-.051.209-.253.217-.4.3-.192.114-.391.22-.621.349v.641h-.049c0-.23,0-.46-.01-.69a3.626,3.626,0,0,0-.049-.369Z" transform="translate(-34.313 -68.301)"/><path class="a" d="M81.455,129.324l.111-.1.559-.111.215.093c-.15.129-.419.018-.522.2l.038.082-.315-.039-.013.064.214.09c-.088.028-.14.064-.181.052-.09-.024-.142-.062-.163.086,0,.047-.192.085-.3.111a.965.965,0,0,1-.243-.011l.163.145c-.124.082-.241.163-.364.238-.038.024-.1.06-.124.046-.2-.113-.339.049-.538.108l.144.1a.326.326,0,0,1-.413.142c-.024.3-.267.018-.38.163l.194.1c-.15.047-.282.086-.411.134-.02,0-.015.062-.034.08-.052.051-.113.095-.163.142l-.489-.124c.387-.232.773-.465,1.163-.691.435-.254.877-.5,1.314-.755C81.106,129.55,81.279,129.435,81.455,129.324Z" transform="translate(-65.648 -108.054)"/><path class="a" d="M109.88,109.816a2.312,2.312,0,0,0-.737.354,2.3,2.3,0,0,1-.5.261c-.033.016-.078.026-.093.052-.147.276-.47.272-.695.426a.287.287,0,0,0-.15.246,3.317,3.317,0,0,1-.106.387l-.051-.054.038-.873c.163-.1.326-.192.489-.292.3-.183.587-.393.9-.546a2.27,2.27,0,0,0,.724-.517C109.766,109.446,109.823,109.63,109.88,109.816Z" transform="translate(-90.01 -91.441)"/><path class="a" d="M49.205,2.483,49,2.464A18.7,18.7,0,0,0,50.957,1.41l-.222-.1,1.295-.232c.07-.013.139-.036.207-.052l.111.054c-.13.057-.267.106-.393.176-.279.163-.55.326-.83.489-.215.122-.445.222-.652.351a1.8,1.8,0,0,0-.282.269Z" transform="translate(-41.009 -0.862)"/><path class="a" d="M51.257,191.192c-.049.194-.253.116-.372.21a7.377,7.377,0,0,1-.815.522c-.163.1-.326.178-.489.272a2.357,2.357,0,0,1-.525.312.489.489,0,0,0-.277.22c-.034.044-.023.122-.031.184l-.667-.225c.571-.346,1.142-.7,1.712-1.036.186-.111.391-.191.581-.3.047-.028.067-.106.1-.163Z" transform="translate(-40.239 -160.01)"/><path class="a" d="M72.32,93.678c.3-.179.592-.362.892-.538s.584-.326.873-.489a.387.387,0,0,0,.233-.421l.51.391c-.312.132-.53.417-.873.514-.163.047-.29.225-.453.3-.326.148-.577.457-.956.52Z" transform="translate(-60.526 -77.189)"/><path class="a" d="M96.23,101.708c.029-.02.067-.06.085-.054a.54.54,0,0,0,.574-.132,9.156,9.156,0,0,1,.83-.489c.4-.236.788-.489,1.179-.724.02-.011.023-.049.038-.086l-.263-.147.068-.046.662.4c-.191.1-.382.212-.574.315a6.262,6.262,0,0,0-.713.435,5.175,5.175,0,0,1-.815.468c-.145.067-.145.15-.122.267Z" transform="translate(-80.536 -83.716)"/><path class="a" d="M21.222,182.31c.1.176.083.223-.077.3s-.336.178-.507.261a1.411,1.411,0,0,1-.2.064l-.794-.605c.054-.057.1-.153.163-.163.23-.046.383-.294.652-.238Z" transform="translate(-16.437 -152.252)"/><path class="a" d="M91.532,2.73l.409.086A1.305,1.305,0,0,1,91.726,3c-.223.113-.46.2-.677.326s-.411.274-.628.4c-.191.109-.4.194-.6.294a.326.326,0,0,0-.1.083A1.142,1.142,0,0,1,89,4.467l-.254-.073c.411-.25.815-.5,1.233-.75C90.5,3.337,91.015,3.033,91.532,2.73Z" transform="translate(-74.276 -2.285)"/><path class="a" d="M56.3,2.344a1.8,1.8,0,0,1,.29-.269c.212-.129.442-.228.652-.351.281-.163.551-.326.83-.489.135-.072.267-.119.4-.176L59.087,1l.01.038-2.1,1.246h1.032v.046Z" transform="translate(-47.118 -0.837)"/><path class="a" d="M3.8,168.41a12.7,12.7,0,0,1-1.973-2.19.8.8,0,0,1,.139.073c.388.326.771.664,1.166.979.238.192.5.357.745.538a2.319,2.319,0,0,1,.2.181c.1.137-.011.205-.093.279a1.889,1.889,0,0,1-.183.14Z" transform="translate(-1.532 -139.112)"/><path class="a" d="M13.93,177.524a1.891,1.891,0,0,0,.183-.135c.082-.073.2-.142.093-.279.119.057.24.108.356.163.37.2.739.413,1.107.62-.264-.055-.417.192-.652.238-.062.011-.106.108-.163.163Z" transform="translate(-11.658 -148.226)"/><path class="a" d="M106.847,116.911l.051.054c.013.163.108.09.163.051.29-.163.574-.352.864-.525.184-.109.38-.2.564-.311.23-.14.455-.292.682-.439l.07.447-.413-.072.179.127-.432.02.2.144c-.142.042-.261.086-.383.113s-.127.018-.163.179l-.279-.083.091.217c-.2.075-.341.3-.607.2-.041-.016-.181.09-.179.134,0,.152-.117.152-.189.194-.176.106-.271.065-.354-.121Z" transform="translate(-89.307 -96.864)"/><path class="a" d="M38.534,73.363c-.021.01-.059.029-.062.024a.259.259,0,0,0-.427,0c-.219.238-.535.269-.781.44s-.527.289-.784.445a.935.935,0,0,0-.189.215L36,74.221c.3-.173.592-.349.892-.517a6.58,6.58,0,0,0,.833-.462c.14-.109.36-.135.424-.342Z" transform="translate(-30.129 -61.011)"/><path class="a" d="M105.64,135.3l-.23-.091.256-.152a1.24,1.24,0,0,1,.3-.175c.264-.064.369-.356.628-.414a.643.643,0,0,0,.38-.259c.119-.163.223-.028.326.039A3.81,3.81,0,0,1,105.64,135.3Z" transform="translate(-88.219 -112.26)"/><path class="a" d="M3.67,142.085H4.688a1.586,1.586,0,0,1,.261.044c-.369,0-.737.013-1.107.013H.214c-.077,0-.227.083-.21-.113H.051a1.209,1.209,0,0,0,.258.054h1.8Z" transform="translate(-0.002 -118.867)"/><path class="a" d="M56.28,95.441l-.01-.124V91.47a2.253,2.253,0,0,1,.046.326v3.33a2.22,2.22,0,0,1-.036.315Z" transform="translate(-47.093 -76.553)"/><path class="a" d="M56.054,89.729V93.25L56,92.923V89.4Z" transform="translate(-46.867 -74.82)"/><path class="a" d="M12.25,65.215a1.758,1.758,0,0,1,.285-.054c.97,0,1.939,0,2.909-.011l.313.072v.049c-.152-.018-.3-.049-.458-.052-.311-.01-.623,0-.933,0l-1.114.055a1.168,1.168,0,0,0-.228-.055C12.765,65.21,12.508,65.215,12.25,65.215Z" transform="translate(-10.252 -54.525)"/><path class="a" d="M0,65.22c.015.124.041.248.044.372v2.877a1.313,1.313,0,0,0,.052.258l-.055.163L0,68.783Z" transform="translate(0 -54.583)"/><path class="a" d="M.049,124.023H0v-3.5H.049Z" transform="translate(0 -100.865)"/><path class="a" d="M.049,103.949H0V100.72H.049Z" transform="translate(0 -84.294)"/><path class="a" d="M95.377,204.17l.276.049-1.541.238-.3-.016Z" transform="translate(-78.511 -170.873)"/><path class="a" d="M87.061,108.738l.055.1-1.447-.223.277-.049Z" transform="translate(-71.698 -90.864)"/><path class="a" d="M.049,89.3H0V87.07l.047.109V89.3Z" transform="translate(0 -72.87)"/><path class="a" d="M59.258,190.882H57.64v-.042l.3-.02,1.324.015Z" transform="translate(-48.24 -159.7)"/><path class="a" d="M79.4,206.22h.775l.276.049H78.84l.222-.049Z" transform="translate(-65.982 -172.588)"/><path class="a" d="M106.83,162.257c0-.269.254-.277.409-.385.072-.049.147-.093.222-.135s.186-.1.277-.15a1.143,1.143,0,0,0,.21-.117,1.44,1.44,0,0,1,.722-.393.1.1,0,0,0,.042-.034,4.63,4.63,0,0,1,1.014-.669,8.131,8.131,0,0,1,.815-.4c.085-.044.163-.114.241-.163.545-.338,1.1-.662,1.631-1.018a2.283,2.283,0,0,1,.543-.263.549.549,0,0,0,.129-.088,1.131,1.131,0,0,1,.294-.194.979.979,0,0,0,.409-.254,1.572,1.572,0,0,1,.326-.163c.285-.153.568-.316.856-.463.057-.029.142,0,.215,0-.163.109-.326.23-.5.326-.336.194-.683.369-1.006.587a5.654,5.654,0,0,1-.546.3,8.612,8.612,0,0,0-1.213.7c-.315.25-.688.377-1,.63a6.859,6.859,0,0,1-.979.532c-.258.145-.489.341-.76.463s-.468.408-.8.429c-.188.326-.584.318-.843.537a4.164,4.164,0,0,1-.55.364A.478.478,0,0,1,106.83,162.257Z" transform="translate(-89.408 -131.688)"/><path class="a" d="M152.24,82.216a.36.36,0,0,0,.106-.026c.349-.212.695-.432,1.045-.641.263-.163.543-.285.8-.452a2.406,2.406,0,0,0,.533-.346,1.554,1.554,0,0,1,.447-.246,4.625,4.625,0,0,0,.859-.452c.272-.223.6-.326.877-.543a4.088,4.088,0,0,1,.512-.3c-.021.1.163.225-.057.294-.044.015.178.057.031.129-.049.024-.179-.02-.184,0-.042.15-.163.086-.253.109-.01,0-.023.034-.018.044.095.181-.018.1-.1.082a.245.245,0,0,0-.191.018l.127.093a.4.4,0,0,1-.435.175c-.054-.013-.122.049-.188.064s-.163.029-.062.132c0,0-.031.051-.044.049-.135-.024-.184.054-.235.163-.021.046-.129.1-.163.085-.2-.1-.326.075-.522.1l.176.163c-.344-.065-.5.289-.815.264l.176.055c-.062.163-.258.029-.352.179-.059.1-.269.1-.419.142l.018.142a.584.584,0,0,0-.134-.044,1.01,1.01,0,0,0-.171.013l.114.124-.78.263.181.114-.489.163.038.113-.382-.041c.086.1.114.139.047.243s-.042.281-.1.426Z" transform="translate(-127.412 -66.292)"/><path class="a" d="M16.347,114.214c.046.285-.121.417-.351.545-.489.266-.946.559-1.419.842-.284.163-.571.326-.853.5-.354.212-.7.435-1.058.643-.481.279-.97.545-1.455.815-.38.215-.762.429-1.142.652a2.242,2.242,0,0,1-.747.4h-.7c.054-.24.225-.258.362-.326.339-.186.665-.4,1-.6.139-.083.277-.163.421-.241a6.253,6.253,0,0,0,.727-.373,1.837,1.837,0,0,1,.62-.383c.013,0,.016-.051.024-.077h.281v-.046l-.126-.018a2.272,2.272,0,0,0,1.734-1.122c.212.064.352-.106.519-.175a4.593,4.593,0,0,0,.45-.3c.277-.163.564-.3.845-.455.124-.068.236-.163.359-.23a1.934,1.934,0,0,1,.383-.205C16.331,114.018,16.347,114.126,16.347,114.214Z" transform="translate(-7.214 -95.449)"/><path class="a" d="M4.817,129.707c-.008.026-.011.073-.024.077a1.863,1.863,0,0,0-.62.383,6.254,6.254,0,0,1-.729.373c-.144.075-.282.163-.421.241-.326.2-.652.411-1,.6-.137.075-.308.093-.362.326h.7v.055H.572a1.209,1.209,0,0,1-.272-.054v-1.448H.355v1.168c0,.281.109.354.377.256a.872.872,0,0,0,.122-.064c.571-.349,1.142-.7,1.714-1.042.4-.238.815-.452,1.228-.682.039-.021.06-.075.086-.109l-.631-.085Z" transform="translate(-0.251 -108.548)"/><path class="a" d="M42.241,111.6c0-.088-.01-.2-.126-.163a1.935,1.935,0,0,0-.383.205c-.122.073-.235.163-.359.23-.281.163-.568.3-.845.455a4.592,4.592,0,0,1-.45.3c-.163.068-.307.238-.519.175l.227-.77.1.225.543-.316c.448-.264.894-.532,1.345-.791.148-.086.31-.15.466-.225l.049.339v.326Z" transform="translate(-33.108 -92.83)"/><path class="a" d="M.372,69a1.313,1.313,0,0,1-.052-.258q0-.707,0-1.412H.372v.607c.4-.254.755-.489,1.125-.709.476-.276.979-.52,1.445-.8s.961-.589,1.44-.884h.933a3.942,3.942,0,0,1,.458.052l.24.042-3.1,1.82.126.086-.326.055a.786.786,0,0,0-.163.052C1.97,68,1.391,68.347.816,68.7.667,68.794.522,68.9.372,69Z" transform="translate(-0.268 -54.86)"/><path class="a" d="M15,77.9l.326-.055h1.848c.054,0,.1.064.163.1L15.072,77.9Z" transform="translate(-12.554 -65.145)"/><path class="a" d="M.355,67.349H.3v-.558c.124-.235.365-.294.582-.39.047-.021.116-.026.14-.064a.986.986,0,0,1,.525-.326c.024-.011.06-.018.072-.038.144-.238.413-.282.63-.4h.773a1.169,1.169,0,0,1,.23.052,1.276,1.276,0,0,0-.5.326.233.233,0,0,1-.09.055c-.236.126-.476.245-.708.377-.3.175-.6.356-.9.537Z" transform="translate(-0.251 -54.876)"/><path class="a" d="M44.283,88.347v.669c-.576.326-1.142.67-1.73.961a.733.733,0,0,0-.5.877H42V89.266c.23-.129.429-.235.621-.349.144-.083.346-.091.4-.3,0-.018.055-.044.065-.038.163.113.192-.117.308-.117.152,0,.2-.135.292-.207a2.513,2.513,0,0,1,.51-.254Z" transform="translate(-35.15 -73.648)"/><path class="a" d="M41.121,99.69V102.2l2.283-1.342v.675a4.425,4.425,0,0,0-.466.225c-.452.259-.9.527-1.345.791l-.543.316-.1-.225q.047-1.042.091-2.086c0-.113.011-.223.018-.326l.013-.524Z" transform="translate(-34.272 -83.432)"/><path class="a" d="M41.359,94.268l-.013.524c-.015-.528-.031-1.055-.046-1.582a3.624,3.624,0,0,1,.049.369C41.359,93.809,41.357,94.038,41.359,94.268Z" transform="translate(-34.565 -78.009)"/><path class="a" d="M44.283,102.583,42,103.926v-.9c.153-.109.294-.28.462-.313.339-.067.553-.326.853-.452a5.308,5.308,0,0,0,.563-.326c.13-.072.269-.127.406-.189Z" transform="translate(-35.15 -85.156)"/><path class="a" d="M44.283,98.317c-.137.062-.276.117-.406.189a5.308,5.308,0,0,1-.563.326c-.3.121-.514.385-.853.452-.163.033-.308.2-.462.313v-.669h.055c.281-.153.566-.3.843-.462.163-.091.287-.228.448-.3a10.021,10.021,0,0,0,.936-.514Z" transform="translate(-35.15 -81.725)"/><path class="a" d="M44.465,94.788a10.021,10.021,0,0,1-.936.515,5.408,5.408,0,0,0-.448.3c-.277.163-.563.308-.843.462a.733.733,0,0,1,.5-.877c.589-.29,1.148-.638,1.73-.961Z" transform="translate(-35.333 -78.862)"/><path class="a" d="M.64,67.358c.232-.144.462-.287.695-.427.3-.181.6-.362.9-.537.232-.132.471-.251.708-.377a.233.233,0,0,0,.09-.055,1.178,1.178,0,0,1,.5-.326L4.65,65.58c-.479.3-.954.6-1.44.884s-.969.52-1.445.8c-.37.21-.724.45-1.125.7Z" transform="translate(-0.536 -54.885)"/><path class="a" d="M2.767,78.188l-.067.049a.739.739,0,0,0-.059.2c-.008.212,0,.424,0,.638-.188.095-.378.183-.561.287-.287.163-.568.326-.848.5s-.585.364-.877.545L.3,80.352v-.613l.055-.163c.15-.1.3-.209.45-.3.576-.352,1.155-.7,1.729-1.04A.786.786,0,0,1,2.7,78.18Z" transform="translate(-0.251 -65.43)"/><path class="a" d="M.355,120.807H.3v-.842l.055-.222A.931.931,0,0,1,.5,119.62q.915-.53,1.833-1.057c.1-.057.2-.1.307-.163v.558c-.068.046-.142.086-.205.139s-.07.127-.111.13c-.427.047-.677.422-1.058.559a4.276,4.276,0,0,0-.616.377c-.289.163-.292.163-.292.522Z" transform="translate(-0.251 -99.091)"/><path class="a" d="M.355,114.644.3,114.86V112.3H.355v2.339Z" transform="translate(-0.251 -93.985)"/><path class="a" d="M.355,94.9H.3V91.5l.055.055V94.9Z" transform="translate(-0.251 -76.578)"/><path class="a" d="M15.08,129.33h2.252l.126.018v.046H15.23Z" transform="translate(-12.621 -108.238)"/><path class="a" d="M2.978,126.382l.152.067.075.1a4.484,4.484,0,0,0-.435.2c-.383.222-.758.457-1.142.682-.14.082-.292.142-.427.228-.2.129-.388.272-.581.409v-1a1.389,1.389,0,0,0,.307-.082c.2-.108.387-.238.584-.351.085-.049.205-.049.267-.113.292-.3.727-.388,1-.706.013-.015.083.02.126.029.041.183-.085.387.073.553Z" transform="translate(-0.519 -105.29)"/><path class="a" d="M.64,131.355c.192-.137.382-.281.581-.409.135-.086.287-.147.427-.228.38-.225.755-.46,1.142-.682a4.488,4.488,0,0,1,.435-.2l-.075-.1h.387l.631.085c-.026.034-.047.088-.086.109-.408.23-.825.444-1.228.682-.576.339-1.142.693-1.714,1.042a.872.872,0,0,1-.122.064c-.267.1-.373.024-.377-.256Z" transform="translate(-0.536 -108.581)"/><path class="a" d="M2.923,122.585c-.042-.01-.113-.044-.126-.029-.276.326-.711.409-1,.706-.062.064-.183.064-.267.113-.2.113-.383.243-.584.351a1.388,1.388,0,0,1-.3.086v-.163c0-.359,0-.354.292-.522a4.278,4.278,0,0,1,.616-.378c.382-.137.631-.512,1.058-.559.041,0,.067-.093.111-.13s.137-.093.205-.139Z" transform="translate(-0.536 -102.037)"/><path class="a" d="M14.732,89.79v2.339H14.68V89.79Z" transform="translate(-12.286 -75.146)"/><path class="a" d="M14.64,104.13H14.7v2.283h-.054V104.13Z" transform="translate(-12.252 -87.148)"/><path class="a" d="M14.608,118.13h.059l.02,1.833c-.163-.163-.033-.37-.073-.553v-1.28Z" transform="translate(-12.22 -98.865)"/><path class="a" d="M14.724,80.366H14.67V78.727a.739.739,0,0,1,.054-.2Z" transform="translate(-12.278 -65.723)"/><path class="a" d="M2.923,83.65v.78c-.041-.036-.091-.106-.122-.1a.908.908,0,0,0-.351.13,6.155,6.155,0,0,1-1.208.75,4.949,4.949,0,0,0-.6.387v-.613c.292-.181.582-.365.874-.545s.561-.342.848-.5C2.545,83.833,2.736,83.745,2.923,83.65Z" transform="translate(-0.536 -70.008)"/><path class="a" d="M2.923,112.7v.055a3.467,3.467,0,0,0-.307.163q-.917.525-1.833,1.057a.931.931,0,0,0-.144.124v-1.176c.095-.021.189-.046.285-.064.356-.06.558-.39.886-.5a1.189,1.189,0,0,0,.285-.219.816.816,0,0,1,.163-.1c.2-.082.44-.085.522-.349,0-.028.1-.029.148-.044Z" transform="translate(-0.536 -93.433)"/><path class="a" d="M2.923,104.13v.835a.283.283,0,0,0-.108.013c-.228.144-.447.3-.678.439-.489.3-1,.59-1.5.886v-.835h0c.31-.179.62-.356.928-.537.453-.264.9-.533,1.355-.8Z" transform="translate(-0.536 -87.148)"/><path class="a" d="M.64,110.587c.5-.3,1-.585,1.5-.886.232-.139.45-.3.678-.439.028-.018.072-.01.108-.013v.39c-.052.015-.14.016-.148.044-.082.264-.326.267-.522.349a.815.815,0,0,0-.163.1,1.189,1.189,0,0,1-.279.215c-.326.114-.53.444-.886.5-.1.018-.191.042-.285.064Z" transform="translate(-0.536 -91.433)"/><path class="a" d="M2.923,89.79v1.058H2.868a2.983,2.983,0,0,0-.589.339,2.623,2.623,0,0,1-.563.279,5.477,5.477,0,0,1-.892.54.909.909,0,0,0-.184.119v-.946c.163-.1.326-.2.489-.3s.385-.2.564-.31C2.106,90.315,2.509,90.051,2.923,89.79Z" transform="translate(-0.536 -75.146)"/><path class="a" d="M.64,97.555a.909.909,0,0,1,.184-.119,4.959,4.959,0,0,0,.892-.54,2.623,2.623,0,0,0,.563-.279,3.814,3.814,0,0,1,.589-.339c.013-.01.038,0,.055,0v.669c-.091.055-.184.109-.276.163-.2.122-.393.245-.592.365-.223.139-.445.281-.675.411s-.489.263-.74.393Z" transform="translate(-0.536 -80.572)"/><path class="a" d="M.64,101.732c.248-.13.5-.256.74-.393s.452-.272.675-.411c.2-.121.395-.243.592-.365.091-.057.184-.111.276-.163v.612c-.452.267-.9.537-1.355.8-.308.181-.618.357-.928.537Z" transform="translate(-0.536 -84.026)"/><path class="a" d="M2.94,88.15c-.409.261-.815.525-1.23.78-.181.114-.377.207-.561.313s-.326.2-.489.3V89.1a4.949,4.949,0,0,1,.6-.387,6.155,6.155,0,0,0,1.208-.75.908.908,0,0,1,.351-.13c.031,0,.082.062.122.1Z" transform="translate(-0.552 -73.506)"/></g></g></svg>