<svg xmlns="http://www.w3.org/2000/svg" viewBox="0 0 95.913 53.285"><defs><style>.a,.b{fill:#fff;}.b{opacity:0.5;}.c{fill:none;}</style></defs><g transform="translate(0.006 0.003)"><g transform="translate(-0.006 -0.003)"><path class="a" d="M115.879,66.023l-.349,1.6h-.184a7.172,7.172,0,0,0-1.48-.69,4.674,4.674,0,0,0-1.4-.21,3.006,3.006,0,0,0-2.484,1.009,5.023,5.023,0,0,0-.817,3.176,4.67,4.67,0,0,0,.767,2.993,2.985,2.985,0,0,0,2.433.924,6.637,6.637,0,0,0,1.85-.335l.05-1.083-.05-1.6,1.616-.118-.033,1.451.05,2.451a12.175,12.175,0,0,1-3.585.651,4.673,4.673,0,0,1-3.668-1.359,5.646,5.646,0,0,1-1.217-3.893,5.915,5.915,0,0,1,1.394-4.233,5.253,5.253,0,0,1,3.973-1.48A6.992,6.992,0,0,1,115.879,66.023Z" transform="translate(-75.591 -45.955)"/><path class="a" d="M155.584,76.231l-.018.2a7.533,7.533,0,0,1-1.649.349l-.2-.133q-1.382-2.265-2.232-3.848h-1.818v.45l.083,3.366H148l.115-3.215L148,66h3.632a3.571,3.571,0,0,1,2.5.808,2.784,2.784,0,0,1,.888,2.223,3.469,3.469,0,0,1-.559,1.924,4.106,4.106,0,0,1-1.56,1.391Q154.036,74.167,155.584,76.231Zm-4.05-4.766a2.19,2.19,0,0,0,1.684-2.3q0-1.785-2.051-1.9l-1.418.05-.05,4.1Z" transform="translate(-104.187 -46.462)"/><path class="a" d="M185.639,76.63l-.249-1.184-.468-1.48-2.268-.05-2.048.05-.5,1.4-.266,1.282h-1.72L181.933,66h2.013L187.4,76.63Zm-2.685-8.946h-.115l-1.749,4.864,1.684.033,1.717-.033Z" transform="translate(-125.391 -46.462)"/><path class="a" d="M215.458,76.63,212,66h1.776l.249,1.217,2.451,7.747h.118l2.715-7.664.266-1.3h1.717l-3.783,10.63Z" transform="translate(-149.241 -46.462)"/><path class="a" d="M251.758,76.63H250l.115-3.215L250,66h1.776l-.1,7.264Z" transform="translate(-175.992 -46.462)"/><path class="a" d="M269.8,67.465l-1.933-.1h-.888l-.086,5.92.086,3.366h-1.735l.1-3.215-.083-6.066h-.888l-1.966.1-.118-.151.133-1.3h7.4l.1.151Z" transform="translate(-184.644 -46.476)"/><path class="a" d="M299.593,76.63h-1.735l.1-3.064v-.684L294.54,66h1.835l.216.666,2.117,4.417h.151l2.33-4.381.263-.7h1.809l-3.736,6.9-.015.669Z" transform="translate(-207.348 -46.462)"/><path class="a" d="M116.285,129.3l-.121-.592-.225-1.11-1.1-.024-.992.024-.243,1.072-.127.619h-.832l1.847-5.328h.974l1.667,5.328Zm-1.3-4.514h-.056l-.847,2.146.814.015.829-.015Z" transform="translate(-79.301 -87.264)"/><path class="a" d="M146.021,124.243l-.169.773h-.092a3.234,3.234,0,0,0-.716-.335,2.205,2.205,0,0,0-.675-.1,1.454,1.454,0,0,0-1.2.488,2.392,2.392,0,0,0-.394,1.533,2.254,2.254,0,0,0,.37,1.445,1.439,1.439,0,0,0,1.184.447,3.256,3.256,0,0,0,.888-.16l.027-.524-.027-.773.784-.056-.018.7.024,1.184a5.88,5.88,0,0,1-1.732.314,2.271,2.271,0,0,1-1.776-.657,2.738,2.738,0,0,1-.592-1.883,2.865,2.865,0,0,1,.672-2.046,2.528,2.528,0,0,1,1.921-.707A3.381,3.381,0,0,1,146.021,124.243Z" transform="translate(-99.893 -87.209)"/><path class="a" d="M175.111,128.692l-.056.636H172l.056-1.554L172,124h3.07l.047.071-.062.639-1.226-.033h-.983l-.024,1.667.935.015.853-.024.056.062-.065.636-.909-.024-.888.015v.672l.021.947h.986l1.246-.038Z" transform="translate(-121.082 -87.292)"/><path class="a" d="M202.144,129.328h-.888l-2.424-4.014h-.065v2.143l.041,1.871H198l.056-1.67-.041-3.644h.888l2.433,3.875h.062l-.024-3.833.77-.056-.056,3.641Z" transform="translate(-139.386 -87.292)"/><path class="a" d="M233.331,124.266l-.154.734-.08.027a1.9,1.9,0,0,0-1.184-.42,1.291,1.291,0,0,0-1.083.48,2.283,2.283,0,0,0-.376,1.43,2.443,2.443,0,0,0,.382,1.48,1.258,1.258,0,0,0,1.078.506,2.072,2.072,0,0,0,1.288-.444l.083.05-.065.755a3.073,3.073,0,0,1-1.371.34,2.108,2.108,0,0,1-1.676-.678,2.834,2.834,0,0,1-.592-1.924,2.971,2.971,0,0,1,.616-1.992,2.2,2.2,0,0,1,1.744-.7A2.732,2.732,0,0,1,233.331,124.266Z" transform="translate(-161.617 -87.227)"/><path class="a" d="M258.72,129.3h-.835l.047-1.48v-.329l-1.643-3.36h.888l.1.323,1.024,2.167h.071l1.128-2.152.13-.337h.867l-1.8,3.366v.323Z" transform="translate(-180.42 -87.384)"/><path class="a" d="M116.511,26.709l-.938-.047h-.432l-.038,2.9.041,1.776h-.838l.047-1.711-.041-2.96h-.435l-.95.047-.056-.074.065-.628h3.576l.047.074Z" transform="translate(-79.456 -18.31)"/><path class="a" d="M146.144,31.328h-.838l.056-1.711v-.7l-1.338-.024-1.184.024v.631l.041,1.776H142l.056-1.711L142,26h.853l-.033,2.217,1.258.024,1.255-.024L145.3,26h.841l-.047,3.552Z" transform="translate(-99.963 -18.302)"/><path class="a" d="M175.111,30.692l-.056.636H172l.056-1.554L172,26h3.07l.047.074-.062.636-1.226-.033h-.986l-.021,1.664.935.018.853-.027.056.065-.065.636-.912-.024-.888.018v.666l.024.95h.986l1.246-.038Z" transform="translate(-121.082 -18.302)"/><path class="b" d="M31.205,173.3c0,.592-3.6,1.069-8.034,1.069s-8.031-.48-8.031-1.069,3.511-1.3,7.951-1.3S31.205,172.71,31.205,173.3Z" transform="translate(-10.656 -121.083)"/><path class="c" d="M80.051,3.075c-.281,1.957-2.54,4.242-3.132,4.713C77.251,6.556,75.3,4.066,75.67,2.21A2.389,2.389,0,0,1,78.37.037C79.589.274,80.273,1.509,80.051,3.075Z" transform="translate(-53.236 0.002)"/><path class="a" d="M21.565,27.205a2.919,2.919,0,0,1,1.211.7c3.526,2.276,5.207,1.779,7.078-.409l.1-.095c.628-.71,1.217-1.415,1.08-1.365-1.382.524-5.133-.332-6.672-.722a15.186,15.186,0,0,0-3.73-.444,12.648,12.648,0,0,0-8.922,3.153A8.974,8.974,0,0,1,21.565,27.205Z" transform="translate(-8.242 -17.506)"/><path class="a" d="M13.317,30.133a8.953,8.953,0,0,0-9.84.808c0,.018-.036.03-.053.047A10.337,10.337,0,0,0,0,38.872a12.137,12.137,0,0,0,.246,2.481c1.377-4.171,4.393-6.785,8.141-5.624a12.708,12.708,0,0,1,.87-3.256q1.083-2.478,3.191-2.478a3.12,3.12,0,0,1,.921.136Z" transform="translate(0.006 -20.435)"/><path class="a" d="M58.232,38.856A10.917,10.917,0,0,0,55.4,34.88l-.059.033c-1.7,1.735-3.378,1.974-6.613-.11-.05-.047-.1-.089-.154-.133a4.757,4.757,0,0,1,1.261,1.776,16.192,16.192,0,0,1,1.08,6.382c0,.5-.018.983-.044,1.453,3.088,1.11,5.823.8,7.3-1.945A4.166,4.166,0,0,0,58.232,38.856Z" transform="translate(-34.19 -24.406)"/><path class="a" d="M26.018,122.184a4.329,4.329,0,0,0-1.776-1.705c-5.891-2.043-8.9,4.245-15.165,4.245-3.123,0-5.083-.974-6.216-2.386.962,2.448,3.268,3.632,7.146,3.632h9.769a3.739,3.739,0,0,1,2.368.728,2.436,2.436,0,0,1,.82,1.977c0,2.717-2.072,4.517-1.024,3.807a9.372,9.372,0,0,0,4.609-7.735,5.947,5.947,0,0,0-.53-2.564Z" transform="translate(-2.012 -84.526)"/><path class="a" d="M11.945,100.562a2.323,2.323,0,0,1-2.072-2.555q0-1.314,1.847-3.9c-.7-.391-1.24-.1-1.806.474A6.11,6.11,0,0,0,8.458,97.7C8.138,99.8,9.307,100.432,11.945,100.562Z" transform="translate(-5.916 -66.122)"/><path class="a" d="M78.96.036a2.269,2.269,0,0,0-2.51,1.539c.708-.548,1.5-.343,1.6.417.16,1.32.3,2.054,1.163,2.3a1.1,1.1,0,0,0,1.347-.912c.03-.157.065-.343.095-.542A2.385,2.385,0,0,0,78.96.036Z" transform="translate(-53.817 0.003)"/><path class="a" d="M80,6.4a1.1,1.1,0,0,1-1.347.912c-.888-.246-1-.98-1.163-2.3-.1-.761-.888-.962-1.6-.42a3.472,3.472,0,0,0-.2.636c-.367,1.856,1.581,4.346,1.24,5.577.592-.471,2.851-2.756,3.132-4.713V5.943C80.054,6.111,80.028,6.274,80,6.4Z" transform="translate(-53.257 -3.017)"/><path class="a" d="M1.829,73.421a5.382,5.382,0,0,1-.391-.784c1.122,1.412,3.082,2.386,6.216,2.386,6.267,0,9.274-6.288,15.165-4.245A4.148,4.148,0,0,1,24.6,72.483q-1.48-3.132-7.232-3.135H7.6a5.033,5.033,0,0,1-1.184-.13,1.077,1.077,0,0,1,.186.047C3.96,69.135,2.791,68.5,3.11,66.4a6.11,6.11,0,0,1,1.477-3.12c.565-.571,1.11-.864,1.806-.474a13.52,13.52,0,0,0,6.592,1.53,12.632,12.632,0,0,0,8.967-3.191,10.343,10.343,0,0,0,3.428-7.886,10.521,10.521,0,0,0-.687-3.792,4.066,4.066,0,0,1-.118,3.286c-1.48,2.747-4.221,3.055-7.309,1.96h0a14.538,14.538,0,0,1-1.036,4.938q-1.083,2.478-3.191,2.478T9.848,59.644a16.024,16.024,0,0,1-1.08-6.382,21.755,21.755,0,0,1,.21-3.132h0C5.233,48.958,2.217,51.569.84,55.737a9.825,9.825,0,0,0,4.023,6.122q-3.9,4.44-3.9,7.963a6.909,6.909,0,0,0,.867,3.6Z" transform="translate(-0.59 -34.825)"/></g></g></svg>