<svg xmlns="http://www.w3.org/2000/svg" viewBox="0 0 115.656 37.974"><defs><style>.a{fill:#fff;}</style></defs><g transform="translate(-0.001 0.001)"><g transform="translate(0.001 -0.001)"><path class="a" d="M1384.405,464.787h.766v3.926a2.926,2.926,0,0,1-.523,1.855,2.08,2.08,0,0,1-1.741.742,2.383,2.383,0,0,1-1.541-.418,1.722,1.722,0,0,1-.618-1.053h.887a.83.83,0,0,0,.461.6,1.662,1.662,0,0,0,.766.165,1.446,1.446,0,0,0,1.14-.448,1.742,1.742,0,0,0,.4-1.2v-.3a2.138,2.138,0,0,1-1.54.694,2.269,2.269,0,0,1-1.686-.657,2.316,2.316,0,0,1-.653-1.693,2.276,2.276,0,0,1,.66-1.646,2.231,2.231,0,0,1,3.223.018ZM1381.314,467a1.627,1.627,0,0,0,.444,1.175,1.52,1.52,0,0,0,1.147.461,1.433,1.433,0,0,0,1.071-.492,1.556,1.556,0,0,0,.461-1.1,1.64,1.64,0,0,0-.452-1.14,1.431,1.431,0,0,0-1.1-.5,1.5,1.5,0,0,0-1.11.472A1.543,1.543,0,0,0,1381.314,467Z" transform="translate(-1287.422 -433.336)"/><path class="a" d="M1465.027,469.865h-.757V465.4h.705v.574a1.333,1.333,0,0,1,1.071-.653v.792q-1.018,0-1.019,1.256Z" transform="translate(-1365.52 -433.939)"/><path class="a" d="M1500.8,466.456a2.388,2.388,0,0,1-.679,1.686,2.176,2.176,0,0,1-1.646.722,2.221,2.221,0,0,1-1.646-.692,2.285,2.285,0,0,1-.679-1.658,2.387,2.387,0,0,1,.67-1.672,2.122,2.122,0,0,1,1.611-.722,2.319,2.319,0,0,1,1.658.692A2.226,2.226,0,0,1,1500.8,466.456Zm-3.857.057a1.612,1.612,0,0,0,.436,1.135,1.5,1.5,0,0,0,2.189,0,1.7,1.7,0,0,0,0-2.283,1.452,1.452,0,0,0-1.11-.472,1.394,1.394,0,0,0-1.084.48A1.652,1.652,0,0,0,1496.939,466.513Z" transform="translate(-1395.247 -432.82)"/><path class="a" d="M1579.553,466.49v4.467h-.731v-.567a1.555,1.555,0,0,1-1.236.662,1.637,1.637,0,0,1-1.349-.566,2.169,2.169,0,0,1-.427-1.428V466.49h.749v2.342q0,1.488,1.07,1.488a.941.941,0,0,0,.918-.453,2.94,2.94,0,0,0,.239-1.332V466.49Z" transform="translate(-1469.538 -435.03)"/><path class="a" d="M1648.371,469.615a2.236,2.236,0,0,1-1.6-.7v2.533H1646v-6.416h.766v.6a2.141,2.141,0,0,1,1.541-.7,2.371,2.371,0,0,1,1.687,4.006A2.179,2.179,0,0,1,1648.371,469.615Zm-1.638-2.368a1.639,1.639,0,0,0,.452,1.146,1.438,1.438,0,0,0,1.1.492,1.5,1.5,0,0,0,1.114-.472,1.551,1.551,0,0,0,.461-1.123,1.618,1.618,0,0,0-.457-1.158,1.5,1.5,0,0,0-1.127-.479,1.439,1.439,0,0,0-1.079.488A1.565,1.565,0,0,0,1646.733,467.247Z" transform="translate(-1534.995 -433.585)"/><path class="a" d="M79.322,288.281h0A5.983,5.983,0,0,1,68.344,284.5h0l-2.221-.195h0a8.211,8.211,0,0,0,15.069,5.184Z" transform="translate(-61.634 -265.136)"/><path class="a" d="M2.28,132.641a10.44,10.44,0,0,1,6.326-8.694H8.592L7.72,121.89a12.668,12.668,0,0,0,3.848,24.282h0l.195-2.23h0A10.443,10.443,0,0,1,2.28,132.641Z" transform="translate(-0.001 -113.67)"/><path class="a" d="M173.06,86.473h0a5.983,5.983,0,0,0,1.012-11.566h0L174.8,72.8h0a8.211,8.211,0,0,1-1.389,15.875Z" transform="translate(-161.389 -67.89)"/><path class="a" d="M43.033,2.806A10.441,10.441,0,0,0,32.517,5.05l.007-.011L31,3.4A12.667,12.667,0,0,1,51.618,16.791h0L49.5,16.063h0A10.442,10.442,0,0,0,43.033,2.806Z" transform="translate(-28.909 0.001)"/><path class="a" d="M470.11,46v2.747h-2.36V46Zm0,20.409h-2.36V52.06h2.36Z" transform="translate(-436.205 -42.898)"/><path class="a" d="M551.467,145.906H549V131.5h2.36v1.8a5.367,5.367,0,0,1,4.181-2.049q5.811,0,5.811,6.413V145.9h-2.447v-7.679q0-4.642-3.621-4.643a3.219,3.219,0,0,0-3.17,1.857,9.234,9.234,0,0,0-.645,3.911Z" transform="translate(-511.976 -122.398)"/><path class="a" d="M779.815,139.185h2.7q-1.853,5.193-6.99,5.193a7.105,7.105,0,0,1-5.334-2.176,7.978,7.978,0,0,1,.039-10.85,7.3,7.3,0,0,1,5.4-2.161,6.947,6.947,0,0,1,4.282,1.333,7.527,7.527,0,0,1,2.6,3.72h-2.7a4.412,4.412,0,0,0-4.408-2.7,4.328,4.328,0,0,0-3.424,1.558,5.432,5.432,0,0,0-1.349,3.663,5.335,5.335,0,0,0,1.349,3.677,4.5,4.5,0,0,0,3.537,1.6A4.135,4.135,0,0,0,779.815,139.185Z" transform="translate(-716.281 -120.477)"/><path class="a" d="M1262.527,49.666h-2.36V47.643a6.865,6.865,0,0,1-5.053,2.33,7.561,7.561,0,0,1-5.39-12.826,7.188,7.188,0,0,1,10.359.028V28.05h2.443Zm-12.38-7.242a5.175,5.175,0,0,0,1.474,3.705,4.832,4.832,0,0,0,3.635,1.544,4.58,4.58,0,0,0,3.44-1.572,5.035,5.035,0,0,0,1.473-3.537,5.261,5.261,0,0,0-1.445-3.677,4.606,4.606,0,0,0-3.523-1.572,4.827,4.827,0,0,0-3.58,1.5A4.969,4.969,0,0,0,1250.147,42.423Z" transform="translate(-1163.453 -26.158)"/><path class="a" d="M1065.834,170.965a5.355,5.355,0,0,1,.825,2.952,5.193,5.193,0,0,1-1.416,3.646,4.6,4.6,0,0,1-3.522,1.536,4.789,4.789,0,0,1-2.2-.505l-1.577,1.9a7.217,7.217,0,0,0,3.781,1.016,7.014,7.014,0,0,0,5.306-2.33,7.7,7.7,0,0,0,2.19-5.446,7.036,7.036,0,0,0-1.758-4.726Z" transform="translate(-986.593 -157.612)"/><path class="a" d="M1006.181,138.034a5.28,5.28,0,0,1-.767-2.821,5.337,5.337,0,0,1,1.389-3.688,4.5,4.5,0,0,1,3.5-1.551,4.923,4.923,0,0,1,2.167.472l1.574-1.9a7.27,7.27,0,0,0-3.825-1.045,6.828,6.828,0,0,0-5.193,2.33,7.71,7.71,0,0,0-2.162,5.391,7.311,7.311,0,0,0,1.686,4.784Z" transform="translate(-935.228 -118.906)"/><path class="a" d="M1507.9,139.708a5.168,5.168,0,0,1-.651.95,4.539,4.539,0,0,1-3.013,1.613,5.407,5.407,0,0,1-3.452-.762l7.971-9.288a10.96,10.96,0,0,0-3.095-1.956,6.937,6.937,0,0,0-8.186,2.037,7.009,7.009,0,0,0-1.716,5.446,7.714,7.714,0,0,0,8.147,6.975,7.068,7.068,0,0,0,5.134-2.527,7.658,7.658,0,0,0,1.467-2.486Zm-9.733-2.872a4.648,4.648,0,0,1,1.2-3.022q2.3-2.685,5.993-1.035l-6.217,7.243A5.5,5.5,0,0,1,1498.162,136.836Z" transform="translate(-1394.844 -120.953)"/></g></g></svg>