<svg xmlns="http://www.w3.org/2000/svg" viewBox="0 0 99.124 58.375"><defs><style>.a{fill:#fff;}.b{fill:#161616;}.c{opacity:0.35;}.d{fill:#1d1d1b;}</style></defs><rect class="a" width="99.124" height="58.375" rx="4.25"/><path class="b" d="M63.49,41.84H72.7V71.577H63.49Z" transform="translate(-49.99 -32.943)"/><path class="b" d="M130.54,61.794l8.792-.017a4.7,4.7,0,0,0,1.1,2.715,4.858,4.858,0,0,0,4.057,1.8,4.489,4.489,0,0,0,3.032-.921,2.756,2.756,0,0,0,1.063-2.141,2.726,2.726,0,0,0-1.014-2.067q-1.014-.912-4.706-1.727-6.043-1.354-8.62-3.615a7.353,7.353,0,0,1-2.594-5.741,7.81,7.81,0,0,1,1.323-4.325,8.806,8.806,0,0,1,4-3.2,18.671,18.671,0,0,1,7.31-1.165q5.7,0,8.692,2.126a8.964,8.964,0,0,1,3.56,6.743H147.9a3.4,3.4,0,0,0-1.478-2.416,4.662,4.662,0,0,0-3.053-.912,3.672,3.672,0,0,0-2.409.678,2.075,2.075,0,0,0-.814,1.652,1.654,1.654,0,0,0,.67,1.276,7.457,7.457,0,0,0,3.081,1.1,38.54,38.54,0,0,1,8.635,2.626,9.06,9.06,0,0,1,3.791,3.3,8.339,8.339,0,0,1,1.187,4.4,9.411,9.411,0,0,1-1.584,5.273,9.915,9.915,0,0,1-4.421,3.664,17.846,17.846,0,0,1-7.155,1.246q-7.585,0-10.5-2.922A11.532,11.532,0,0,1,130.54,61.794Z" transform="translate(-102.783 -32.589)"/><path class="b" d="M279.45,41.84H293.1a16.36,16.36,0,0,1,6.519,1.1,10.587,10.587,0,0,1,4.106,3.145,13.007,13.007,0,0,1,2.356,4.765,22.208,22.208,0,0,1,.727,5.76,20.015,20.015,0,0,1-1.084,7.4,12.2,12.2,0,0,1-3.011,4.4,9.845,9.845,0,0,1-4.138,2.365,21.37,21.37,0,0,1-5.475.812H279.45Zm9.19,6.736V64.822h2.252a9.514,9.514,0,0,0,4.1-.638,4.372,4.372,0,0,0,1.914-2.231,13.793,13.793,0,0,0,.689-5.163q0-4.727-1.539-6.47t-5.114-1.741Z" transform="translate(-220.029 -32.943)"/><g class="c" transform="translate(13.683 46.448)"><path class="d" d="M64.35,223.543v-5.1h1.029v5.1Z" transform="translate(-64.35 -218.44)"/></g><path class="b" d="M64.35,223.263v-5.1h1.029v5.1Z" transform="translate(-50.667 -171.772)"/><g class="c" transform="translate(15.858 47.772)"><path class="d" d="M77.946,228.447h-.978v-1.886a2.79,2.79,0,0,0-.064-.774.553.553,0,0,0-.213-.274.606.606,0,0,0-.34-.1.8.8,0,0,0-.455.14.7.7,0,0,0-.274.37,3.107,3.107,0,0,0-.077.851v1.676H74.58v-3.7h.906v.542a1.514,1.514,0,0,1,1.81-.508.953.953,0,0,1,.4.3,1.063,1.063,0,0,1,.189.41,2.764,2.764,0,0,1,.057.657Z" transform="translate(-74.58 -224.669)"/></g><path class="b" d="M77.946,228.168h-.978V226.28a2.764,2.764,0,0,0-.064-.772.534.534,0,0,0-.213-.274.589.589,0,0,0-.34-.1.778.778,0,0,0-.455.14.7.7,0,0,0-.274.37,3.1,3.1,0,0,0-.077.851v1.676H74.58v-3.7h.906v.542a1.489,1.489,0,0,1,1.216-.625,1.463,1.463,0,0,1,.593.117.968.968,0,0,1,.4.3,1.063,1.063,0,0,1,.189.413,2.743,2.743,0,0,1,.057.657Z" transform="translate(-58.722 -176.676)"/><g class="c" transform="translate(19.964 46.364)"><path class="d" d="M93.89,219.537h.542v-.276a1.812,1.812,0,0,1,.1-.7.768.768,0,0,1,.364-.372,1.4,1.4,0,0,1,.672-.145,2.737,2.737,0,0,1,.817.125l-.132.683a1.855,1.855,0,0,0-.449-.057.4.4,0,0,0-.3.1.574.574,0,0,0-.091.378v.262h.729v.77H95.4v2.926h-.978v-2.926H93.89Z" transform="translate(-93.89 -218.046)"/></g><path class="b" d="M93.89,219.25h.542v-.276a1.812,1.812,0,0,1,.1-.7.759.759,0,0,1,.364-.372,1.4,1.4,0,0,1,.672-.147,2.808,2.808,0,0,1,.817.125l-.132.685a1.756,1.756,0,0,0-.449-.057.4.4,0,0,0-.3.1.568.568,0,0,0-.091.379v.262h.729v.77H95.4v2.926h-.978V220.02H93.89Z" transform="translate(-73.926 -171.454)"/><g class="c" transform="translate(22.715 47.771)"><path class="d" d="M106.826,226.543a1.992,1.992,0,0,1,.24-.94,1.652,1.652,0,0,1,.678-.7,2.009,2.009,0,0,1,.984-.24,1.829,1.829,0,0,1,1.369.546,1.865,1.865,0,0,1,.538,1.374,1.914,1.914,0,0,1-.54,1.391,1.833,1.833,0,0,1-1.361.549,2.143,2.143,0,0,1-.97-.228,1.557,1.557,0,0,1-.7-.674A2.246,2.246,0,0,1,106.826,226.543Zm1,.053a1.229,1.229,0,0,0,.262.851.851.851,0,0,0,1.276,0,1.25,1.25,0,0,0,.259-.851,1.212,1.212,0,0,0-.259-.834.851.851,0,0,0-1.276,0A1.216,1.216,0,0,0,107.828,226.6Z" transform="translate(-106.825 -224.665)"/></g><path class="b" d="M106.828,226.263a2,2,0,0,1,.24-.942,1.646,1.646,0,0,1,.678-.7,2.009,2.009,0,0,1,.984-.24,1.835,1.835,0,0,1,1.369.544,1.873,1.873,0,0,1,.538,1.376,1.914,1.914,0,0,1-.54,1.389,1.833,1.833,0,0,1-1.361.549,2.171,2.171,0,0,1-.97-.225,1.567,1.567,0,0,1-.691-.674A2.252,2.252,0,0,1,106.828,226.263Zm1,.053a1.233,1.233,0,0,0,.262.851.851.851,0,0,0,1.276,0,1.255,1.255,0,0,0,.259-.851,1.218,1.218,0,0,0-.259-.834.851.851,0,0,0-1.276,0,1.225,1.225,0,0,0-.262.834Z" transform="translate(-84.112 -176.673)"/><g class="c" transform="translate(27.43 47.772)"><path class="d" d="M129.974,228.448H129v-3.7h.908v.525a1.565,1.565,0,0,1,.425-.489.772.772,0,0,1,.425-.119,1.238,1.238,0,0,1,.638.185l-.3.851a.85.85,0,0,0-.459-.159.538.538,0,0,0-.347.111.77.77,0,0,0-.225.408,5.87,5.87,0,0,0-.083,1.24Z" transform="translate(-129 -224.669)"/></g><path class="b" d="M129.974,228.168H129v-3.7h.908V225a1.539,1.539,0,0,1,.425-.489.755.755,0,0,1,.425-.119,1.238,1.238,0,0,1,.638.185l-.3.851a.85.85,0,0,0-.459-.159.538.538,0,0,0-.359.1.761.761,0,0,0-.213.425,5.861,5.861,0,0,0-.083,1.238Z" transform="translate(-101.57 -176.676)"/><g class="c" transform="translate(30.345 47.772)"><path class="d" d="M142.71,224.751h.912v.5a1.452,1.452,0,0,1,1.148-.587,1.244,1.244,0,0,1,.619.147,1.116,1.116,0,0,1,.425.44,1.752,1.752,0,0,1,.525-.44,1.4,1.4,0,0,1,1.291.021.984.984,0,0,1,.425.485,2.062,2.062,0,0,1,.1.763v2.362h-.974v-2.114a1.533,1.533,0,0,0-.1-.708.461.461,0,0,0-.425-.213.668.668,0,0,0-.385.128.693.693,0,0,0-.262.366,2.647,2.647,0,0,0-.081.763v1.775h-.976v-2.026a2.8,2.8,0,0,0-.053-.693.425.425,0,0,0-.162-.234.519.519,0,0,0-.3-.079.706.706,0,0,0-.408.123.678.678,0,0,0-.259.351,2.633,2.633,0,0,0-.079.761v1.8h-.976Z" transform="translate(-142.71 -224.668)"/></g><path class="b" d="M142.71,224.472h.912v.5a1.448,1.448,0,0,1,1.148-.587,1.276,1.276,0,0,1,.619.145,1.138,1.138,0,0,1,.425.442,1.793,1.793,0,0,1,.525-.442,1.42,1.42,0,0,1,1.291.021,1,1,0,0,1,.425.485,2.082,2.082,0,0,1,.1.765v2.362h-.974v-2.114a1.533,1.533,0,0,0-.1-.708.457.457,0,0,0-.425-.213.665.665,0,0,0-.385.125.706.706,0,0,0-.262.368,2.647,2.647,0,0,0-.081.763v1.775h-.976v-2.026a2.839,2.839,0,0,0-.053-.7.425.425,0,0,0-.162-.232.5.5,0,0,0-.3-.079.706.706,0,0,0-.408.123.683.683,0,0,0-.259.349,2.659,2.659,0,0,0-.079.763v1.8h-.976Z" transform="translate(-112.365 -176.676)"/><g class="c" transform="translate(36.679 47.768)"><path class="d" d="M173.477,225.867l-.887-.162a1.4,1.4,0,0,1,.515-.791,1.88,1.88,0,0,1,1.084-.259,2.373,2.373,0,0,1,.976.155.984.984,0,0,1,.449.393,2.015,2.015,0,0,1,.13.874v1.14a3.923,3.923,0,0,0,.047.719,2.086,2.086,0,0,0,.174.5H175c-.023-.068-.053-.164-.091-.291-.017-.057-.028-.1-.036-.115a1.76,1.76,0,0,1-.534.366,1.594,1.594,0,0,1-.61.121,1.263,1.263,0,0,1-.9-.308,1.04,1.04,0,0,1-.327-.783,1.063,1.063,0,0,1,.149-.557,1.012,1.012,0,0,1,.425-.378,3.491,3.491,0,0,1,.78-.225,5.119,5.119,0,0,0,.948-.242v-.1a.517.517,0,0,0-.138-.4.825.825,0,0,0-.525-.121.683.683,0,0,0-.406.106A.691.691,0,0,0,173.477,225.867Zm1.308.791a5.622,5.622,0,0,1-.6.151,1.876,1.876,0,0,0-.532.168.408.408,0,0,0-.189.347.478.478,0,0,0,.151.353.536.536,0,0,0,.391.151.85.85,0,0,0,.5-.174.6.6,0,0,0,.234-.325,1.912,1.912,0,0,0,.038-.476Z" transform="translate(-172.499 -224.651)"/></g><path class="b" d="M173.446,225.587l-.887-.162a1.4,1.4,0,0,1,.515-.793,1.9,1.9,0,0,1,1.084-.257,2.373,2.373,0,0,1,.976.155.974.974,0,0,1,.449.393,2,2,0,0,1,.13.874v1.14a3.935,3.935,0,0,0,.047.719,2.127,2.127,0,0,0,.174.5h-.967c-.023-.068-.053-.164-.091-.291-.017-.057-.028-.1-.036-.115a1.753,1.753,0,0,1-.542.372,1.554,1.554,0,0,1-.61.121,1.261,1.261,0,0,1-.9-.306,1.044,1.044,0,0,1-.327-.782,1.078,1.078,0,0,1,.149-.559,1.006,1.006,0,0,1,.425-.376,3.368,3.368,0,0,1,.78-.228,5.166,5.166,0,0,0,.948-.24v-.1a.51.51,0,0,0-.138-.4.825.825,0,0,0-.525-.121.6.6,0,0,0-.638.466Zm1.308.791c-.125.04-.323.091-.6.151a1.808,1.808,0,0,0-.532.168.408.408,0,0,0-.189.345.485.485,0,0,0,.151.355.536.536,0,0,0,.391.151.851.851,0,0,0,.5-.174.6.6,0,0,0,.234-.325,1.915,1.915,0,0,0,.038-.476Z" transform="translate(-135.788 -176.662)"/><g class="c" transform="translate(40.673 46.552)"><path class="d" d="M193.368,220.233v.78h-.659V222.5a3.369,3.369,0,0,0,.019.527.213.213,0,0,0,.085.123.285.285,0,0,0,.164.049,1.2,1.2,0,0,0,.4-.1l.081.759a1.886,1.886,0,0,1-.772.147,1.183,1.183,0,0,1-.476-.087.691.691,0,0,1-.31-.23.918.918,0,0,1-.138-.381,4.673,4.673,0,0,1-.032-.689v-1.61h-.447v-.78h.447V219.5l.982-.572v1.306Z" transform="translate(-191.28 -218.93)"/></g><path class="b" d="M193.368,219.961v.78h-.659v1.488a3.385,3.385,0,0,0,.019.529.213.213,0,0,0,.085.123.285.285,0,0,0,.164.049,1.25,1.25,0,0,0,.4-.1l.081.759a1.914,1.914,0,0,1-.772.145,1.218,1.218,0,0,1-.476-.085.681.681,0,0,1-.31-.232.9.9,0,0,1-.138-.381,4.62,4.62,0,0,1-.032-.687v-1.61h-.447v-.78h.447v-.736l.982-.57v1.306Z" transform="translate(-150.607 -172.165)"/><g class="c" transform="translate(43.616 46.452)"><path class="d" d="M205.12,219.364v-.9h.98v.9Zm0,4.2v-3.7h.98v3.7Z" transform="translate(-205.12 -218.46)"/></g><path class="b" d="M205.12,219.076v-.906h.98v.906Zm0,4.2v-3.7h.98v3.7Z" transform="translate(-161.504 -171.78)"/><g class="c" transform="translate(45.545 47.771)"><path class="d" d="M214.2,226.543a1.993,1.993,0,0,1,.24-.94,1.633,1.633,0,0,1,.68-.7,2,2,0,0,1,.982-.24,1.841,1.841,0,0,1,1.374.546,1.871,1.871,0,0,1,.534,1.374,1.914,1.914,0,0,1-.54,1.391,1.824,1.824,0,0,1-1.359.549,2.148,2.148,0,0,1-.972-.227,1.568,1.568,0,0,1-.7-.674A2.246,2.246,0,0,1,214.2,226.543Zm1,.053a1.229,1.229,0,0,0,.262.851.851.851,0,0,0,1.276,0A1.25,1.25,0,0,0,217,226.6a1.212,1.212,0,0,0-.262-.834.851.851,0,0,0-1.276,0A1.216,1.216,0,0,0,215.2,226.6Z" transform="translate(-214.195 -224.665)"/></g><path class="b" d="M214.2,226.264a2,2,0,0,1,.24-.942,1.626,1.626,0,0,1,.68-.7,2,2,0,0,1,.982-.24,1.848,1.848,0,0,1,1.374.544,1.88,1.88,0,0,1,.534,1.376,1.914,1.914,0,0,1-.54,1.389,1.824,1.824,0,0,1-1.359.549,2.173,2.173,0,0,1-.972-.225,1.578,1.578,0,0,1-.7-.674A2.252,2.252,0,0,1,214.2,226.264Zm1,.053a1.233,1.233,0,0,0,.262.851.851.851,0,0,0,1.276,0,1.257,1.257,0,0,0,.262-.851,1.22,1.22,0,0,0-.262-.834.851.851,0,0,0-1.276,0,1.225,1.225,0,0,0-.262.834Z" transform="translate(-168.65 -176.673)"/><g class="c" transform="translate(50.286 47.773)"><path class="d" d="M239.865,228.448h-.978v-1.886a2.911,2.911,0,0,0-.062-.774.555.555,0,0,0-.213-.274.6.6,0,0,0-.338-.1.785.785,0,0,0-.455.14.683.683,0,0,0-.276.37,3.107,3.107,0,0,0-.077.851v1.676h-.976v-3.7h.908v.542a1.512,1.512,0,0,1,1.807-.508.959.959,0,0,1,.406.3,1.087,1.087,0,0,1,.191.41,3.192,3.192,0,0,1,.053.657Z" transform="translate(-236.49 -224.67)"/></g><path class="b" d="M239.865,228.168h-.978V226.28a2.879,2.879,0,0,0-.062-.772.538.538,0,0,0-.213-.274.583.583,0,0,0-.338-.1.77.77,0,0,0-.455.14.683.683,0,0,0-.276.37,3.1,3.1,0,0,0-.077.851v1.676h-.976v-3.7h.908v.542a1.476,1.476,0,0,1,1.214-.625,1.456,1.456,0,0,1,.593.117.974.974,0,0,1,.406.3,1.1,1.1,0,0,1,.191.413,3.18,3.18,0,0,1,.053.657Z" transform="translate(-186.204 -176.676)"/><g class="c" transform="translate(56.731 46.379)"><path class="d" d="M266.8,221.627l1-.1a1.212,1.212,0,0,0,.368.738,1.1,1.1,0,0,0,.746.238,1.136,1.136,0,0,0,.746-.213.617.617,0,0,0,.255-.491.466.466,0,0,0-.1-.31.83.83,0,0,0-.37-.213q-.181-.064-.823-.213a2.788,2.788,0,0,1-1.163-.5,1.325,1.325,0,0,1-.47-1.025,1.308,1.308,0,0,1,.213-.729,1.406,1.406,0,0,1,.638-.517,2.53,2.53,0,0,1,1-.176,2.146,2.146,0,0,1,1.446.425,1.489,1.489,0,0,1,.508,1.121l-1.031.045a.85.85,0,0,0-.283-.563,1.027,1.027,0,0,0-.649-.174,1.184,1.184,0,0,0-.7.185.374.374,0,0,0-.166.317.4.4,0,0,0,.153.308,2.635,2.635,0,0,0,.946.34,5.317,5.317,0,0,1,1.112.368,1.461,1.461,0,0,1,.564.519,1.527,1.527,0,0,1,.213.81,1.489,1.489,0,0,1-.242.823,1.439,1.439,0,0,1-.7.555,2.892,2.892,0,0,1-1.108.185,2.252,2.252,0,0,1-1.488-.444A1.961,1.961,0,0,1,266.8,221.627Z" transform="translate(-266.8 -218.115)"/></g><path class="b" d="M266.8,221.337l1-.1a1.225,1.225,0,0,0,.368.74,1.108,1.108,0,0,0,.746.238,1.148,1.148,0,0,0,.746-.213.619.619,0,0,0,.255-.493.474.474,0,0,0-.108-.308.851.851,0,0,0-.37-.213c-.121-.043-.4-.115-.823-.213a2.785,2.785,0,0,1-1.163-.506,1.32,1.32,0,0,1-.47-1.023,1.3,1.3,0,0,1,.213-.729,1.39,1.39,0,0,1,.638-.517,2.528,2.528,0,0,1,1-.179,2.146,2.146,0,0,1,1.446.425,1.489,1.489,0,0,1,.508,1.121l-1.031.047a.85.85,0,0,0-.283-.563,1.027,1.027,0,0,0-.649-.174,1.2,1.2,0,0,0-.7.183.376.376,0,0,0-.166.319.4.4,0,0,0,.153.308,2.679,2.679,0,0,0,.946.34,5.076,5.076,0,0,1,1.112.368,1.443,1.443,0,0,1,.563.519,1.526,1.526,0,0,1,.213.81,1.5,1.5,0,0,1-.242.823,1.45,1.45,0,0,1-.691.568,2.892,2.892,0,0,1-1.108.185,2.253,2.253,0,0,1-1.488-.444A1.961,1.961,0,0,1,266.8,221.337Z" transform="translate(-210.069 -171.508)"/><g class="c" transform="translate(61.451 47.856)"><path class="d" d="M289,225.06h1.042l.872,2.622.863-2.622h1.012l-1.3,3.555-.234.638a2.831,2.831,0,0,1-.242.5,1.146,1.146,0,0,1-.268.276,1.223,1.223,0,0,1-.372.164,2,2,0,0,1-.5.06,2.635,2.635,0,0,1-.553-.06l-.087-.763a2.4,2.4,0,0,0,.413.045.615.615,0,0,0,.506-.2,1.339,1.339,0,0,0,.247-.512Z" transform="translate(-289 -225.06)"/></g><path class="b" d="M289,224.78h1.042l.872,2.622.863-2.622h1.012l-1.3,3.553-.234.638a2.763,2.763,0,0,1-.242.5,1.157,1.157,0,0,1-.268.279,1.221,1.221,0,0,1-.372.164,2,2,0,0,1-.5.057,2.634,2.634,0,0,1-.553-.057l-.087-.765a2.212,2.212,0,0,0,.413.045.619.619,0,0,0,.506-.2,1.371,1.371,0,0,0,.247-.512Z" transform="translate(-227.549 -176.984)"/><g class="c" transform="translate(65.704 47.759)"><path class="d" d="M309,227.342l.98-.149a.7.7,0,0,0,.255.425.851.851,0,0,0,.534.149.97.97,0,0,0,.572-.14.315.315,0,0,0,.128-.262.283.283,0,0,0-.068-.185.829.829,0,0,0-.33-.128,5.064,5.064,0,0,1-1.488-.476.948.948,0,0,1-.438-.831,1.021,1.021,0,0,1,.378-.808,1.788,1.788,0,0,1,1.178-.325,2.029,2.029,0,0,1,1.123.249,1.233,1.233,0,0,1,.506.729l-.916.168a.585.585,0,0,0-.227-.327.808.808,0,0,0-.485-.1,1.025,1.025,0,0,0-.551.108.228.228,0,0,0-.113.2.213.213,0,0,0,.1.176,3.541,3.541,0,0,0,.912.274,2.721,2.721,0,0,1,1.091.425.906.906,0,0,1,.308.727,1.121,1.121,0,0,1-.425.872,1.88,1.88,0,0,1-1.257.366,2.043,2.043,0,0,1-1.2-.306A1.4,1.4,0,0,1,309,227.342Z" transform="translate(-309 -224.607)"/></g><path class="b" d="M309,227.063l.98-.149a.706.706,0,0,0,.255.425.85.85,0,0,0,.534.147.955.955,0,0,0,.572-.14.313.313,0,0,0,.128-.259.278.278,0,0,0-.068-.185.8.8,0,0,0-.33-.128,5.064,5.064,0,0,1-1.488-.476.948.948,0,0,1-.438-.831,1.019,1.019,0,0,1,.378-.808,1.788,1.788,0,0,1,1.178-.325,2.048,2.048,0,0,1,1.123.247,1.24,1.24,0,0,1,.506.729l-.917.17a.589.589,0,0,0-.228-.33.808.808,0,0,0-.472-.113,1.049,1.049,0,0,0-.551.106.232.232,0,0,0-.113.2.213.213,0,0,0,.1.176,3.594,3.594,0,0,0,.912.276,2.69,2.69,0,0,1,1.091.425.906.906,0,0,1,.308.727,1.121,1.121,0,0,1-.425.872,1.893,1.893,0,0,1-1.257.364,2.044,2.044,0,0,1-1.2-.3A1.4,1.4,0,0,1,309,227.063Z" transform="translate(-243.296 -176.628)"/><g class="c" transform="translate(69.785 46.552)"><path class="d" d="M330.291,220.233v.78h-.668V222.5a3.88,3.88,0,0,0,.017.527.2.2,0,0,0,.087.123.272.272,0,0,0,.164.049,1.2,1.2,0,0,0,.393-.1l.083.759a1.9,1.9,0,0,1-.77.147,1.185,1.185,0,0,1-.478-.087.717.717,0,0,1-.31-.23.919.919,0,0,1-.136-.381,4.58,4.58,0,0,1-.034-.689v-1.61h-.449v-.78h.449V219.5l.984-.572v1.306Z" transform="translate(-328.19 -218.93)"/></g><path class="b" d="M330.291,219.914v.78h-.668v1.488a3.893,3.893,0,0,0,.017.529.213.213,0,0,0,.087.123.272.272,0,0,0,.164.049,1.256,1.256,0,0,0,.393-.1l.083.759a1.933,1.933,0,0,1-.77.145,1.223,1.223,0,0,1-.478-.085.7.7,0,0,1-.31-.245.9.9,0,0,1-.136-.381,4.528,4.528,0,0,1-.034-.687v-1.61h-.449v-.78h.449v-.736l.984-.57v1.306Z" transform="translate(-258.406 -172.118)"/><g class="c" transform="translate(72.452 47.769)"><path class="d" d="M343.157,227.256l.974.166a1.591,1.591,0,0,1-.591.814,1.716,1.716,0,0,1-1.012.279,1.664,1.664,0,0,1-1.425-.627,2.1,2.1,0,0,1-.366-1.276,2.041,2.041,0,0,1,.478-1.437,1.586,1.586,0,0,1,1.212-.521,1.644,1.644,0,0,1,1.3.546,2.413,2.413,0,0,1,.455,1.665h-2.447a1.006,1.006,0,0,0,.234.678.746.746,0,0,0,.564.24.589.589,0,0,0,.387-.125.755.755,0,0,0,.234-.4Zm.06-.987a.929.929,0,0,0-.213-.638.7.7,0,0,0-1.033.011.908.908,0,0,0-.213.638Z" transform="translate(-340.733 -224.651)"/></g><path class="b" d="M343.157,226.968l.974.164a1.588,1.588,0,0,1-.591.817,1.731,1.731,0,0,1-1.012.276,1.664,1.664,0,0,1-1.425-.627,2.088,2.088,0,0,1-.366-1.276,2.041,2.041,0,0,1,.478-1.437,1.58,1.58,0,0,1,1.212-.521,1.65,1.65,0,0,1,1.3.544,2.4,2.4,0,0,1,.455,1.665h-2.447a1,1,0,0,0,.234.678.74.74,0,0,0,.563.24.6.6,0,0,0,.387-.123A.755.755,0,0,0,343.157,226.968Zm.06-.987a.94.94,0,0,0-.213-.638.7.7,0,0,0-1.033.013.9.9,0,0,0-.213.638Z" transform="translate(-268.282 -176.655)"/><g class="c" transform="translate(76.806 47.772)"><path class="d" d="M361.21,224.75h.9v.5a1.461,1.461,0,0,1,1.152-.587,1.229,1.229,0,0,1,.615.147,1.093,1.093,0,0,1,.425.44,1.777,1.777,0,0,1,.525-.44,1.276,1.276,0,0,1,.6-.147,1.31,1.31,0,0,1,.687.168.984.984,0,0,1,.425.485,2.062,2.062,0,0,1,.1.763v2.362h-.974v-2.114a1.571,1.571,0,0,0-.1-.708.466.466,0,0,0-.425-.213.676.676,0,0,0-.389.128.713.713,0,0,0-.259.366,2.648,2.648,0,0,0-.081.763v1.775h-.97v-2.026a2.843,2.843,0,0,0-.051-.693.451.451,0,0,0-.162-.234.534.534,0,0,0-.3-.079.7.7,0,0,0-.406.123.653.653,0,0,0-.257.351,2.633,2.633,0,0,0-.079.761v1.8h-.976Z" transform="translate(-361.21 -224.667)"/></g><path class="b" d="M361.21,224.47h.9v.5a1.454,1.454,0,0,1,1.152-.587,1.25,1.25,0,0,1,.615.145,1.114,1.114,0,0,1,.425.442,1.82,1.82,0,0,1,.525-.442,1.309,1.309,0,0,1,.6-.145,1.331,1.331,0,0,1,.687.166,1,1,0,0,1,.425.485,2.082,2.082,0,0,1,.1.765v2.362h-.974v-2.114a1.571,1.571,0,0,0-.1-.708.459.459,0,0,0-.425-.213.672.672,0,0,0-.389.125.727.727,0,0,0-.259.368,2.648,2.648,0,0,0-.081.763v1.776h-.97v-2.026a2.879,2.879,0,0,0-.051-.7.444.444,0,0,0-.162-.232.517.517,0,0,0-.3-.079.7.7,0,0,0-.406.123.657.657,0,0,0-.257.349,2.66,2.66,0,0,0-.079.763v1.8h-.976Z" transform="translate(-284.404 -176.674)"/><g class="c" transform="translate(83.042 47.759)"><path class="d" d="M390.54,227.342l.98-.149a.712.712,0,0,0,.257.425.851.851,0,0,0,.534.149.946.946,0,0,0,.568-.14.306.306,0,0,0,.13-.262.262.262,0,0,0-.068-.185.789.789,0,0,0-.327-.128,5.25,5.25,0,0,1-1.5-.476.948.948,0,0,1-.438-.831,1.036,1.036,0,0,1,.379-.808,1.789,1.789,0,0,1,1.176-.325,2.03,2.03,0,0,1,1.125.249,1.257,1.257,0,0,1,.51.729l-.921.168a.58.58,0,0,0-.225-.327.8.8,0,0,0-.472-.115,1.033,1.033,0,0,0-.553.108.228.228,0,0,0-.108.2.213.213,0,0,0,.1.177,3.537,3.537,0,0,0,.914.274,2.7,2.7,0,0,1,1.087.425.906.906,0,0,1,.308.727,1.114,1.114,0,0,1-.425.872,1.877,1.877,0,0,1-1.255.366,2.044,2.044,0,0,1-1.2-.306A1.416,1.416,0,0,1,390.54,227.342Z" transform="translate(-390.54 -224.607)"/></g><path class="b" d="M390.54,227.062l.98-.149a.719.719,0,0,0,.257.425.851.851,0,0,0,.534.147.931.931,0,0,0,.568-.14.3.3,0,0,0,.13-.259.26.26,0,0,0-.068-.185.759.759,0,0,0-.327-.128,5.25,5.25,0,0,1-1.5-.476.949.949,0,0,1-.438-.831,1.031,1.031,0,0,1,.379-.808,1.789,1.789,0,0,1,1.176-.325,2.052,2.052,0,0,1,1.125.247,1.263,1.263,0,0,1,.51.729l-.921.17a.586.586,0,0,0-.225-.33.8.8,0,0,0-.472-.113,1.064,1.064,0,0,0-.553.106.232.232,0,0,0-.108.2.213.213,0,0,0,.1.176,3.594,3.594,0,0,0,.914.276,2.666,2.666,0,0,1,1.087.425.906.906,0,0,1,.308.727,1.114,1.114,0,0,1-.425.872,1.885,1.885,0,0,1-1.255.364,2.044,2.044,0,0,1-1.2-.3A1.416,1.416,0,0,1,390.54,227.062Z" transform="translate(-307.498 -176.628)"/><g class="c" transform="translate(13.421 42.518)"><rect class="d" width="73.336" height="0.925"/></g><rect class="b" width="73.336" height="0.925" transform="translate(13.421 42.459)"/></svg>