<svg xmlns="http://www.w3.org/2000/svg" viewBox="0 0 69.47 75.27"><defs><style>.a{fill:#fff;}</style></defs><g transform="translate(0 0.052)"><g transform="translate(0 -0.052)"><path class="a" d="M65.706,331.281v-1.245h.372v-1.61h-.372v-1.3h2.419v6.761H66.078v-2.668C65.891,331.217,65.827,331.281,65.706,331.281Zm0-4.157v1.3c-.062.062-.124.062-.187.124a.833.833,0,0,0-.185.622v.124a.835.835,0,0,0,.185.622c.062.062.124.062.187.126v1.245c-.062.062-.124.062-.187.124a.83.83,0,0,0-.185.622V333.9H63.467v-1.556a2.823,2.823,0,0,1,.062-.87c.062-.185.123-.372.311-.434a1.658,1.658,0,0,1,.806-.311,1.35,1.35,0,0,1-.993-.434,3.206,3.206,0,0,1-.185-1.3,1.775,1.775,0,0,1,.559-1.427,3.231,3.231,0,0,1,1.674-.434Zm-5.335,6.637v-.933h.062a.322.322,0,0,0,.247-.123,4.806,4.806,0,0,0,.062-.622v-1.425c-.124.123-.247.185-.372.311V329.8a.655.655,0,0,0,.311-.185,3.435,3.435,0,0,0,.062-.559,1.436,1.436,0,0,0-.124-.681c0-.124-.123-.187-.247-.187v-1.189H60.5a2.754,2.754,0,0,1,1.556.372,1.335,1.335,0,0,1,.622.933,13.446,13.446,0,0,1,.124,2.17v3.412H60.805v-.555A1.443,1.443,0,0,1,60.371,333.761Zm0-6.76v1.178h0a.324.324,0,0,0-.249.124,2.179,2.179,0,0,0-.061.744v.683H58.139V329.3a3.267,3.267,0,0,1,.185-1.245,2.108,2.108,0,0,1,.744-.744,2.694,2.694,0,0,1,1.3-.311Zm0,2.789v1.181c-.124.123-.187.246-.249.311,0,.185-.061.434-.061.744s.061.559.061.683a.322.322,0,0,0,.249.123v.933a.061.061,0,0,1-.062.062,1.319,1.319,0,0,1-.744.187,1.461,1.461,0,0,1-.993-.311c-.311-.187-.434-.622-.434-1.3v-.557a1.553,1.553,0,0,1,.247-1.056,3.209,3.209,0,0,1,1.179-.622C59.937,329.977,60.247,329.853,60.371,329.79Zm-10.792,3.847v-.807h0c.185,0,.249-.061.249-.123a1.747,1.747,0,0,0,.062-.683V328.3a.367.367,0,0,0-.311-.124h0v-.806c.123-.062.185-.124.311-.187a1.459,1.459,0,0,1,.742-.185,1.245,1.245,0,0,1,.806.247,1.033,1.033,0,0,1,.434.622A3.776,3.776,0,0,1,52,328.986v2.855a6.649,6.649,0,0,1-.126,1.364,1.385,1.385,0,0,1-.434.622,1.966,1.966,0,0,1-.867.187,2.218,2.218,0,0,1-.683-.124,1.089,1.089,0,0,1-.311-.247Zm7.934.247H55.4v-2.48h-.681v2.48h-2.1v-6.761h2.108v2.419H55.4v-2.419h2.11Zm-7.934-6.512v.806c-.124,0-.187.062-.249.187a5.135,5.135,0,0,0-.062.744v2.8c0,.434.062.681.062.806a.322.322,0,0,0,.249.123v.807c-.124-.062-.187-.187-.311-.311v1.556H47.222v-7.766h2.114l-.062.559.311-.311Zm-5.4,6.637V332.83h0a.283.283,0,0,0,.311-.185,1.444,1.444,0,0,0,.124-.683v-.868h1.918v.495a3.589,3.589,0,0,1-.062.933,2.08,2.08,0,0,1-.372.745,1.7,1.7,0,0,1-.744.559,3,3,0,0,1-1.117.187Zm0-3.35v-1.117h.311v-.5a5.006,5.006,0,0,0-.061-.681c-.062-.124-.124-.187-.249-.187h0v-1.184a2.947,2.947,0,0,1,1.364.311,1.654,1.654,0,0,1,.744.868,3.514,3.514,0,0,1,.249,1.556v.933Zm0-3.659v1.178c-.124,0-.247.062-.247.124a2.127,2.127,0,0,0-.062.744v.5h.311v1.117h-.311v1.427a1.565,1.565,0,0,0,.062.622.311.311,0,0,0,.247.123v1.179a2.99,2.99,0,0,1-1.115-.187,1.568,1.568,0,0,1-.745-.5,4.723,4.723,0,0,1-.434-.744,5.359,5.359,0,0,1-.062-1.117v-1.984a2.928,2.928,0,0,1,.249-1.427,1.36,1.36,0,0,1,.744-.807A2.765,2.765,0,0,1,44.062,327Zm-9.862,6.947V332.83h0c.062,0,.187-.061.187-.123a.327.327,0,0,0,.123-.249v-3.474a1.565,1.565,0,0,0-.062-.622c0-.124-.123-.187-.247-.187h0v-1.117a3,3,0,0,1,1.117.187,1.914,1.914,0,0,1,1.179,1.245,4.823,4.823,0,0,1,.061.993v1.674a8.149,8.149,0,0,1-.061,1.366,2.077,2.077,0,0,1-.436.806,2.178,2.178,0,0,1-.806.5c-.249.062-.622.062-1.055.124Zm7.133-6.824v1.427H40.275v5.335H38.226V328.55H37.046v-1.427Zm-7.133-.062v1.117c-.124,0-.247.062-.247.187a1.557,1.557,0,0,0-.062.622v3.227c0,.434.123.622.311.622v1.117H34.01c-.311,0-.559-.062-.745-.062a4.422,4.422,0,0,1-.622-.247,1.952,1.952,0,0,1-.436-.559,1.262,1.262,0,0,1-.185-.683,4.69,4.69,0,0,1-.062-.993v-.249h-.622v2.73H29.3v-6.768h2.046v2.606h.622v-.062a5.333,5.333,0,0,1,.062-1.055,1.914,1.914,0,0,1,.372-.806,1.7,1.7,0,0,1,.744-.559,3,3,0,0,1,1.117-.187ZM26.2,333.885v-1.427a.271.271,0,0,0,.185-.062c.124-.062.187-.311.187-.683v-.247a1.448,1.448,0,0,0-.124-.683c-.062,0-.124-.062-.247-.062v-1.364a8.273,8.273,0,0,1,1.487.124.9.9,0,0,1,.683.559,2.2,2.2,0,0,1,.247,1.245v.683a2.684,2.684,0,0,1-.247,1.364.963.963,0,0,1-.683.5,9.206,9.206,0,0,1-1.487.058Zm0-4.529v1.372a2.232,2.232,0,0,0-.373-.062v1.8H26.2v1.427H23.775v-6.768h2.047v2.233ZM8.021,334.01V332.83c.123,0,.247-.061.247-.123a1.377,1.377,0,0,0,.062-.559v-3.164a1.733,1.733,0,0,0-.062-.681c0-.062-.124-.124-.247-.124h0v-1.184a2.99,2.99,0,0,1,1.115.185,1.57,1.57,0,0,1,.806.559,1.481,1.481,0,0,1,.373.681,5.162,5.162,0,0,1,.061,1.056v1.674a8.129,8.129,0,0,1-.061,1.364,2.334,2.334,0,0,1-.373.806,2.333,2.333,0,0,1-.806.559A5.431,5.431,0,0,1,8.083,334Zm9.49-.124h-1.8v-4.652l-.87,4.652H13.726l-.868-4.652v4.652H11.064v-6.761h2.6l.622,3.721.622-3.721h2.606v6.761Zm.744,0v-6.761h4.838v6.761h-2.11V328.55H20.3v5.335ZM2.439,327.124v2.606c.434,0,.622-.187.622-.683v-1.119c0-.5.062-.745.249-.807H5.291a1.937,1.937,0,0,0-.247.993v.933a1,1,0,0,1-.372.806,3.863,3.863,0,0,1-.622.372,2.635,2.635,0,0,1-.683.124,2.511,2.511,0,0,0,.622.187c.747.247,1.056.622,1.056,1.179v1.178a1.761,1.761,0,0,0,.247.993H3.307a1.324,1.324,0,0,1-.249-.744v-1.489c0-.434-.185-.681-.622-.681v2.914H.39v-6.761Zm5.582-.129v1.178a.324.324,0,0,0-.249.124,6.39,6.39,0,0,0-.062.681v3.1c0,.311.062.5.062.622a.322.322,0,0,0,.249.123h0V334A3.073,3.073,0,0,1,6.9,333.88a2.134,2.134,0,0,1-.744-.434,2.06,2.06,0,0,1-.372-.744,6.575,6.575,0,0,1-.124-1.3v-1.733a4.877,4.877,0,0,1,.185-1.489,2.519,2.519,0,0,1,.745-.873,2.947,2.947,0,0,1,1.358-.311Z" transform="translate(-0.329 -276.113)"/><path class="a" d="M62.584,396.187H69.16V380.06H62.584v2.047h3.289v10.3H62.9v-4.652a.467.467,0,0,0-.311.062Zm0-10.049v-2.233a.229.229,0,0,1,.187-.062H62.9v2.295Zm-7.877,10.049h7.877v-8.375a.871.871,0,0,0-.433.126,1.775,1.775,0,0,0-.124.744V392.4H59.236v-3.038a5.912,5.912,0,0,1,.123-1.245,1.19,1.19,0,0,1,.434-.683A4.592,4.592,0,0,1,60.848,387c-.681-.062-1.115-.185-1.3-.5a3.332,3.332,0,0,1-.311-1.612,3.712,3.712,0,0,1,.311-1.613,1.472,1.472,0,0,1,.806-.806,2.634,2.634,0,0,1,1.245-.311,4.423,4.423,0,0,1,.994-.062V380.06H54.707v4.347l.87-2.295h2.48V392.4h-2.48v-4.714l-.87,2.544v5.954Zm7.877-12.281v2.233c-.185-.062-.372-.062-.433-.185a1.784,1.784,0,0,1-.124-.745v-.559c0-.311.061-.557.185-.622A.524.524,0,0,1,62.584,383.906Zm-17,12.281H54.7v-5.954l-.683,2.17h-2.6v-10.3H53.9v4.652l.806-2.352V380.06H45.584V386.7l.062.247.683-4.837h3.908v10.3h-2.6v-6.947L46.581,392.4h-1Zm-8,0h8V392.4h-.87L43.6,385.58V392.4H41v-10.3h3.846c.124.622.249,1.364.372,2.17l.373,2.419V380.06h-8v2.047h2.359v2.046H37.961v1.985h1.867v1.923H37.961v2.3h2.178V392.4H37.588Zm-8,0h8.006V392.4h-2.6v-10.3h2.6V380.06h-8v2.047h3.846v8.126h.622v3.975H32.005v-1.8H29.586v3.784Zm0-5.954v-6.08h.868v6.08Zm-8.311,5.954h8.311V392.4H27.168v1.8H25.12v-3.975h.622a19.215,19.215,0,0,0,.8-3.289,34.476,34.476,0,0,0,.311-4.527v-.311h2.729V380.06H21.275v2.047h2.046L25,392.4h-3.04l-.124-1.867h-.557v5.644Zm8.311-12.034v6.08h-.744a25.359,25.359,0,0,0,.744-6.018Zm-8.311,4.59v-4.336c.185,1.736.311,3.163.434,4.341Zm-3.784,7.444h3.784v-5.644h-.5l-.187,1.867h-3.1v3.784Zm3.784-16.127v2.047H18.98l-1.489,10.049V382.107h0V380.06Zm0,4.529c-.311,1.859-.5,3.286-.559,4.154h.559Zm-7.312,11.6h3.535V392.4H14.825c-.372-.247-.5-.744-.5-1.489v-2.046a.778.778,0,0,0-.249-.559l-.123-.124v8Zm3.535-16.127H13.957v6.2a.807.807,0,0,0,.311-.683l.062-1.984a1.842,1.842,0,0,1,.5-1.489h2.667V380.06Zm0,2.047v10.3h0a3.1,3.1,0,0,1-.311-1.674v-1.613q0-1.672-2.047-1.867c1.364-.187,2.047-.745,2.047-1.867v-1.724a2.4,2.4,0,0,1,.31-1.551ZM6.08,396.187h7.877v-8a1.244,1.244,0,0,0-.56-.124V392.4H10.358v-10.3H13.4v4.341a.761.761,0,0,0,.56-.185v-6.2H6.078v2.047h2.11l1.674,10.3H6.824L6.7,390.537H6.077v5.644Zm0-7.444v-4.154l.062-.187c.124,1.736.311,3.163.434,4.341ZM0,396.187H6.078v-5.644h-.5l-.124,1.867h-3.1l1.489-10.3H6.078V380.06H0Zm6.078-11.6v4.154h-.5C5.644,387.875,5.829,386.448,6.078,384.589Z" transform="translate(0 -320.923)"/><path class="a" d="M40.951,22.862Zm-10.788-1.8a38.1,38.1,0,0,0,.372-4.716c-.434-.372-.185-1.115-.185-1.736l-.062.311h0V14.24a1.382,1.382,0,0,0-.062-.993A13.779,13.779,0,0,0,30.6,8.224l-.372.311c-.062,1.117-.062,2.481-.249,3.659-.062-.062-.124.062-.124.062a.467.467,0,0,1-.123.311,5.57,5.57,0,0,1,.185,1.8c0,.185.062.495-.123.622h-.062c-.062-.372-.062-.744-.124-1.115L29.48,14.99c-.061.062-.123,0-.185-.062,0-.123.061-.247,0-.311-.062.062-.062.247-.187.187l-.187-.378c-.061,0-.061.062-.061.124-.187,0-.124-.311-.249-.434a11.917,11.917,0,0,0-.062-1.489h-.124v-.185h.062v-.062c-.062-.062-.247,0-.311-.062.062-1.3.062-2.544,0-3.846.249-1.738,1.738-2.668,2.855-3.661.372-.5.741-.929,1.052-1.364.247.124.247-.185.372-.311a5.584,5.584,0,0,1-.124-1.556A2.108,2.108,0,0,1,32.953.215c.681-.622,1.3,0,1.923.311-.062.434.247.993,0,1.427a1.564,1.564,0,0,0,.311.744c-.372.062-.311.434-.311.683-.124.061-.124.123-.187.185.062.249-.062.311-.187.434-.247.062-.557-.247-.806.124-.062,1.3.993,2.178.993,3.474a8.348,8.348,0,0,1,.622,1.736l2.729,1.3v.124c.185.124.557-.124.681.187A1.276,1.276,0,0,1,38.411,12c.062.123,0,.185-.062.247-.062,0-.187-.062-.187,0,.062-.124-.123-.311-.247-.372l-.37.254a18.478,18.478,0,0,0-2.606-.993c-.123-.123-.247-.185-.372-.311a4.393,4.393,0,0,0,0,1.556c.372-.124.622.247,1.055.311-.062.187,0,.124-.124.311,1.676,1.053,3.536,1.487,4.838,3.472a25.707,25.707,0,0,0-.5,5.769c.062.311.373.434.622.559.372.247,1.117-.124,1.245.434a4.953,4.953,0,0,1-2.79.5l-.126.247h-.933a19.9,19.9,0,0,1-.187-4.712v-.311h0c.062-.311.062-.681.124-1.055,0-.185.126-.311.126-.434-1.3-.249-2.421-1.055-3.723-1.179.062.436-.559.311-.806.311-.124,0-.187,0-.249.123-.311,2.421-.311,4.963-1.8,6.824a15.374,15.374,0,0,0-1.364,3.287h.187a1.627,1.627,0,0,0,.5.434c.372.311,1.115.062,1.178.622-.806.681-1.867.372-2.791.185l-.124.249H27.869C27.744,25.653,29.171,23.358,30.163,21.064Z" transform="translate(-23.526 0.052)"/><path class="a" d="M21.53,155.851V136.312h6.326v14.081h3.35V132.032h6.327v18.361h3.35v-22.7H47.21v28.286Z" transform="translate(-18.18 -107.816)"/><path class="a" d="M336.121,88.889h-8V47.95h18.422l-.062,6.824H336.246Z" transform="translate(-277.072 -40.482)"/><path class="a" d="M208.211,112h1.245l-.989-14.949-.185-.123-.062.868V91.41h5.458l3.784,34.177h-6.769l-.744-8.437h-1.736Zm-1.245,0h1.245v5.146h-1.987l-1.115,8.437H199.34l5.024-34.177h3.847V97.8Z" transform="translate(-168.327 -77.181)"/></g></g></svg>