<svg xmlns="http://www.w3.org/2000/svg" viewBox="0 0 63.405 78.545"><defs><style>.a{fill:#fff;}</style></defs><g transform="translate(0.015 0.015)"><path class="a" d="M4.26,72.22h.56L5,71.8l.41-.9.15-.29.57-1.14a4.81,4.81,0,0,1,1.43-1.84,1.7,1.7,0,0,1,1-.27,3.33,3.33,0,0,1,1.32.27l-.31.84-.06.5v.72h-.3l-.48-.2a2.22,2.22,0,0,0-.81-.18,1.12,1.12,0,0,0-.78.3,2.45,2.45,0,0,0-.41.48l-.27.41q-.06.09-1,1.88a7.33,7.33,0,0,1,2.07.77A4.26,4.26,0,0,1,9,74.74a5.54,5.54,0,0,1,.6,2.74h.9v.63H6.45v-.63H7v-.81a4.25,4.25,0,0,0-.57-2.57A3.42,3.42,0,0,0,4.2,72.76v4.73h1v.63H.68v-.63H1.93V68.21H.68v-.63H5.3v.63h-1Z"/><path class="a" d="M18.41,70.8l-3.33,4.08v2.6h1v.63H11.5v-.63h1.25V68.21H11.5v-.63h4.62v.63h-1v5.67l3.33-4.08V68.2h-1v-.63H22v.63H20.74v9.27H22v.63H17.37v-.63h1Z"/><path class="a" d="M32.58,71.31H28.64v-.63h.66Q29.3,68,27.67,68q-1.07,0-1.56,1.31a5.73,5.73,0,0,0-.26,1.93A15.29,15.29,0,0,0,26.41,75a7.54,7.54,0,0,1,.32,2.12v.21l-.14.54v.09a.74.74,0,0,0,.36.09A2,2,0,0,0,28.44,77a4.22,4.22,0,0,0,.48-.86,4.17,4.17,0,0,0,.38-1.79V74h-.66v-.63h3.94V74H32a3.67,3.67,0,0,1-.75,2.15,5.31,5.31,0,0,1-1.7,1.53,5.19,5.19,0,0,1-2.65.77,3.11,3.11,0,0,1-1.1-.18v-.92a1.64,1.64,0,0,0-.3-.72,6.53,6.53,0,0,0-.77-1.16A7.09,7.09,0,0,1,23.3,73a4.29,4.29,0,0,1-.09-1,5,5,0,0,1,.59-2.4,4.1,4.1,0,0,1,1.7-1.69,4.78,4.78,0,0,1,2.32-.57q3.55,0,4.15,3.31h.62Z"/><path class="a" d="M43,71.31H39.07v-.63h.66Q39.73,68,38.1,68a1.635,1.635,0,0,0-1.56,1.31,5.72,5.72,0,0,0-.26,1.93A15.3,15.3,0,0,0,36.84,75a7.49,7.49,0,0,1,.32,2.12v.21l-.14.54L37,78a.74.74,0,0,0,.36.09A2,2,0,0,0,38.87,77a4.63,4.63,0,0,0,.86-2.65V74h-.66v-.63H43V74h-.62a3.67,3.67,0,0,1-.75,2.15,5.31,5.31,0,0,1-1.7,1.53,5.19,5.19,0,0,1-2.65.77,3.12,3.12,0,0,1-1.1-.18v-.92a1.64,1.64,0,0,0-.3-.72,6.49,6.49,0,0,0-.77-1.16A7.1,7.1,0,0,1,33.73,73a4.31,4.31,0,0,1-.09-1,5,5,0,0,1,.59-2.4,4.1,4.1,0,0,1,1.7-1.69,4.78,4.78,0,0,1,2.32-.57q3.55,0,4.15,3.31H43Z"/><path class="a" d="M48.32,67.17a.45.45,0,0,1,.24.09l.39.42q.39.35,1.43,1.32l.84.83a4,4,0,0,1,1.17,2.93,4.25,4.25,0,0,1-1.22,3.11l-1,1-1.6,1.51a1.12,1.12,0,0,1-.38.15.73.73,0,0,1-.44-.2l-1.1-.9-1.11-1a4.84,4.84,0,0,1-1.32-2A4.24,4.24,0,0,1,44,73q0-2.6,2.95-4.94l.29-.23.36-.33a1.07,1.07,0,0,1,.72-.33Zm-1,2a2,2,0,0,0-1.29.77,2.27,2.27,0,0,0-.53,1.44,1.83,1.83,0,0,0,.15.74,2.44,2.44,0,0,0,.44.81l.29.42.39.45,1,1.05,1,1a1.66,1.66,0,0,1,.26.71,3.06,3.06,0,0,0,1.21-.83,2.4,2.4,0,0,0,.67-1.25V74a2.72,2.72,0,0,0-.65-1.28l-.6-.72-1.47-1.6-.44-.51-.26-.38Z"/><path class="a" d="M63.39,68.21v-.63H58.77v.63h1.05v3.52H56.49V68.21h1.03v-.63H52.91v.63h1.25v9.27H52.91v.63h4.61v-.63H56.49V72.35h3.33v5.09h-.01v.04H58.77v.63h4.62v-.63H62.15V68.21Z"/><path class="a" d="M-900.768-3377.756h0a15.138,15.138,0,0,1-7.529-2.009c-3.617-2.073-5.892-5.547-6.954-10.62-.92-4.392-.795-9.285-.685-13.6.024-.95.047-1.846.059-2.717,0-.13.019-.579.045-1.2.091-2.166.281-6.672.055-7.11,1.393,2.686,6.416,4.979,8.83,6.08a31.847,31.847,0,0,0,7.13,1.954c3.593.692,7.308,1.408,10.1,3.876l.19.17a13.7,13.7,0,0,1,4.139,9.854,14.075,14.075,0,0,1-3.9,10.275,17.67,17.67,0,0,1-7.91,4.621A15.1,15.1,0,0,1-900.768-3377.756Zm-4.951-18.259a.463.463,0,0,0-.355.169.457.457,0,0,0-.094.382l1.64,8.83a3.258,3.258,0,0,0,2.91,2.19.477.477,0,0,0,.22.06h1.149l.045,0a.415.415,0,0,0,.205-.053,3.257,3.257,0,0,0,2.88-2.23l1.63-8.8a.46.46,0,0,0-.094-.382.463.463,0,0,0-.356-.169Zm-.281-1.92a.561.561,0,0,0-.56.561.561.561,0,0,0,.56.56h10.35a.561.561,0,0,0,.561-.56.561.561,0,0,0-.561-.561H-900.3l-1.76-3.81a.461.461,0,0,0-.419-.27h-3.7a.46.46,0,0,0-.46.46.46.46,0,0,0,.46.46h3.4l1.46,3.16Zm5.743,12.631h-.993l-.1-.03h-.027a2.444,2.444,0,0,1-2.253-1.49l-1.53-8.26h8.68l-1.52,8.229A2.432,2.432,0,0,1-900.257-3385.3Zm-.253-7.122a.462.462,0,0,0-.4.231l-.35.37-.24.25c-.525.566-1.319,1.422-1,2.42a1.743,1.743,0,0,0,.831,1,2,2,0,0,0,.909.22h.091a1.7,1.7,0,0,0,1.56-1.82,2.124,2.124,0,0,0-.5-1.05,2.337,2.337,0,0,1-.28-.439,1.653,1.653,0,0,1-.18-.59.461.461,0,0,0-.259-.554A.457.457,0,0,0-900.51-3392.426Zm-.251,3.562h0a1.009,1.009,0,0,1-.458-.11.831.831,0,0,1-.391-.47c-.149-.5.268-.939.8-1.5l0,0,.06-.06.01.121a3.1,3.1,0,0,0,.39.629,1.4,1.4,0,0,1,.32.61.713.713,0,0,1-.2.52.75.75,0,0,1-.51.26h-.022Z" transform="translate(916 3439.935)"/><path class="a" d="M-901-3384.389h0a14.019,14.019,0,0,1-9.962-3.9,17.659,17.659,0,0,1-4.62-7.909,15.049,15.049,0,0,1,1.56-11.1c3.919-6.8,12.165-7.714,19.714-7.714,1.534,0,3.039.038,4.5.075h.023c.951.024,1.85.047,2.738.059.126,0,.553.018,1.145.043l.055,0c1.439.061,3.847.162,5.462.162a6.362,6.362,0,0,0,1.648-.107c-2.686,1.394-4.979,6.416-6.08,8.83a31.624,31.624,0,0,0-1.97,7.151c-.693,3.585-1.41,7.293-3.88,10.08l-.169.19A13.78,13.78,0,0,1-901-3384.389Zm1.883-22.232a.46.46,0,0,0-.424.282c-.118.148-.663.663-1.62,1.53l-.27.25-.69.56c-2.062,1.9-4.885,4.5-4,7.8a5.4,5.4,0,0,0,2.4,3.26,6.259,6.259,0,0,0,3.15.869h.07a5.143,5.143,0,0,0,3.6-1.6,5.034,5.034,0,0,0,1.481-3.57l-.041-.07a7.084,7.084,0,0,0-1.49-3.5,9.939,9.939,0,0,1-1.14-2c-.28-.771-.862-2.374-.6-3.17a.457.457,0,0,0,0-.353.457.457,0,0,0-.248-.252A.459.459,0,0,0-899.116-3406.622ZM-900.54-3393h-.06a5.335,5.335,0,0,1-2.68-.73,4.483,4.483,0,0,1-2-2.7c-.687-2.658,1.721-4.944,3.656-6.781l.115-.109.7-.66.25-.22.91-.82a12.169,12.169,0,0,0,.68,2.46,10.778,10.778,0,0,0,1.25,2.26,6.305,6.305,0,0,1,1.34,3v.08a4.1,4.1,0,0,1-1.22,2.93v-.021A4.2,4.2,0,0,1-900.54-3393Zm1.61-7.68h0l-1.24,2a1.6,1.6,0,0,1,.83,1.277,6.1,6.1,0,0,1-.491,3.684l-.037.029-.013.01a.21.21,0,0,0,.049-.04,5.209,5.209,0,0,0,2.33-3.834,4.47,4.47,0,0,0-1.429-3.126Z" transform="translate(916.02 3415)"/><path class="a" d="M-885.629-3377.765c-1.41-2.674-6.412-4.957-8.816-6.054a31.622,31.622,0,0,0-7.15-1.97c-3.587-.694-7.294-1.411-10.08-3.88l-.19-.17a13.779,13.779,0,0,1-4.147-9.921,13.99,13.99,0,0,1,3.907-10.2,17.669,17.669,0,0,1,7.91-4.62,15.134,15.134,0,0,1,3.6-.434,15.14,15.14,0,0,1,7.5,1.994c8.076,4.656,7.831,15.405,7.634,24.042-.023,1.021-.045,1.985-.054,2.928,0,.13-.019.579-.045,1.2a57.472,57.472,0,0,0-.066,7.083Zm-18.325-26.755a3.648,3.648,0,0,0-1.192.2,5,5,0,0,0-2.15,1.43,4.29,4.29,0,0,0-1,3.06c.17,2.651,2.915,3.928,4.92,4.86l.67.31.26.121.267.118c.321.142.76.336,1.043.481v2.261a1.869,1.869,0,0,0,.56,1.659.928.928,0,0,0,.537.17h.024l.071,0a1,1,0,0,0,.918-.6,3.17,3.17,0,0,0,.09-1.44,4.507,4.507,0,0,1,0-.66,1.8,1.8,0,0,1,0-.22.45.45,0,0,1,.09-.19.179.179,0,0,1,.1-.026.306.306,0,0,1,.12.026.289.289,0,0,1,.17.08l.069.11a2.138,2.138,0,0,1,.09,1.2c0,.053,0,.111,0,.174a1.357,1.357,0,0,0,.495,1.347,1.051,1.051,0,0,0,.54.159,1.308,1.308,0,0,0,1.15-1.16,4.126,4.126,0,0,0,0-1v-3.65c1.6-.85,3.25-2,3.379-4.11a4.283,4.283,0,0,0-1.12-3.09,5.007,5.007,0,0,0-2.15-1.43,3.656,3.656,0,0,0-1.194-.2h-.007a4.352,4.352,0,0,0-3.37,1.66,4.36,4.36,0,0,0-3.37-1.65Zm6.338-3.31a1.5,1.5,0,0,0-1.481,1.49,1.517,1.517,0,0,0,1.51,1.49h.01a1.492,1.492,0,0,0,1.46-1.509,1.5,1.5,0,0,0-1.491-1.471Zm-6.153-.989a1.9,1.9,0,0,0-1.886,1.9,1.926,1.926,0,0,0,1.92,1.9h.02a1.9,1.9,0,0,0,1.86-1.926,1.908,1.908,0,0,0-1.9-1.873Zm3.694,17.869h-.05a.726.726,0,0,1-.15-.32,2.756,2.756,0,0,1,0-.53v-3.65a3.412,3.412,0,0,0-.2-1.59,1.988,1.988,0,0,0-.24-.38l-.09-.09-.11-.13-.08-.06a12.838,12.838,0,0,0-2.8-2l-.06-.09a.19.19,0,0,1,0-.09.348.348,0,0,1,.14.07,7.674,7.674,0,0,0,3.69,1.44c.122.006.246.01.369.01a7.113,7.113,0,0,0,4.331-1.479,1.244,1.244,0,0,1,.3-.17c0,.052,0,.071-.17.19l-.17.131-.14.12a6.638,6.638,0,0,0-1.219,1.46,3.614,3.614,0,0,0-.47,2.19v.9c0,.41.023.834.044,1.243s.045.842.045,1.257v.82c0,.27,0,.64-.159.73h-.15a1.1,1.1,0,0,1,0-.36v-.2a6.276,6.276,0,0,0,0-.9,1.837,1.837,0,0,0-.39-1.08,1.274,1.274,0,0,0-1-.6h-.18a1.229,1.229,0,0,0-.95,1v.051a4.313,4.313,0,0,0-.08,1.07v.311a2.372,2.372,0,0,1-.059.729Zm-1-4h0l-1-.43-.239-.1-.68-.32c-1.793-.831-4.248-1.968-4.39-4.081a3.419,3.419,0,0,1,.78-2.4,4.005,4.005,0,0,1,1.75-1.16,2.757,2.757,0,0,1,.9-.15h.029a3.34,3.34,0,0,1,2.972,1.8.462.462,0,0,0,.415.262.462.462,0,0,0,.415-.262,3.34,3.34,0,0,1,2.971-1.8h.037a2.724,2.724,0,0,1,.891.15,4,4,0,0,1,1.651,1.139,3.423,3.423,0,0,1,.8,2.4h.049c-.1,1.579-1.456,2.537-2.47,3.12a2,2,0,0,1,.28-.81,5.85,5.85,0,0,1,1.17-1.18l.149-.121.121-.1a1.124,1.124,0,0,0,.54-.82,1,1,0,0,0-.211-.76.831.831,0,0,0-.624-.281h-.006a1.624,1.624,0,0,0-.92.371,6.2,6.2,0,0,1-3.8,1.307c-.1,0-.2,0-.294-.007a5.1,5.1,0,0,1-2.6-.84l-.19-.16a2.864,2.864,0,0,0-.77-.46,1.05,1.05,0,0,0-.4-.079,1.054,1.054,0,0,0-.737.3.8.8,0,0,0-.221.78,2.035,2.035,0,0,0,1,1.2l.18.121c.4.29.842.578,1.34.88a2.272,2.272,0,0,1,1,.91,2.707,2.707,0,0,1,.11,1.159v.419Zm2.721-7.4a1.3,1.3,0,0,0-1.28,1.3,1.306,1.306,0,0,0,1.286,1.3h.013a1.308,1.308,0,0,0,1.3-1.27,1.317,1.317,0,0,0-.38-.943,1.318,1.318,0,0,0-.929-.387Zm0,1.67h0a.374.374,0,0,1-.35-.384.369.369,0,0,1,.37-.356h.006a.372.372,0,0,1,.364.369A.39.39,0,0,1-898.356-3400.68Zm.76-5.091h-.007a.57.57,0,0,1-.563-.569.583.583,0,0,1,.58-.571h.01a.572.572,0,0,1,.55.583A.566.566,0,0,1-897.6-3405.771Zm-6.12-.129a1,1,0,0,1-1-1,1.007,1.007,0,0,1,.278-.733,1.008,1.008,0,0,1,.722-.307v.04a1,1,0,0,1,1,1A1,1,0,0,1-903.716-3405.9Z" transform="translate(947.576 3415.02)"/><path class="a" d="M-900.569-3384.406h0c-1.438,0-2.849-.032-4.214-.063h-.035c-1.009-.023-1.962-.044-2.886-.053-.125,0-.552-.018-1.142-.043l-.058,0c-1.437-.061-3.843-.162-5.462-.162a6.344,6.344,0,0,0-1.648.107c2.688-1.395,4.979-6.417,6.079-8.831a31.611,31.611,0,0,0,1.971-7.152c.694-3.585,1.411-7.292,3.88-10.078l.169-.19a13.757,13.757,0,0,1,10.165-4.142,14.009,14.009,0,0,1,9.955,3.892,17.675,17.675,0,0,1,4.62,7.91,15.047,15.047,0,0,1-1.579,11.1,13.945,13.945,0,0,1-8.5,6.4A39.68,39.68,0,0,1-900.569-3384.406Zm-2.415-9.3a.561.561,0,0,0-.561.56.561.561,0,0,0,.561.56h18.13a.56.56,0,0,0,.56-.56.56.56,0,0,0-.56-.56Zm9.059-10.17a8.83,8.83,0,0,0-8.82,8.82v.47h17.661l-.021-.47A8.83,8.83,0,0,0-893.925-3403.872Zm.03-3.31a1.3,1.3,0,0,0-1.3,1.287,1.3,1.3,0,0,0,1.28,1.313h.01a1.314,1.314,0,0,0,1.31-1.3,1.3,1.3,0,0,0-1.293-1.3Zm7.85,11.68h-15.74a7.875,7.875,0,0,1,7.87-7.483,7.875,7.875,0,0,1,7.87,7.482Zm-7.551-5.571a.461.461,0,0,0-.4.231l-.36.371-.24.249-.013.014c-.524.563-1.315,1.415-.987,2.406a1.739,1.739,0,0,0,.83,1,2.013,2.013,0,0,0,.914.22h.086a1.718,1.718,0,0,0,1.57-1.821,2.135,2.135,0,0,0-.5-1.049,2.369,2.369,0,0,1-.28-.44,1.648,1.648,0,0,1-.18-.589.46.46,0,0,0-.26-.554A.451.451,0,0,0-893.6-3401.073Zm-.271,3.572a1,1,0,0,1-.458-.111.818.818,0,0,1-.39-.47c-.149-.5.265-.935.789-1.489l.011-.011.07-.069v.13a3.141,3.141,0,0,0,.391.63,1.377,1.377,0,0,1,.32.61.713.713,0,0,1-.2.52.746.746,0,0,1-.51.26Zm-.021-8.011h-.007a.368.368,0,0,1-.37-.356.372.372,0,0,1,.349-.384v.011h0a.393.393,0,0,1,.39.359A.372.372,0,0,1-893.888-3405.513Z" transform="translate(940.915 3446.582)"/></g></svg>