<svg xmlns="http://www.w3.org/2000/svg" viewBox="0 0 46.391 73.735"><defs><style>.a{fill:#fff;}</style></defs><g transform="translate(0 0.026)"><g transform="translate(0 -0.026)"><path class="a" d="M0,6.865c2.913-.9,5.826-1.792,8.813-2.614,2.539-.747,5-1.494,7.543-2.241,2.166-.672,4.332-1.419,6.5-2.017a3.942,3.942,0,0,1,1.867.3C30.1,1.935,35.551,3.653,40.928,5.221c1.568.448,3.211.971,4.78,1.344a.675.675,0,0,1,.672.822V59.369a.772.772,0,0,1-.672.9h0c-5.751,1.643-11.576,3.361-17.327,5.079L13.369,69.825.3,73.708H0Zm7.469,24.5V42.116c0,2.39.075,4.705.149,7.1A5.235,5.235,0,0,0,11.8,53.693a29.3,29.3,0,0,0,4.406.149c3.66-.149,5.751-2.39,5.751-6.05V31.436H16.58V48.465H12.622v-17.1ZM29.725,48.539H33.31a5.436,5.436,0,0,0,5.6-5.3V36.814a5.5,5.5,0,0,0-5.377-5.6c-2.913-.149-5.826,0-8.738,0a.565.565,0,0,0-.3.075V53.842H29.65ZM18.671,22.922c0-1.568.075-2.987,0-4.406a2.841,2.841,0,0,0-1.12-2.39,4.479,4.479,0,0,0-4.332-.373,3.171,3.171,0,0,0-1.867,3.211c-.075,2.315-.075,4.631,0,6.871.075,1.419.448,2.838,1.942,3.51a4.059,4.059,0,0,0,4.108-.373c1.419-1.046,1.344-2.539,1.195-4.108H16.057a7.976,7.976,0,0,1-.224,1.867,1.479,1.479,0,0,1-.822.822.663.663,0,0,1-.9-.523V23Zm16.207,0V18.665A3.4,3.4,0,0,0,33.459,15.9a4.117,4.117,0,0,0-3.137-.448,2.765,2.765,0,0,0-2.614,2.689c-.149,2.689-.149,5.377-.075,8.066a4.443,4.443,0,0,0,.9,2.315,3.664,3.664,0,0,0,4.705.672c1.643-.9,1.792-2.465,1.643-4.332H32.339a10.086,10.086,0,0,1-.3,2.091.97.97,0,0,1-.9.6,1.5,1.5,0,0,1-.9-.747c-.075-1.27,0-2.465,0-3.809ZM19.194,15.677l2.539,13.892H23c1.195,0,1.27-.075,1.419-1.27l1.792-9.41c.224-1.046.373-2.166.6-3.286H25.02a.828.828,0,0,0-.9.747v.075C23.75,18.74,23.377,20.98,23,23.3h-.149l-1.195-7.618Zm17.327-2.39V29.42h2.465c0-.075.075-.149.075-.224V14.632a.788.788,0,0,0-.747-.9,8.981,8.981,0,0,1-1.792-.448ZM10.008,29.42V13.362a15.635,15.635,0,0,1-1.568.373c-.747.149-.971.523-.971,1.27V29.494Z" transform="translate(0 0.026)"/><path class="a" d="M43.634,49v6.647H39.9V49Z" transform="translate(-10.1 -12.384)"/><path class="a" d="M18.8,26.883V24.568a.9.9,0,0,1,.747-.971h.149a.929.929,0,0,1,1.046.822v2.465H18.8Z" transform="translate(-4.756 -5.951)"/><path class="a" d="M42.617,26.858H40.6V24.244c0-.6.523-.747.971-.747a.9.9,0,0,1,.971.747v.149C42.617,25.215,42.617,25.961,42.617,26.858Z" transform="translate(-10.278 -5.926)"/></g></g></svg>