<svg xmlns="http://www.w3.org/2000/svg" viewBox="0 0 119.701 31.581"><defs><style>.a{fill:#fff;}.b{opacity:0.75;}</style></defs><g transform="translate(0 -0.023)"><g transform="translate(0 0.023)"><path class="a" d="M198.33,89.382h0a1.034,1.034,0,0,1-1.03-1.03V76.71a1.034,1.034,0,0,1,1.03-1.03h0a1.034,1.034,0,0,1,1.03,1.03V88.35A1.034,1.034,0,0,1,198.33,89.382Z" transform="translate(-177.173 -67.962)"/><path class="a" d="M928.06,88.721a1.027,1.027,0,0,1-1.03,1.03h0a1.027,1.027,0,0,1-1.03-1.03V77.11a1.027,1.027,0,0,1,1.03-1.03h0a1.027,1.027,0,0,1,1.03,1.03Z" transform="translate(-831.537 -68.321)"/><path class="a" d="M13.488,87.14H4.267a.314.314,0,0,1-.1-.01,1.494,1.494,0,0,1-1.306-1.561V76.51a1.034,1.034,0,0,0-1.03-1.03h0A1.034,1.034,0,0,0,.8,76.51V88a1.13,1.13,0,0,0,1.01,1.194c.041,0,.071.01.112.01H13.5a1.02,1.02,0,0,0,1.02-1.02h0A1.043,1.043,0,0,0,13.488,87.14Z" transform="translate(-0.717 -67.782)"/><path class="a" d="M476.63,75.58h0a1.034,1.034,0,0,0-1.03,1.03V88.24a1.034,1.034,0,0,0,1.03,1.03h0a1.034,1.034,0,0,0,1.03-1.03V76.61A1.041,1.041,0,0,0,476.63,75.58Z" transform="translate(-427.083 -67.872)"/><path class="a" d="M527.024,75.58h0a1.034,1.034,0,0,0-1.03,1.03v3.428a1.279,1.279,0,0,1-1.326,1.357H519.73a1.034,1.034,0,0,0-1.03,1.03h0a1.034,1.034,0,0,0,1.03,1.03h5.08a1.279,1.279,0,0,1,1.183,1.347V88.24a1.034,1.034,0,0,0,1.03,1.03h0a1.034,1.034,0,0,0,1.03-1.03V76.61a1.027,1.027,0,0,0-1.03-1.03Z" transform="translate(-465.786 -67.872)"/><path class="a" d="M291.43,81.451h0a1.067,1.067,0,0,0-1.061,1.061V86.34h0a1.1,1.1,0,0,1-1.265,1.01h-3.56a4.5,4.5,0,0,1-4.642-3.642,4.96,4.96,0,0,1,1.877-5.1c.01-.01.02-.02.031-.02a4.546,4.546,0,0,1,2.877-.826H290.9a1.034,1.034,0,0,0,1.03-1.03h0a1.034,1.034,0,0,0-1.03-1.03h-5.468a6.8,6.8,0,0,0-5.682,3.009,4.832,4.832,0,0,0-.541,1.163c-.49,1.489-1.214,4.917,1.3,7.661l.01.01a6.919,6.919,0,0,0,4.795,1.9h6.355a.829.829,0,0,0,.826-.826v-6.08a1.058,1.058,0,0,0-1.061-1.083Z" transform="translate(-250.288 -67.98)"/><g class="b" transform="translate(0 24.611)"><rect class="a" width="0.316" height="4.029"/><path class="a" d="M15.035,242.88a.24.24,0,1,0,.245.235A.253.253,0,0,0,15.035,242.88Z" transform="translate(-13.291 -242.717)"/><rect class="a" width="0.316" height="2.775" transform="translate(1.581 1.255)"/><path class="a" d="M31.8,253.616a1.314,1.314,0,0,0-1.153-.62,1.449,1.449,0,1,0,0,2.9,1.326,1.326,0,0,0,1.153-.622v.408a.96.96,0,0,1-1.061,1,1.042,1.042,0,0,1-1.03-.52l-.01-.02-.286.163.01.02a1.36,1.36,0,0,0,1.306.663,1.268,1.268,0,0,0,1.377-1.306v-2.622h-.316v.561Zm0,.816a1.122,1.122,0,1,1-.329-.8A1.132,1.132,0,0,1,31.8,254.432Z" transform="translate(-26.221 -251.8)"/><path class="a" d="M71.375,243.93a1.046,1.046,0,0,0-.949.51V242.9H70.1v3.866h.316v-1.459c0-.663.347-1.061.928-1.061a.722.722,0,0,1,.775.806v1.714h.326v-1.714A1.02,1.02,0,0,0,71.375,243.93Z" transform="translate(-62.949 -242.735)"/><path class="a" d="M102.828,246l-.326.092v.673h-.6v.316h.6v1.744a.726.726,0,0,0,.214.581.845.845,0,0,0,.551.163,2.3,2.3,0,0,0,.357-.031h.02v-.3h-.031c-.326.031-.561.041-.683-.071a.441.441,0,0,1-.1-.347v-1.744h.816v-.316h-.816Z" transform="translate(-91.505 -245.518)"/><path class="a" d="M147.949,253a1.449,1.449,0,1,0,1.449,1.449A1.422,1.422,0,0,0,147.949,253Zm1.132,1.438a1.127,1.127,0,1,1-1.122-1.132,1.115,1.115,0,0,1,1.122,1.13Z" transform="translate(-131.555 -251.802)"/><path class="a" d="M182.465,242.454a1.031,1.031,0,0,0-.3.8v.122H181.7v.316h.469v2.458h.326v-2.458h.816v-.316H182.5v-.122a.731.731,0,0,1,.194-.571.712.712,0,0,1,.592-.143h.02v-.306h-.02A1.053,1.053,0,0,0,182.465,242.454Z" transform="translate(-163.164 -242.128)"/><path class="a" d="M222.528,246l-.326.092v.673h-.6v.316h.6v1.744a.726.726,0,0,0,.214.581.845.845,0,0,0,.551.163,2.3,2.3,0,0,0,.357-.031h.02v-.3h-.031c-.326.031-.561.041-.683-.071a.441.441,0,0,1-.1-.347v-1.744h.816v-.316h-.816Z" transform="translate(-198.994 -245.518)"/><path class="a" d="M250.465,243.93a1.046,1.046,0,0,0-.949.51V242.9H249.2v3.866h.316v-1.459c0-.663.347-1.061.928-1.061a.722.722,0,0,1,.775.806v1.714h.326v-1.714A1.028,1.028,0,0,0,250.465,243.93Z" transform="translate(-223.779 -242.735)"/><path class="a" d="M283.438,253a1.449,1.449,0,0,0,.02,2.9,1.328,1.328,0,0,0,1.2-.632l.01-.02-.286-.163-.01.02a1,1,0,0,1-.918.479,1.1,1.1,0,0,1-1.132-.969H284.8v-.153a1.53,1.53,0,0,0-.367-1.01,1.245,1.245,0,0,0-.99-.449Zm-1.1,1.3a1.076,1.076,0,0,1,1.1-.99,1.04,1.04,0,0,1,1.041.99Z" transform="translate(-253.233 -251.801)"/><path class="a" d="M336.765,242.454a1.031,1.031,0,0,0-.3.8v.122H336v.316h.469v2.458h.326v-2.458h.816v-.316H336.8v-.122a.731.731,0,0,1,.194-.571.712.712,0,0,1,.592-.143h.02v-.306h-.02A1.052,1.052,0,0,0,336.765,242.454Z" transform="translate(-301.724 -242.128)"/><path class="a" d="M361.33,254.949c0,.663-.347,1.061-.928,1.061a.722.722,0,0,1-.775-.806V253.49H359.3V255.2a1.031,1.031,0,0,0,1.081,1.112,1.046,1.046,0,0,0,.949-.51v.449h.316V253.48h-.316Z" transform="translate(-322.647 -252.235)"/><path class="a" d="M392.628,246l-.326.092v.673h-.6v.316h.6v1.744a.726.726,0,0,0,.214.581.845.845,0,0,0,.551.163,2.3,2.3,0,0,0,.357-.031h.02v-.3h-.031c-.326.031-.561.041-.683-.071a.441.441,0,0,1-.1-.347v-1.744h.816v-.316h-.816Z" transform="translate(-351.742 -245.518)"/><path class="a" d="M420.63,254.949c0,.663-.347,1.061-.928,1.061a.722.722,0,0,1-.775-.806V253.49H418.6V255.2a1.031,1.031,0,0,0,1.081,1.112,1.046,1.046,0,0,0,.949-.51v.449h.316V253.48h-.316Z" transform="translate(-375.898 -252.235)"/><path class="a" d="M454.316,253.69v-.459H454v2.775h.316v-1.54a.853.853,0,0,1,.888-.959h.02V253.2h-.02A.937.937,0,0,0,454.316,253.69Z" transform="translate(-407.687 -251.984)"/><path class="a" d="M474.538,253.329a1.326,1.326,0,0,0-1-.449,1.449,1.449,0,0,0,.02,2.9,1.327,1.327,0,0,0,1.2-.632l.01-.02-.286-.163-.01.02a1,1,0,0,1-.918.479,1.1,1.1,0,0,1-1.132-.969H474.9v-.153A1.494,1.494,0,0,0,474.538,253.329Zm-2.1.857a1.076,1.076,0,0,1,1.1-.99,1.04,1.04,0,0,1,1.041.99Z" transform="translate(-423.94 -251.697)"/></g><path class="a" d="M675.865,75.571H665.318a1.031,1.031,0,1,0,0,2.061h1.9c.49,0,.9.01,1,.02a1.381,1.381,0,0,1,1.3,1.489v9.1a1.05,1.05,0,0,0,1.071,1.03h0a1.05,1.05,0,0,0,1.071-1.03v-9.1a1.381,1.381,0,0,1,1.3-1.489c.1-.01.51-.01,1-.02h1.9a1.05,1.05,0,0,0,1.071-1.03A1.02,1.02,0,0,0,675.865,75.571Z" transform="translate(-596.48 -67.863)"/><path class="a" d="M998.676,75.78H988.23a1.03,1.03,0,0,0,0,2.061h1.887c.479,0,.888.01.99.02a1.371,1.371,0,0,1,1.285,1.479v9.079a1.048,1.048,0,0,0,1.061,1.03h0a1.048,1.048,0,0,0,1.061-1.03V79.34a1.364,1.364,0,0,1,1.285-1.479c.1-.01.51-.01.99-.02h1.887a1.03,1.03,0,0,0,0-2.061Z" transform="translate(-886.494 -68.052)"/><path class="a" d="M876.694,15.628a1.039,1.039,0,0,0-.949-1.081,1.088,1.088,0,0,0-1.163.888c-.01.041-.051.439-.051.51a15.85,15.85,0,0,1-1.683,6.09,14.572,14.572,0,0,1-2.673,3.672A15.333,15.333,0,0,1,844.8,19.525v-.01a.57.57,0,0,0-.041-.122,14.836,14.836,0,0,1-.643-4.489,2.883,2.883,0,0,1,.01-.3,14.237,14.237,0,0,1,5.294-10.66A14.538,14.538,0,0,1,855.292.969c.194-.051.469-.112.826-.173a13.985,13.985,0,0,1,2.367-.214h.112a11.885,11.885,0,0,1,1.316.071h.01a10.9,10.9,0,0,1,1.112.173h.031a.15.15,0,0,0,.153-.153.163.163,0,0,0-.082-.143c-.051-.031-.276-.112-.276-.112h0a10.186,10.186,0,0,0-2.336-.377h0a14.425,14.425,0,0,0-6.366,1.234A15.635,15.635,0,0,0,843,15.414,16.445,16.445,0,0,0,859.658,31.6c9.518,0,16.689-6.774,17.046-15.669a2.135,2.135,0,0,1-.01-.306Z" transform="translate(-757.004 -0.023)"/></g></g></svg>