<svg xmlns="http://www.w3.org/2000/svg" viewBox="0 0 69.007 79.243"><defs><style>.a{fill:#fff;}</style></defs><g transform="translate(-0.056)"><g transform="translate(0.056)"><g transform="translate(0 0)"><path class="a" d="M34.33,39.534h.79a2.856,2.856,0,0,0,1.383-.4c.4-.2.4-.79.4-1.383V36.57c0-.2-.2-.593-.4-.593a1.481,1.481,0,0,0-.988-.2h-.988Zm21.342.988A17.28,17.28,0,0,0,53.7,38.942c-.593-.4-.988-.79-1.581-1.186a18.783,18.783,0,0,0-3.162-7.707c0,.988-.2,2.767-.4,5.138-.2.79-.2,1.779-.4,2.569-.4,1.779-.79,3.952-1.383,6.126l-.593,1.779V36.57a14.957,14.957,0,0,0-.2-2.964q-.3-3.853-.593-7.114s0-.593-.2-.79c0-.4-.2-.79-.2-1.186l3.557-1.186a7.374,7.374,0,0,0,5.533,3.755h.79A7.208,7.208,0,0,0,62,21.354a4.351,4.351,0,0,0,.2-1.581A2.93,2.93,0,0,0,62,18.39a7.887,7.887,0,0,0-4.743-5.533,9.919,9.919,0,0,0-2.371-.4,7.425,7.425,0,0,0-7.312,7.312,3.363,3.363,0,0,0,.2,1.383c-.988.4-1.976.79-3.162,1.186C42.629,9.695,38.677,1,34.132,1s-8.5,8.5-10.473,21.145C12.2,17.6,2.711,16.809.538,20.761S3.7,32.42,13.58,40.523l.2.2a.194.194,0,0,1-.2-.2C3.7,48.625-1.636,56.134.538,60.284,2.909,64.236,12.2,63.446,24.054,58.9c1.976,12.647,5.928,21.342,10.473,21.342S43.025,71.745,45,59.1c11.857,4.545,21.145,5.336,23.516,1.383C70.888,56.332,65.355,48.427,55.672,40.523ZM52.51,21.157l.4-3.162c0-.593.2-.988.2-1.383a2.633,2.633,0,0,1,.593-.988,4.32,4.32,0,0,1,.988-.593,6.988,6.988,0,0,1,1.186-.2,2.506,2.506,0,0,1,1.186.2c.4.2.593.2.79.593.2.2.2.593.4.79V17.6l-.2.79H56.265l.2-.79V16.414l-.2-.2h-.79c-.2,0-.2,0-.2.2l-.2.2a.194.194,0,0,1-.2.2v.79l-.4,3.952v.4a.726.726,0,0,0,.2.593c.2.2.2.4.593.4h.4c.2,0,.2,0,.2-.2l.2-.2a.194.194,0,0,1,.2-.2v-.593l.2-.79h1.779v.79c0,.4-.2.79-.2,1.186-.2.4-.2.593-.593.79-.2.2-.593.4-.79.593a2.506,2.506,0,0,1-1.186.2,1.481,1.481,0,0,1-.988-.2c-.2-.2-.593-.2-.79-.4s-.4-.4-.4-.593a1.188,1.188,0,0,1-.2-.79v-.2C52.51,21.749,52.51,21.552,52.51,21.157ZM4.292,22.737c1.779-2.964,9.485-2.174,19.366,1.779a6.723,6.723,0,0,0-.2,1.976,18.4,18.4,0,0,0-5.138,6.521,22.1,22.1,0,0,1,4.743-2.174c.79-.4,1.581-.593,2.371-.988a42.158,42.158,0,0,1,5.928-1.779c.593-.2,1.186-.2,1.779-.4l1.186-.593c.2,0,.2-.2.4-.2-.2,0-.2.2-.4.2-.79.4-1.779.988-2.569,1.383-.4.2-.988.593-1.383.79-.2,0-.2.2-.4.2a6.933,6.933,0,0,0-1.581.988c-1.186.593-2.174,1.383-3.359,1.976-.2.2-.4.2-.593.4s-.4.2-.593.4c-.4.2-.988.593-1.383.79-1.779,1.186-3.952,2.569-5.928,4.15,0-.2-.4.2-.79.4h-.2c-.2.2-.2.2-.4.2q.593.3.593.593l-.4-.4C7.257,32.223,2.514,25.9,4.292,22.737Zm32.8,5.533a16.332,16.332,0,0,0-2.569,1.383c-.593.2-.988.593-1.581.79.593-.2.988-.593,1.581-.79.988-.593,1.779-.988,2.569-1.383A50.532,50.532,0,0,1,41.839,26.1C40.456,26.69,38.875,27.48,37.1,28.271Zm2.569,8.695v.79a4.719,4.719,0,0,1-.4,1.779c-.2.593-.593.79-.988,1.186a1.708,1.708,0,0,1-1.186.593,3.852,3.852,0,0,1-1.581.2H34.33l-.593,5.928H30.97L32.353,34H36.5C38.479,33.8,39.665,34.792,39.665,36.966Zm-16.8-.4h0c-.2.2-.2.2-.4.2.2-.2.2-.2.4-.2ZM34.527,75.5c-3.557,0-6.719-7.114-8.3-17.785.593-.2,1.186-.593,1.779-.79a9.231,9.231,0,0,1-1.976-.988c-.2-.2-.593-.2-.79-.4-.593.2-.988.4-1.581.593-9.881,3.755-17.588,4.743-19.366,1.581s2.767-9.288,11.264-16.007c.593.4.988.79,1.581,1.186a16.985,16.985,0,0,0,6.521,11.264c.593.4,1.186.988,1.779,1.383.2.2.593.2.79.4.593.4,1.383.593,1.976.988a17.407,17.407,0,0,0,6.521,1.186H36.5c-.988-.593-2.371-1.581-4.347-2.964a20.7,20.7,0,0,0-2.174-1.581C28.6,52.379,27.018,51,25.437,49.415l-1.383-1.383s.4.2,1.383.79a.194.194,0,0,1,.2.2L28.6,50.8a27.6,27.6,0,0,0,3.359,1.779c.79.4,1.779.988,2.569,1.383,1.383.593,2.569,1.383,3.952,1.976.79.4,1.779.79,2.569,1.186a7.019,7.019,0,0,1,1.779.79C41.246,68.386,38.084,75.5,34.527,75.5Zm8.5-50.786c0-.593-.2-1.186-.2-1.779-.593.2-1.186.593-1.779.79-.79.4-1.779.79-2.569,1.186.79-.4,1.779-.79,2.569-1.186a17.407,17.407,0,0,0-6.521-1.186A17.117,17.117,0,0,0,28.2,23.725a10.591,10.591,0,0,0-2.174.988c0-.593.2-1.186.2-1.779,1.581-10.473,4.743-17.588,8.3-17.588s6.719,7.114,8.3,17.785a3.852,3.852,0,0,1,.2,1.581v0Zm21.737,33.4c-1.779,2.964-9.485,2.174-19.366-1.779a6.723,6.723,0,0,0,.2-1.976,18.712,18.712,0,0,0,6.521-11.264,9.621,9.621,0,0,0,.2-2.371,6.005,6.005,0,0,0,1.383.988C62,48.822,66.54,54.948,64.762,58.11Zm0-35.175C66.54,26.1,62,32.223,53.5,38.942c.593.593,1.383.988,1.976,1.581,9.881-8.1,15.216-15.611,13.042-19.761-.79-1.383-2.371-2.174-4.545-2.371a5.471,5.471,0,0,1,.2,1.779c0,.593-.2,1.383-.2,1.976C64.367,22.342,64.762,22.54,64.762,22.935Z" transform="translate(-0.056 -1)"/></g></g></g></svg>