<svg xmlns="http://www.w3.org/2000/svg" viewBox="0 0 121.662 45.052"><defs><style>.a{fill:#fff;}</style></defs><path class="a" d="M16.675,15.975A21.09,21.09,0,0,1,13.8,10.53L7.416,17.544,1.61,24.057A21.22,21.22,0,0,0,9.754,34.1c1.836-2.291,3.8-4.708,5.743-7.093L21.21,19.93a15.269,15.269,0,0,1-4.535-3.954" transform="translate(0.916 5.994)"/><path class="a" d="M14.7,18.247H26.516l3.7-4.927Z" transform="translate(8.368 7.582)"/><path class="a" d="M121.631,0H18.831a16.618,16.618,0,0,0-6.983,1.569,20.729,20.729,0,0,0-8.38,7.313A20.4,20.4,0,0,0,0,20.259a22.8,22.8,0,0,0,2.244,9.651h0v.078a21.844,21.844,0,0,0,3.515,6.1,21.436,21.436,0,0,0,4.9,4.331h.11v-.094l.565-.706-4.143,5.43a12.554,12.554,0,0,1,4.551-2.966H25.673c3.782-.141,5.7-6.042-1.946-8.4-.894-.408-.471-1.914.581-2.4h7.721c.973-1.679,1.977-3.484,2.934-5.163h86.7V.031M16.524,32.985,10.7,40.094A21.049,21.049,0,0,1,2.558,30l5.775-6.465,6.387-7.03a20.651,20.651,0,0,0,2.887,5.461,15.018,15.018,0,0,0,4.551,4.017l-5.712,6.967M14.986,16.1,18,13.276l4.1,12.3a14.8,14.8,0,0,1-4.268-3.845,20.839,20.839,0,0,1-2.9-5.508V16.1m4.362.361,3.766-3.39L22.2,25.2Zm3.7,2.37,5.681-3.813-1.695,7.25-4.457,3.3ZM33.613,17.7l-.518,4.614L23.083,25.453Zm1.271,8.1H23.068l15.52-4.927Zm86.5,0H35.229l3.845-5.084.251-.345-.408.141-5.539,1.742.549-4.8v-.314l-.267.188-6.387,4.708,1.695-7.281.078-.345-.3.2-5.79,3.876.408-5.759V12.4l-.251.235-3.923,3.531-1.067-3.138v-.2l-.157.141-3.029,2.809a16.21,16.21,0,0,1-.157-2.432,11.706,11.706,0,0,1,1.867-6.685,7.47,7.47,0,0,1,5.022-3.138,7.25,7.25,0,0,1,1.318-.094L121.38,3.3Z"/><path class="a" d="M17.948,5.693h2.887v4.912h.738V5.05H17.21v5.555h.738Z" transform="translate(9.796 2.875)"/><path class="a" d="M21.39,9.642A1.24,1.24,0,0,0,21.83,10a1.35,1.35,0,0,0,.612.141,1.679,1.679,0,0,0,.894-.251,1.82,1.82,0,0,0,.643-.753,2.746,2.746,0,0,0,.22-1.1A2.589,2.589,0,0,0,24,6.974,1.454,1.454,0,0,0,22.489,6a1.365,1.365,0,0,0-.659.157,1.428,1.428,0,0,0-.5.471V6H20.7v5.6h.69Zm.267-2.762a1,1,0,0,1,.769-.408.957.957,0,0,1,.753.392,1.726,1.726,0,0,1,.33,1.146,1.773,1.773,0,0,1-.33,1.193.973.973,0,0,1-.785.392.942.942,0,0,1-.753-.377,1.7,1.7,0,0,1-.314-1.146,1.9,1.9,0,0,1,.33-1.193" transform="translate(11.783 3.414)"/><path class="a" d="M25.175,10.146a2.024,2.024,0,0,0,.973-.235,1.726,1.726,0,0,0,.69-.69A2.668,2.668,0,0,0,27.058,8a2.087,2.087,0,0,0-.518-1.569A1.8,1.8,0,0,0,25.175,6a1.867,1.867,0,0,0-1.255.455,2.04,2.04,0,0,0-.628,1.569A2.181,2.181,0,0,0,23.81,9.6a1.852,1.852,0,0,0,1.365.534M24.406,6.9a1.13,1.13,0,0,1,.847-.392A1.083,1.083,0,0,1,26.1,6.9a1.569,1.569,0,0,1,.345,1.13,1.679,1.679,0,0,1-.471,1.114,1.036,1.036,0,0,1-.847.392,1.083,1.083,0,0,1-.722-.392,1.742,1.742,0,0,1-.33-1.161,1.726,1.726,0,0,1,.33-1.083" transform="translate(13.255 3.412)"/><path class="a" d="M27.646,10.684a1.318,1.318,0,0,0,.989-.439v1.9h.675v-1.9a1.569,1.569,0,0,0,.549.377,1.569,1.569,0,0,0,.439,0,1.35,1.35,0,0,0,1.13-.581,2.4,2.4,0,0,0,.455-1.569A2.589,2.589,0,0,0,31.46,6.9a1.334,1.334,0,0,0-1.13-.361,1.287,1.287,0,0,0-.549.126,1.459,1.459,0,0,0-.471.361V5.05h-.675V6.964a1.569,1.569,0,0,0-.439-.424,1.287,1.287,0,0,0-.549,0,1.365,1.365,0,0,0-1.161.6,2.479,2.479,0,0,0-.424,1.475,2.385,2.385,0,0,0,.471,1.569,1.4,1.4,0,0,0,1.114.549m1.883-3.248a.753.753,0,0,1,.69-.392.8.8,0,0,1,.69.377,1.9,1.9,0,0,1,.282,1.146,2.056,2.056,0,0,1-.3,1.193.894.894,0,0,1-.706.377.738.738,0,0,1-.628-.314,2.024,2.024,0,0,1-.251-1.224,2.448,2.448,0,0,1,.22-1.161m-2.511,0a.785.785,0,0,1,.69-.392.769.769,0,0,1,.69.408,2.354,2.354,0,0,1,.235,1.193,2.322,2.322,0,0,1-.22,1.114.738.738,0,0,1-.659.377.879.879,0,0,1-.722-.377,2.087,2.087,0,0,1-.282-1.24,1.93,1.93,0,0,1,.267-1.083" transform="translate(14.833 2.875)"/><path class="a" d="M30.943,8.206a.643.643,0,0,1,.392.126,1.757,1.757,0,0,1,.392.486l.722,1.255H33.2l-.738-1.255A1.569,1.569,0,0,0,31.587,8a1.036,1.036,0,0,0,.408-.282,2.574,2.574,0,0,0,.282-.534,2.134,2.134,0,0,1,.235-.5.581.581,0,0,1,.345,0h.2V6.009h-.094a1.475,1.475,0,0,0-.534,0,.5.5,0,0,0-.282.2,2.919,2.919,0,0,0-.33.628,2.7,2.7,0,0,1-.377.722.69.69,0,0,1-.455.126V6.009H30.3v4.064h.69Z" transform="translate(17.248 3.407)"/><path class="a" d="M34.215,10.146a2.024,2.024,0,0,0,.973-.235,1.726,1.726,0,0,0,.69-.69A2.887,2.887,0,0,0,36.1,8a2.087,2.087,0,0,0-.518-1.569A1.8,1.8,0,0,0,34.215,6a1.867,1.867,0,0,0-1.255.455,2.04,2.04,0,0,0-.628,1.569A2.181,2.181,0,0,0,32.85,9.6a1.82,1.82,0,0,0,1.365.534M33.383,6.9a1.13,1.13,0,0,1,.847-.392,1.083,1.083,0,0,1,.847.392,1.569,1.569,0,0,1,.345,1.13A1.679,1.679,0,0,1,35.078,9.2a1.036,1.036,0,0,1-.847.392,1.083,1.083,0,0,1-.847-.455,1.742,1.742,0,0,1-.33-1.161,1.726,1.726,0,0,1,.33-1.083" transform="translate(18.401 3.412)"/><path class="a" d="M35.919,6.648l1.13,3.405h.612L38.854,6.8v3.248h.675V6.02H38.54L37.378,9.237,36.311,6.02H35.26v4.033h.659Z" transform="translate(20.071 3.427)"/><path class="a" d="M41.713,10.143a1.569,1.569,0,0,0,1.114-.392,1.726,1.726,0,0,0,.565-1.083h-.675a1.24,1.24,0,0,1-.33.753,1.02,1.02,0,0,1-.675.251A1,1,0,0,1,40.9,9.3a1.789,1.789,0,0,1-.314-1.177,1.679,1.679,0,0,1,.33-1.161,1.02,1.02,0,0,1,.832-.377.894.894,0,0,1,.581.2,1.067,1.067,0,0,1,.345.612l.659-.094a1.549,1.549,0,0,0-1.6-1.3,2.04,2.04,0,0,0-.973.251,1.569,1.569,0,0,0-.659.738,2.793,2.793,0,0,0-.2,1.13,2.15,2.15,0,0,0,.5,1.569,1.7,1.7,0,0,0,1.318.534" transform="translate(22.704 3.415)"/><path class="a" d="M43.547,10.053h.69V6.585h1.287V6.02H42.26v.565h1.287Z" transform="translate(24.056 3.427)"/><path class="a" d="M46.046,10.237a2.714,2.714,0,0,1-.2.5.973.973,0,0,1-.22.22.847.847,0,0,1-.377.078,2.212,2.212,0,0,1-.392,0v.628a1.3,1.3,0,0,0,.439.094,1.083,1.083,0,0,0,.565-.157,1.381,1.381,0,0,0,.424-.5,6.167,6.167,0,0,0,.377-.91l1.569-4.1h-.69l-.863,2.354a8.692,8.692,0,0,0-.267.91c-.094-.33-.188-.628-.3-.926L45.262,6H44.54l1.569,4.033v.173" transform="translate(25.353 3.415)"/><path class="a" d="M46.8,11.194h.549v-1.13h3.138v1.13h.565V9.5h-.439V6H47.851a5.963,5.963,0,0,1-.738,3.5H46.8Zm1.569-4.6h1.569V9.5H47.8a6.512,6.512,0,0,0,.612-2.9" transform="translate(26.64 3.415)"/><path class="a" d="M51.783,10.173a1.914,1.914,0,0,0,1.161-.33,1.758,1.758,0,0,0,.612-.957l-.706-.094a1.255,1.255,0,0,1-.408.628,1.02,1.02,0,0,1-.643.2,1.114,1.114,0,0,1-.847-.361,1.569,1.569,0,0,1-.377-1h3a.972.972,0,0,0,0-.188A2.213,2.213,0,0,0,53.054,6.5a1.883,1.883,0,0,0-2.668,0,2.181,2.181,0,0,0-.534,1.569,2.134,2.134,0,0,0,.518,1.569,1.852,1.852,0,0,0,1.4.534m-.816-3.327a1.146,1.146,0,0,1,.8-.314,1.036,1.036,0,0,1,.832.392,1.4,1.4,0,0,1,.267.769H50.621a1.271,1.271,0,0,1,.345-.847" transform="translate(28.374 3.385)"/><path class="a" d="M53.45,8.264h1.883v1.789h.69V6.02h-.69V7.7H53.45V6.02h-.69v4.033h.69Z" transform="translate(30.032 3.427)"/><path class="a" d="M56.547,10.053h.69V6.585h1.287V6.02H55.26v.565h1.287Z" transform="translate(31.455 3.427)"/><rect class="a" width="0.675" height="0.785" transform="translate(90.639 7.925)"/><rect class="a" width="0.675" height="4.017" transform="translate(90.639 9.447)"/><path class="a" d="M61.747,9.783a1.051,1.051,0,0,0,.471-.847,1.02,1.02,0,0,0-.188-.612.957.957,0,0,0-.471-.361.989.989,0,0,0,.3-.392,1.036,1.036,0,0,0,.126-.5,1.02,1.02,0,0,0-.2-.612,1.067,1.067,0,0,0-.486-.361A2.981,2.981,0,0,0,60.429,6H58.86v4.064h1.789a1.773,1.773,0,0,0,1.083-.282M59.519,6.644h.753a1.742,1.742,0,0,1,.769.126.439.439,0,0,1,.22.439.455.455,0,0,1-.126.345.659.659,0,0,1-.282.173,2.542,2.542,0,0,1-.6,0h-.738Zm0,2.9V8.292h.832a3.139,3.139,0,0,1,.643,0,.534.534,0,0,1,.33.2.628.628,0,0,1,.126.361.518.518,0,0,1-.235.455,1.569,1.569,0,0,1-.8.141Z" transform="translate(33.505 3.415)"/><path class="a" d="M64.729,10.1a1.161,1.161,0,0,1-.879-.392,1.773,1.773,0,0,1-.424-.816l-.706.188a2.009,2.009,0,0,0,2.009,1.648,2.15,2.15,0,0,0,1.569-.486,1.569,1.569,0,0,0,.565-1.208,1.4,1.4,0,0,0-.345-.894A1.459,1.459,0,0,0,65.8,7.67a1.318,1.318,0,0,0,.738-1.1A1.459,1.459,0,0,0,66.062,5.5,1.852,1.852,0,0,0,64.729,5,1.789,1.789,0,0,0,62.783,6.76l.706.157A1.774,1.774,0,0,1,63.6,6.4a1.083,1.083,0,0,1,.408-.549,1.224,1.224,0,0,1,.722-.235.989.989,0,0,1,.753.282.785.785,0,0,1,.282.628.8.8,0,0,1-.2.549.863.863,0,0,1-.471.3,3.327,3.327,0,0,1-.785,0v.769h.424a1.569,1.569,0,0,1,.973.267.863.863,0,0,1,.361.722.942.942,0,0,1-.345.722,1.318,1.318,0,0,1-.926.314" transform="translate(35.702 2.844)"/><path class="a" d="M66.648,7.984h2.887v2.621h.738V5.05h-.738V7.325H66.648V5.05H65.91v5.555h.738Z" transform="translate(37.518 2.875)"/><path class="a" d="M71.03,10.605h.738V5.693H73.6V5.05H69.21v.643h1.82Z" transform="translate(39.396 2.875)"/><path class="a" d="M73.96,9.915a.722.722,0,0,1-.471.173,1.3,1.3,0,0,1-.628-.173v.628a2.322,2.322,0,0,0,.706.141.942.942,0,0,0,.706-.267,3.75,3.75,0,0,0,.643-1.051L77,5.05h-.738L74.7,8.44l-1.82-3.39H72.14l2.244,4.08a2.228,2.228,0,0,1-.424.785" transform="translate(41.064 2.875)"/><path class="a" d="M27.678,23.49a1.114,1.114,0,0,0-.847.361,1.365,1.365,0,0,0-.33.989,1.334,1.334,0,0,0,.33.957,1.13,1.13,0,0,0,.863.33,1.208,1.208,0,0,0,.738-.2,1.114,1.114,0,0,0,.377-.612h-.439a.832.832,0,0,1-.267.392.69.69,0,0,1-.392.126.722.722,0,0,1-.534-.22.989.989,0,0,1-.235-.643h1.914v-.11a1.428,1.428,0,0,0-.314-.973,1.146,1.146,0,0,0-.832-.345M27,24.62a.73.73,0,0,1,1.24-.534.816.816,0,0,1,.157.486Z" transform="translate(15.083 13.371)"/><rect class="a" width="1.318" height="0.424" transform="translate(44.268 37.975)"/><path class="a" d="M31.956,23.507a.926.926,0,0,0-.785.439.549.549,0,0,0-.251-.314.816.816,0,0,0-.455-.126,1.083,1.083,0,0,0-.455.11,1.146,1.146,0,0,0-.314.3V23.57H29.32V26.1h.424V24.778a1.569,1.569,0,0,1,0-.518.581.581,0,0,1,.22-.282.675.675,0,0,1,.345-.094.361.361,0,0,1,.33.141.643.643,0,0,1,.11.424V26.1h.424V24.622a.769.769,0,0,1,.188-.565.6.6,0,0,1,.439-.173.455.455,0,0,1,.251,0,.361.361,0,0,1,.157.188,1.083,1.083,0,0,1,0,.361V26h.439V24.308a.879.879,0,0,0-.2-.628.785.785,0,0,0-.581-.22" transform="translate(16.69 13.354)"/><path class="a" d="M34,25.012v-.565a2.448,2.448,0,0,0,0-.392.753.753,0,0,0-.141-.3.612.612,0,0,0-.3-.188,1.569,1.569,0,0,0-.518-.078,1.663,1.663,0,0,0-.581.094.942.942,0,0,0-.377.251,1.271,1.271,0,0,0-.188.439h.424a.643.643,0,0,1,.22-.377.8.8,0,0,1,.439-.094.722.722,0,0,1,.486.141.471.471,0,0,1,.173.345v.126a6.371,6.371,0,0,1-.769.141H32.5a.957.957,0,0,0-.314.141.69.69,0,0,0-.22.251.565.565,0,0,0-.078.33.612.612,0,0,0,.188.581.879.879,0,0,0,.643.2,1.24,1.24,0,0,0,.471-.078,2.119,2.119,0,0,0,.455-.282,1.02,1.02,0,0,0,.078.314h.455a.753.753,0,0,1-.11-.314,5.965,5.965,0,0,1,0-.753m-.424,0a.973.973,0,0,1-.078.424.738.738,0,0,1-.282.3.8.8,0,0,1-.439.11.534.534,0,0,1-.377-.11.408.408,0,0,1-.126-.3.267.267,0,0,1,0-.188.345.345,0,0,1,.157-.141l.377-.094a3.453,3.453,0,0,0,.706-.157Z" transform="translate(18.142 13.371)"/><rect class="a" width="0.424" height="0.486" transform="translate(52.82 35.967)"/><rect class="a" width="0.424" height="2.526" transform="translate(52.82 36.924)"/><rect class="a" width="0.424" height="3.484" transform="translate(53.887 35.967)"/><rect class="a" width="0.486" height="0.486" transform="translate(55.096 36.924)"/><rect class="a" width="0.486" height="0.486" transform="translate(55.096 38.964)"/><path class="a" d="M38.84,25.012v-.565a2.024,2.024,0,0,0,0-.392.581.581,0,0,0-.126-.3.69.69,0,0,0-.3-.188,1.663,1.663,0,0,0-.534-.078,1.569,1.569,0,0,0-.565.094.753.753,0,0,0-.377.251.879.879,0,0,0-.188.439l.424.016a.847.847,0,0,1,.22-.377.832.832,0,0,1,.439-.094.69.69,0,0,1,.486.141.424.424,0,0,1,.126.361v.126a5.807,5.807,0,0,1-.769.141H37.3a.879.879,0,0,0-.3.141.565.565,0,0,0-.22.251.581.581,0,0,0-.094.33.659.659,0,0,0,.22.518.91.91,0,0,0,.643.2,1.146,1.146,0,0,0,.471-.078,2.118,2.118,0,0,0,.455-.282,1.036,1.036,0,0,0,.094.314h.439a1.852,1.852,0,0,1-.11-.314v-.753m-.439,0a1,1,0,0,1,0,.424.737.737,0,0,1-.282.3.863.863,0,0,1-.439.11.581.581,0,0,1-.392-.11.408.408,0,0,1-.173-.251.392.392,0,0,1,0-.188.314.314,0,0,1,.173-.141,1.569,1.569,0,0,1,.377-.094,3.515,3.515,0,0,0,.69-.157Z" transform="translate(20.885 13.371)"/><path class="a" d="M40.379,23.789a.738.738,0,0,0-.3-.22,1.177,1.177,0,0,0-.408-.078.91.91,0,0,0-.816.424v-.361H38.48V26.08H38.9V24.7a.8.8,0,0,1,.2-.659.69.69,0,0,1,.471-.173.5.5,0,0,1,.3.078.377.377,0,0,1,.173.2,1.209,1.209,0,0,1,0,.392v1.569h.439V24.542a2.307,2.307,0,0,0,0-.424.942.942,0,0,0-.126-.314" transform="translate(21.904 13.371)"/><path class="a" d="M41.873,24.16a.942.942,0,0,0-.3-.251.8.8,0,0,0-.392-.094.957.957,0,0,0-.565.173.942.942,0,0,0-.377.471,1.569,1.569,0,0,0-.141.675,1.867,1.867,0,0,0,.141.69,1.177,1.177,0,0,0,.392.471,1.02,1.02,0,0,0,.565.157.785.785,0,0,0,.706-.377v.33H42.3V22.92h-.424Zm-.157,1.71a.628.628,0,0,1-.486.235.581.581,0,0,1-.471-.235,1.114,1.114,0,0,1-.2-.738,1.13,1.13,0,0,1,.188-.722.581.581,0,0,1,.471-.235.612.612,0,0,1,.486.235,1.177,1.177,0,0,1,.2.769,1.036,1.036,0,0,1-.188.69" transform="translate(22.826 13.047)"/><rect class="a" width="0.424" height="0.486" transform="translate(65.798 35.967)"/><rect class="a" width="0.424" height="2.526" transform="translate(65.798 36.924)"/><path class="a" d="M43.768,25.091c0,.188-.126.345-.157.486a5.006,5.006,0,0,0-.173-.518l-.534-1.569H42.45l.957,2.526h.408l.957-2.526h-.439Z" transform="translate(24.164 13.371)"/><path class="a" d="M46.261,25.012v-.957a.753.753,0,0,0-.141-.3.612.612,0,0,0-.3-.188,1.569,1.569,0,0,0-.518-.078,1.663,1.663,0,0,0-.581.094.942.942,0,0,0-.377.251,1.036,1.036,0,0,0-.188.439h.424a.722.722,0,0,1,.2-.377.894.894,0,0,1,.455-.094.753.753,0,0,1,.486.141.471.471,0,0,1,.11.361v.126a5.461,5.461,0,0,1-.753.141h-.392a1.036,1.036,0,0,0-.3.141.565.565,0,0,0-.22.251.581.581,0,0,0-.094.33.628.628,0,0,0,.235.518.863.863,0,0,0,.628.2,1.145,1.145,0,0,0,.471-.078,1.8,1.8,0,0,0,.455-.282,1.036,1.036,0,0,0,.094.314H46.4a1.036,1.036,0,0,1-.094-.314,3.86,3.86,0,0,1,0-.753m-.439,0a1,1,0,0,1,0,.424.738.738,0,0,1-.282.3.832.832,0,0,1-.439.11.518.518,0,0,1-.377-.11.361.361,0,0,1-.141-.3.377.377,0,0,1,.235-.33l.377-.094a3.264,3.264,0,0,0,.69-.157Z" transform="translate(25.091 13.371)"/><path class="a" d="M49.319,26.9a2.322,2.322,0,0,1-1.051.22,2.856,2.856,0,0,1-1.051-.2,1.569,1.569,0,0,1-.738-.628,1.867,1.867,0,0,1-.251-1,2.15,2.15,0,0,1,.251-1.036,1.82,1.82,0,0,1,.706-.753,2.056,2.056,0,0,1,1.02-.251,1.883,1.883,0,0,1,.894.2,1.365,1.365,0,0,1,.6.549,1.381,1.381,0,0,1,.2.738,1.365,1.365,0,0,1-.157.659,1.145,1.145,0,0,1-.424.518.675.675,0,0,1-.33.141.2.2,0,0,1-.126,0,.141.141,0,0,1,0-.11,1.191,1.191,0,0,1,.078-.361l.345-1.569h-.424v.361a1.1,1.1,0,0,0-.33-.33.894.894,0,0,0-.392-.094,1.02,1.02,0,0,0-.565.188,1.569,1.569,0,0,0-.486.565,1.679,1.679,0,0,0-.188.753,1.349,1.349,0,0,0,.126.565.847.847,0,0,0,.738.5.69.69,0,0,0,.377-.11.989.989,0,0,0,.345-.282,1.349,1.349,0,0,0,0,.2.345.345,0,0,0,.157.141.628.628,0,0,0,.267,0A1.255,1.255,0,0,0,49.853,26a1.758,1.758,0,0,0,.486-1.224,1.726,1.726,0,0,0-.235-.894,1.569,1.569,0,0,0-.863-.8,2.322,2.322,0,0,0-1.067-.235,2.417,2.417,0,0,0-1.287.33,2.213,2.213,0,0,0-.816.989,2.746,2.746,0,0,0-.251,1.114,2.432,2.432,0,0,0,.282.942,1.836,1.836,0,0,0,.471.628,2.134,2.134,0,0,0,.769.408,3.138,3.138,0,0,0,.973.141,2.589,2.589,0,0,0,.973-.157,2.244,2.244,0,0,0,.706-.408,1.851,1.851,0,0,0,.408-.5h-.424a1.742,1.742,0,0,1-.628.5m-.816-1.569a1.13,1.13,0,0,1-.22.408,1.02,1.02,0,0,1-.282.235.643.643,0,0,1-.267.078A.455.455,0,0,1,47.4,25.8a.722.722,0,0,1-.157-.5,1.726,1.726,0,0,1,0-.455,1.412,1.412,0,0,1,.2-.408.942.942,0,0,1,.251-.251.643.643,0,0,1,.3-.078.565.565,0,0,1,.392.173.832.832,0,0,1,.157.5,1.271,1.271,0,0,1-.094.486" transform="translate(26.082 13.006)"/><path class="a" d="M49.361,25.7l.267-.3,1.365-1.569V23.55H49V23.9h1.569L49,25.747v.345h2.244v-.424h-1.71" transform="translate(27.892 13.405)"/><path class="a" d="M52.489,23.789a.863.863,0,0,0-.3-.22,1.177,1.177,0,0,0-.408-.078.91.91,0,0,0-.816.424v-.361H50.59V26.08h.424V24.7a.8.8,0,0,1,.2-.659.69.69,0,0,1,.471-.173.5.5,0,0,1,.3.078.377.377,0,0,1,.173.2,1.208,1.208,0,0,1,0,.392v1.569H52.6V24.542a2.307,2.307,0,0,0,0-.424.942.942,0,0,0-.126-.314" transform="translate(28.797 13.371)"/><path class="a" d="M53.143,25.982H53a.126.126,0,0,1-.078-.078.784.784,0,0,1,0-.235V24.193h.424v-.33h-.424V23l-.439.251v.628H52.17v.33h.314v1.459a1.192,1.192,0,0,0,0,.5.392.392,0,0,0,.173.188.769.769,0,0,0,.361.078h.33V26.06h-.188" transform="translate(29.697 13.092)"/><path class="a" d="M54.755,24.88a1.742,1.742,0,0,1,0,.486.549.549,0,0,1-.251.282.722.722,0,0,1-.361.094.5.5,0,0,1-.314-.094.392.392,0,0,1-.173-.267,2.59,2.59,0,0,1,0-.455v-1.4h-.424V25.1a2.559,2.559,0,0,0,0,.392.831.831,0,0,0,.141.314.69.69,0,0,0,.282.22,1.192,1.192,0,0,0,.424.078.942.942,0,0,0,.8-.424v.377h.377V23.53h-.5Z" transform="translate(30.297 13.394)"/><rect class="a" width="0.486" height="0.486" transform="translate(86.276 38.964)"/><path class="a" d="M56.848,23.49a1.114,1.114,0,0,0-.847.361,1.365,1.365,0,0,0-.33.989A1.334,1.334,0,0,0,56,25.8a1.146,1.146,0,0,0,.879.33,1.193,1.193,0,0,0,.722-.267,1.02,1.02,0,0,0,.377-.612h-.439a.832.832,0,0,1-.267.392.643.643,0,0,1-.392.126.722.722,0,0,1-.534-.22.989.989,0,0,1-.157-.628h1.883v-.11a1.428,1.428,0,0,0-.314-.973,1.13,1.13,0,0,0-.832-.345m-.706,1.083a.785.785,0,0,1,.22-.534.722.722,0,0,1,1.02,0,.816.816,0,0,1,.157.486Z" transform="translate(31.688 13.371)"/><path class="a" d="M59.148,24.16a.942.942,0,0,0-.3-.251.8.8,0,0,0-.392-.094.957.957,0,0,0-.565.173.942.942,0,0,0-.377.471,1.569,1.569,0,0,0-.126.675,1.867,1.867,0,0,0,.126.69,1.177,1.177,0,0,0,.392.471,1.02,1.02,0,0,0,.565.157.785.785,0,0,0,.706-.377v.33h.392V22.92h-.424Zm-.157,1.71a.628.628,0,0,1-.486.235.6.6,0,0,1-.471-.235,1.114,1.114,0,0,1-.2-.738,1.13,1.13,0,0,1,.188-.722.581.581,0,0,1,.471-.235.643.643,0,0,1,.5.235,1.287,1.287,0,0,1,.188.769,1.036,1.036,0,0,1-.188.69" transform="translate(32.668 13.047)"/><path class="a" d="M60.82,24.88a1.3,1.3,0,0,1,0,.486.6.6,0,0,1-.235.282.722.722,0,0,1-.361.094.581.581,0,0,1-.33-.094.534.534,0,0,1-.173-.267,3.138,3.138,0,0,1,0-.455v-1.4H59.2V25.1a2.166,2.166,0,0,0,0,.392.816.816,0,0,0,.126.314.738.738,0,0,0,.3.22,1.177,1.177,0,0,0,.408.078.91.91,0,0,0,.8-.424v.377h.392V23.53h-.439Z" transform="translate(33.695 13.394)"/><rect class="a" width="0.486" height="0.486" transform="translate(95.739 38.964)"/><path class="a" d="M63.375,24.88a1.3,1.3,0,0,1,0,.486.549.549,0,0,1-.251.282.722.722,0,0,1-.361.094.5.5,0,0,1-.314-.094.439.439,0,0,1-.173-.267,2.59,2.59,0,0,1,0-.455v-1.4h-.424V25.1a2.166,2.166,0,0,0,0,.392.628.628,0,0,0,.126.314.69.69,0,0,0,.282.22,1.271,1.271,0,0,0,.424.078.942.942,0,0,0,.8-.424v.377h.377V23.53h-.424Z" transform="translate(35.203 13.394)"/><path class="a" d="M65.586,25.012v-.565a2.447,2.447,0,0,0,0-.392.753.753,0,0,0-.141-.3.612.612,0,0,0-.3-.188,1.745,1.745,0,0,0-1.083.016.894.894,0,0,0-.392.251,1.036,1.036,0,0,0-.173.439h.408a.722.722,0,0,1,.22-.377.8.8,0,0,1,.439-.094.722.722,0,0,1,.486.141.471.471,0,0,1,.126.361v.126a6.371,6.371,0,0,1-.769.141h-.377a1.13,1.13,0,0,0-.314.141.69.69,0,0,0-.22.251.565.565,0,0,0,0,.33.659.659,0,0,0,.22.518.91.91,0,0,0,.643.2,1.24,1.24,0,0,0,.471-.078,2.118,2.118,0,0,0,.455-.282,1.835,1.835,0,0,0,.078.314h.455a.753.753,0,0,1-.11-.314,5.962,5.962,0,0,1,0-.753m-.424,0a.973.973,0,0,1,0,.424.738.738,0,0,1-.282.3.8.8,0,0,1-.706.235.565.565,0,0,1-.377-.11.408.408,0,0,1-.126-.3.267.267,0,0,1,0-.188.345.345,0,0,1,.157-.141l.377-.094a3.452,3.452,0,0,0,.706-.157Z" transform="translate(36.131 13.371)"/><path class="a" d="M27.91,18.92H27.5v.942H26.56v.392H27.5v.957h.408v-.957h.942v-.392H27.91Z" transform="translate(15.119 10.77)"/><path class="a" d="M29.4,21.734a.565.565,0,0,1-.424-.157.894.894,0,0,1-.251-.518H28.3a1.02,1.02,0,0,0,.345.706,1.13,1.13,0,0,0,.753.267,1.208,1.208,0,0,0,.847-.314,1.051,1.051,0,0,0,.33-.769.894.894,0,0,0-.173-.565.753.753,0,0,0-.471-.3.816.816,0,0,0,.345-.3.738.738,0,0,0,.126-.408.941.941,0,0,0-.126-.455.785.785,0,0,0-.377-.33,1.145,1.145,0,0,0-.518-.126,1.051,1.051,0,0,0-.69.235,1.177,1.177,0,0,0-.361.675l.439.078a.738.738,0,0,1,.2-.471.565.565,0,0,1,.424-.157.612.612,0,0,1,.408.141.518.518,0,0,1,.157.392.486.486,0,0,1-.22.439.879.879,0,0,1-.486.141h-.078v.377h.314a.643.643,0,0,1,.675.675.69.69,0,0,1-.722.722" transform="translate(16.109 10.513)"/><path class="a" d="M30.05,21.005a1,1,0,0,0,.314.769,1.13,1.13,0,0,0,.832.3,1.146,1.146,0,0,0,.832-.3,1.036,1.036,0,0,0,.314-.753.957.957,0,0,0-.173-.565.847.847,0,0,0-.486-.33.816.816,0,0,0,.392-.282.722.722,0,0,0,.126-.424.847.847,0,0,0-.282-.643,1.036,1.036,0,0,0-.738-.267,1.02,1.02,0,0,0-.722.267.816.816,0,0,0-.267.643.675.675,0,0,0,.126.424.753.753,0,0,0,.392.282.769.769,0,0,0-.486.314.863.863,0,0,0-.173.565m.565-1.569a.471.471,0,0,1,.173-.377A.534.534,0,0,1,31.2,18.9a.5.5,0,0,1,.392.157.534.534,0,0,1,.173.392.518.518,0,0,1-.157.377.549.549,0,0,1-.408.157.565.565,0,0,1-.581-.549m0,1.1a.706.706,0,0,1,.5-.188.69.69,0,0,1,.518.2.722.722,0,0,1,0,1,.691.691,0,0,1-.5.188.722.722,0,0,1-.361-.078.628.628,0,0,1-.267-.267.753.753,0,0,1-.078-.361.706.706,0,0,1,.188-.5" transform="translate(17.105 10.536)"/><path class="a" d="M34.625,18.949a1.036,1.036,0,0,0-.361-.33,1.161,1.161,0,0,0-.486-.11,1,1,0,0,0-.628.2,1.177,1.177,0,0,0-.377.581,2.9,2.9,0,0,0-.141,1,2.275,2.275,0,0,0,.361,1.412.942.942,0,0,0,.785.361,1,1,0,0,0,.628-.2,1.177,1.177,0,0,0,.377-.581,2.919,2.919,0,0,0,.126-.989,3.045,3.045,0,0,0,0-.832,1.977,1.977,0,0,0-.2-.518m-.361,2.479a.581.581,0,0,1-.486.282.6.6,0,0,1-.5-.282,2.275,2.275,0,0,1-.188-1.13,2.087,2.087,0,0,1,.22-1.177.518.518,0,0,1,.471-.251.581.581,0,0,1,.486.282,2.1,2.1,0,0,1,.2,1.146,2.071,2.071,0,0,1-.2,1.13" transform="translate(18.571 10.536)"/><path class="a" d="M35.624,19.761a1.146,1.146,0,0,0-.471.11.926.926,0,0,0-.377.361,2.166,2.166,0,0,1,.126-.816.8.8,0,0,1,.314-.424.628.628,0,0,1,.785,0,.847.847,0,0,1,.157.377h.424a.973.973,0,0,0-.314-.643.957.957,0,0,0-.675-.235,1.036,1.036,0,0,0-.863.408,2.26,2.26,0,0,0-.377,1.459,2.024,2.024,0,0,0,.33,1.3,1.146,1.146,0,0,0,.879.392,1.067,1.067,0,0,0,.942-.581,1.35,1.35,0,0,0,.141-.612,1.146,1.146,0,0,0-.3-.816.989.989,0,0,0-.722-.314m.392,1.742a.565.565,0,0,1-.471.22A.675.675,0,0,1,35.2,21.6a.753.753,0,0,1-.267-.314.942.942,0,0,1-.094-.424.753.753,0,0,1,.2-.549.722.722,0,0,1,.486-.2.659.659,0,0,1,.486.2.989.989,0,0,1,0,1.161" transform="translate(19.55 10.525)"/><path class="a" d="M37.153,22.009h.424v-3.5H37.31a1.569,1.569,0,0,1-.392.471,2.291,2.291,0,0,1-.628.408V19.8a1.977,1.977,0,0,0,.455-.22,2.291,2.291,0,0,0,.408-.282Z" transform="translate(20.657 10.536)"/><path class="a" d="M39.4,21.367l.486-.439a4.44,4.44,0,0,0,.659-.612,1.4,1.4,0,0,0,.3-.424,1.177,1.177,0,0,0,.078-.408.879.879,0,0,0-.3-.69,1.067,1.067,0,0,0-.785-.282,1.208,1.208,0,0,0-.8.267,1.114,1.114,0,0,0-.33.738h.439a.659.659,0,0,1,.188-.5.628.628,0,0,1,.486-.188.612.612,0,0,1,.471.173.565.565,0,0,1,.188.424.832.832,0,0,1-.2.518,4.41,4.41,0,0,1-.769.738,4.519,4.519,0,0,0-.549.534,1.1,1.1,0,0,0-.282.455.675.675,0,0,0,0,.3H40.92v-.408H39.194a1.24,1.24,0,0,1,.188-.235" transform="translate(22.006 10.536)"/><path class="a" d="M41.139,21.36l.5-.439a6.983,6.983,0,0,0,.659-.612,1.663,1.663,0,0,0,.282-.424.91.91,0,0,0,0-.408.926.926,0,0,0-.282-.69,1.287,1.287,0,0,0-1.569,0,1.067,1.067,0,0,0-.345.738h.439a.659.659,0,0,1,.188-.5.746.746,0,0,1,.973-.016.612.612,0,0,1,.173.424.91.91,0,0,1-.188.518,5.069,5.069,0,0,1-.769.738,3.828,3.828,0,0,0-.565.534,1.569,1.569,0,0,0-.282.455.989.989,0,0,0,0,.3h2.307v-.408H40.966l.173-.235" transform="translate(22.964 10.542)"/><path class="a" d="M43.569,18.52,42,20.842v.392h1.569v.832h.424v-.832h.471v-.392h-.471V18.52Zm0,2.322h-1.1l1.1-1.569Z" transform="translate(23.908 10.542)"/><rect class="a" width="1.318" height="0.424" transform="translate(68.748 31.071)"/><path class="a" d="M46.683,22v-.832h.471v-.33h-.471V18.52h-.314L44.8,20.78v.392h1.569V22ZM45.114,20.78,46.2,19.21V20.78Z" transform="translate(25.501 10.542)"/><path class="a" d="M47.44,20.723a4.52,4.52,0,0,0-.549.534,1.1,1.1,0,0,0-.282.455.5.5,0,0,0,0,.3h2.2V21.6H47.142a2.481,2.481,0,0,1,.188-.235l.486-.439a4.441,4.441,0,0,0,.659-.612,1.114,1.114,0,0,0,.282-.424.91.91,0,0,0,.094-.408.879.879,0,0,0-.3-.69,1.067,1.067,0,0,0-.785-.282,1.208,1.208,0,0,0-.8.267,1.114,1.114,0,0,0-.33.738h.439a.659.659,0,0,1,.188-.5.643.643,0,0,1,.486-.188.581.581,0,0,1,.471.173.565.565,0,0,1,.188.424.832.832,0,0,1-.2.518,4.409,4.409,0,0,1-.769.738" transform="translate(26.518 10.536)"/><rect class="a" width="1.318" height="0.424" transform="translate(75.778 31.071)"/><path class="a" d="M50.474,21.734a.628.628,0,0,1-.439-.157.894.894,0,0,1-.251-.518H49.36a1.083,1.083,0,0,0,.345.706,1.13,1.13,0,0,0,.753.267,1.208,1.208,0,0,0,.847-.314,1.051,1.051,0,0,0,.33-.769.816.816,0,0,0-.173-.565.753.753,0,0,0-.471-.3.973.973,0,0,0,.361-.3.722.722,0,0,0,.11-.408.942.942,0,0,0-.126-.455.816.816,0,0,0-.361-.33,1.208,1.208,0,0,0-.534-.126,1.051,1.051,0,0,0-.69.235,1.083,1.083,0,0,0-.345.675l.424.078a.737.737,0,0,1,.2-.471.565.565,0,0,1,.424-.157.581.581,0,0,1,.408.141.518.518,0,0,1,.157.392.455.455,0,0,1-.22.439.847.847,0,0,1-.486.141h0v.377h.314a.643.643,0,0,1,.675.675.7.7,0,0,1-.706.722" transform="translate(28.097 10.513)"/><path class="a" d="M52.194,21.7a.659.659,0,0,1-.439-.157.832.832,0,0,1-.22-.486H51.08a1.02,1.02,0,0,0,.345.706,1.146,1.146,0,0,0,.769.267,1.13,1.13,0,0,0,.926-.424,1.334,1.334,0,0,0,.267-.816,1.083,1.083,0,0,0-.314-.816,1.036,1.036,0,0,0-.769-.314,1.224,1.224,0,0,0-.659.22l.188-.942h1.4V18.53H51.5l-.345,1.789h.408a.643.643,0,0,1,.251-.251.753.753,0,0,1,.377-.094.69.69,0,0,1,.534.22.753.753,0,0,1,.2.565.894.894,0,0,1-.2.628.659.659,0,0,1-.534.22" transform="translate(29.076 10.548)"/><path class="a" d="M54.83,21.656V19.491h.816V19.13H53.59v.361h.816v2.166Z" transform="translate(30.505 10.889)"/><rect class="a" width="0.486" height="0.486" transform="translate(86.151 32.059)"/><path class="a" d="M56.83,18.48h-.345l-1,3.609h.345Z" transform="translate(31.581 10.519)"/><path class="a" d="M58.067,23.016h.424V21.824a.957.957,0,0,0,.345.235h.282a.879.879,0,0,0,.706-.361,1.779,1.779,0,0,0,.016-1.9.816.816,0,0,0-.706-.377.8.8,0,0,0-.345,0,1.036,1.036,0,0,0-.3.235V18.45h-.424v1.208a.816.816,0,0,0-.282-.235.8.8,0,0,0-.345,0,.879.879,0,0,0-.722.361,1.791,1.791,0,0,0,.031,1.93.926.926,0,0,0,.69.345.847.847,0,0,0,.345-.078.8.8,0,0,0,.282-.2Zm.565-2.95a.455.455,0,0,1,.424-.251.5.5,0,0,1,.439.235,1.255,1.255,0,0,1,.173.722,1.193,1.193,0,0,1-.188.738.518.518,0,0,1-.439.251.471.471,0,0,1-.392-.2,1.24,1.24,0,0,1-.157-.769,1.475,1.475,0,0,1,.141-.722m-.706,1.444a.439.439,0,0,1-.408.235.549.549,0,0,1-.455-.235,1.35,1.35,0,0,1-.173-.769,1.193,1.193,0,0,1,.157-.675.518.518,0,0,1,.439-.251.471.471,0,0,1,.439.251,1.569,1.569,0,0,1,.141.753,1.334,1.334,0,0,1-.141.69" transform="translate(32.132 10.502)"/><rect class="a" width="0.486" height="0.486" transform="translate(92.851 32.059)"/></svg>