<svg xmlns="http://www.w3.org/2000/svg" viewBox="0 0 89.713 48.616"><defs><style>.a{fill:#fff;}</style></defs><path class="a" d="M7.168,66.916V65.841c0-1.1-.347-1.58-1.125-1.58s-1.121.463-1.121,1.58c0,3.346,6.155,3.346,6.155,9.58,0,3.988-1.241,5.22-5.059,5.22C2.46,80.645,1,79.574,1,76.041V74.25H4.909v1.336c0,1.1.347,1.58,1.125,1.58s1.125-.455,1.125-1.58C7.143,71.632,1,72.045,1,65.659c0-3.425,1.3-4.869,5.047-4.869,3.309,0,4.922,1.241,4.922,4.629v1.5Z" transform="translate(-0.586 -35.644)"/><path class="a" d="M29.476,65.173h-2.9V61.69h9.688v3.479h-2.9V80.8h-3.9Z" transform="translate(-15.585 -36.172)"/><path class="a" d="M50.53,80.807,53.769,61.7H58.96L62.2,80.807H58.17l-.455-3.371H55l-.414,3.371ZM55.4,73.952h1.874l-.827-9.047h-.054Z" transform="translate(-29.628 -36.178)"/><path class="a" d="M81.84,80.8V61.69h5.005c3.425,0,4.964.856,4.964,3.909v2.275a2.632,2.632,0,0,1-2.246,2.862v.054c1.6.269,2.354,1.34,2.354,3.772V78.7c0,1.473,0,1.791.269,2.068h-3.95A1.7,1.7,0,0,1,88,79.99V73.52c0-.641-.455-.964-1.241-.964H85.745V80.8Zm3.909-11.723h.989c.827,0,1.15-.269,1.15-1.952,0-1.58-.215-1.952-1.15-1.952h-.993Z" transform="translate(-47.987 -36.172)"/><path class="a" d="M110.9,65.173H108V61.69h9.688v3.479h-2.9V80.8h-3.9Z" transform="translate(-63.326 -36.172)"/><path class="a" d="M121.85,2.07h8.029V5.549h-4.137V9.458h3.934v3.479h-3.917v8.24H121.85Z" transform="translate(-71.447 -1.214)"/><path class="a" d="M145.79,2.07h8.029V5.549h-4.137V9.458h3.934v3.479h-3.934V17.7h4.137v3.479H145.79Z" transform="translate(-85.484 -1.214)"/><path class="a" d="M174.059,7.3V6.219c0-1.1-.347-1.58-1.125-1.58s-1.125.455-1.125,1.58c0,3.346,6.155,3.346,6.155,9.58,0,3.988-1.241,5.22-5.059,5.22-3.562,0-5.005-1.071-5.005-4.6v-1.8h3.9v1.336c0,1.1.347,1.58,1.125,1.58s1.125-.455,1.125-1.58C174.03,12,167.9,12.4,167.9,6.029c0-3.425,1.282-4.869,5.03-4.869,3.309,0,4.922,1.241,4.922,4.629V7.3Z" transform="translate(-98.448 -0.68)"/><path class="a" d="M196.356,5.549h-2.9V2.07h9.688V5.549h-2.9V21.177h-3.909Z" transform="translate(-113.435 -1.214)"/><path class="a" d="M70.033,0,60.18.033l8.017,10.2-7.955,10.25,9.857-.029L78.05,10.2Z" transform="translate(-35.286)"/><path class="a" d="M43.477,4.66l-8.037.021L41.976,13l-6.486,8.36,8.037-.025,6.486-8.36Z" transform="translate(-20.78 -2.732)"/><path class="a" d="M21.162,8.93,14.8,8.951l5.175,6.589-5.138,6.618,6.366-.021,5.138-6.618Z" transform="translate(-8.678 -5.236)"/><path class="a" d="M154.554,73.242c0,4.964-2.213,6.2-6.937,6.2s-6.937-1.241-6.937-6.2V52.58h5.377V72.435c0,1.845.443,2.213,1.551,2.213s1.551-.368,1.551-2.213V52.58h5.377Z" transform="translate(-82.488 -30.83)"/><path class="a" d="M186.577,78.925H181.2V52.58h6.639c5.274,0,6.929,1.328,6.929,6.014v5.018c0,4.687-1.655,6.014-6.937,6.014H186.59Zm0-14.093h1.365c1.216,0,1.584-.592,1.584-3.466,0-3.764-.294-3.983-1.584-3.983h-1.365Z" transform="translate(-106.246 -30.83)"/><rect class="a" width="54.457" height="1.109" transform="translate(0 21.684)"/><rect class="a" width="54.457" height="1.109" transform="translate(0 46.983)"/></svg>