<svg xmlns="http://www.w3.org/2000/svg" viewBox="0 0 117.3 60.93"><defs><style>.a{fill:#fff;}</style></defs><g transform="translate(-18.7 -5.7)"><g transform="translate(68.594 5.7)"><path class="a" d="M265.8,1034.1a7.68,7.68,0,0,0-7.5,7.85,8.1,8.1,0,0,0,.958,3.832l.312.562,6.205,11.307,6.205-11.307a5.268,5.268,0,0,0,.271-.458l.062-.083a8.1,8.1,0,0,0,.958-3.832A7.655,7.655,0,0,0,265.8,1034.1Zm0,3.936a3.929,3.929,0,1,1-3.748,3.936A3.843,3.843,0,0,1,265.8,1038.036Z" transform="translate(-258.3 -1034.1)"/><path class="a" d="M276.485,1048.3a4.92,4.92,0,1,0,4.685,4.914A4.812,4.812,0,0,0,276.485,1048.3Zm0,1.957a2.939,2.939,0,1,1-2.811,2.936A2.868,2.868,0,0,1,276.485,1050.257Z" transform="translate(-268.989 -1045.343)"/></g><g transform="translate(19.012 59.904)"><g transform="translate(0)"><path class="a" d="M23.282,266.342h.437l.937,2.374.937-2.374h.437l-1.083,2.77L26.26,272.3l2.395-6h.5l-2.686,6.559h-.416l-1.374-3.373-1.4,3.373h-.416L20.2,266.3h.479l2.416,6,1.291-3.186Z" transform="translate(-20.2 -266.237)"/><path class="a" d="M80.465,272.443v.416H76.3V266.3h4.1v.416H76.758V269.3h3.186v.416H76.758v2.728Z" transform="translate(-64.618 -266.237)"/><path class="a" d="M115.5,271.073a1.727,1.727,0,0,1-.125.666,1.579,1.579,0,0,1-.9.9,1.7,1.7,0,0,1-.646.125H110.9V266.2h2.915a1.1,1.1,0,0,1,.583.146,2,2,0,0,1,.458.375,1.7,1.7,0,0,1,.292.541,2.045,2.045,0,0,1,.1.6,1.928,1.928,0,0,1-.229.916,1.441,1.441,0,0,1-.666.6,1.516,1.516,0,0,1,.854.625A2.144,2.144,0,0,1,115.5,271.073Zm-4.165-4.415v2.624h2.291a1.06,1.06,0,0,0,.458-.1,1.221,1.221,0,0,0,.375-.292,1.33,1.33,0,0,0,.333-.916,1.26,1.26,0,0,0-.083-.5,1.342,1.342,0,0,0-.229-.416,1.207,1.207,0,0,0-.354-.292,1.135,1.135,0,0,0-.458-.1h-2.332Zm3.707,4.352a1.4,1.4,0,0,0-.083-.5,1.5,1.5,0,0,0-.25-.437,1.018,1.018,0,0,0-.375-.292,1.135,1.135,0,0,0-.458-.1h-2.54v2.686h2.478a1.431,1.431,0,0,0,.5-.1,1.088,1.088,0,0,0,.4-.292,2.23,2.23,0,0,0,.271-.437A2.1,2.1,0,0,0,115.044,271.01Z" transform="translate(-92.013 -266.158)"/><path class="a" d="M169.627,272.622l-.812-.875a3.1,3.1,0,0,1-.854.708,2.305,2.305,0,0,1-1.832.146,1.533,1.533,0,0,1-.625-.354,2.173,2.173,0,0,1-.437-.541,1.634,1.634,0,0,1-.167-.729,1.834,1.834,0,0,1,.1-.6,2.559,2.559,0,0,1,.292-.521,2.176,2.176,0,0,1,.437-.437c.167-.146.354-.271.541-.416-.167-.187-.312-.354-.416-.5a2,2,0,0,1-.271-.416,1.6,1.6,0,0,1-.146-.354.917.917,0,0,1-.042-.333,1.215,1.215,0,0,1,.125-.541,1.667,1.667,0,0,1,.312-.437,1.59,1.59,0,0,1,.479-.312,1.478,1.478,0,0,1,.6-.1,1.683,1.683,0,0,1,.562.1,1.189,1.189,0,0,1,.437.271,1.088,1.088,0,0,1,.292.4,1.258,1.258,0,0,1,.1.5,1.129,1.129,0,0,1-.125.521,2.23,2.23,0,0,1-.312.458,2.949,2.949,0,0,1-.458.416c-.167.125-.354.271-.541.4l1.895,2.041a3.259,3.259,0,0,0,.292-.791,4.214,4.214,0,0,0,.1-.9h.4a4.174,4.174,0,0,1-.521,1.978l1.145,1.229Zm-2.665-.292a1.928,1.928,0,0,0,.916-.229,2.883,2.883,0,0,0,.708-.625l-2-2.186c-.167.125-.333.25-.479.375a2.232,2.232,0,0,0-.375.4,2.494,2.494,0,0,0-.271.437,1.367,1.367,0,0,0-.083.521,1.056,1.056,0,0,0,.146.583,1.2,1.2,0,0,0,.375.416,1.347,1.347,0,0,0,.521.25A2.269,2.269,0,0,0,166.962,272.33Zm-1.124-4.956a.79.79,0,0,0,.146.521q.094.156.25.375c.1.146.25.312.416.5a6.714,6.714,0,0,0,.937-.729,1.066,1.066,0,0,0,.354-.77.854.854,0,0,0-.292-.646,1.068,1.068,0,0,0-.729-.25.966.966,0,0,0-.437.083,1.289,1.289,0,0,0-.354.229.74.74,0,0,0-.229.333A.9.9,0,0,0,165.837,267.374Z" transform="translate(-134.768 -266)"/><path class="a" d="M228.464,272.859V267.2l-2.478,4.415h-.292l-2.436-4.415v5.664H222.8V266.3h.458l2.6,4.685,2.6-4.685h.458v6.559Z" transform="translate(-180.611 -266.238)"/><path class="a" d="M269.615,272.743a2.5,2.5,0,0,1-1.187-.292,2.9,2.9,0,0,1-.916-.75,3.8,3.8,0,0,1-.6-1.062,3.544,3.544,0,0,1-.208-1.229,3.593,3.593,0,0,1,.229-1.249,3.4,3.4,0,0,1,.625-1.062,2.657,2.657,0,0,1,.937-.729,2.465,2.465,0,0,1,1.166-.271,2.5,2.5,0,0,1,1.187.292,2.708,2.708,0,0,1,.916.77,4.121,4.121,0,0,1,.6,1.062,3.43,3.43,0,0,1,.208,1.208,3.71,3.71,0,0,1-.229,1.27,3.4,3.4,0,0,1-.625,1.062,2.92,2.92,0,0,1-.937.729A2.8,2.8,0,0,1,269.615,272.743Zm-2.478-3.311a3.2,3.2,0,0,0,.187,1.083,2.836,2.836,0,0,0,.521.916,2.632,2.632,0,0,0,.791.646,2.093,2.093,0,0,0,1,.25,2.115,2.115,0,0,0,1.02-.25,2.383,2.383,0,0,0,.77-.666,3.356,3.356,0,0,0,.5-.937,3.065,3.065,0,0,0,.167-1.062,3.2,3.2,0,0,0-.187-1.083,2.835,2.835,0,0,0-.521-.916,2.633,2.633,0,0,0-.791-.646,1.956,1.956,0,0,0-.979-.25,2.115,2.115,0,0,0-1.02.25,2.7,2.7,0,0,0-.791.666,2.892,2.892,0,0,0-.5.937A3.065,3.065,0,0,0,267.137,269.432Z" transform="translate(-215.37 -266.079)"/><path class="a" d="M313.8,271.073a1.727,1.727,0,0,1-.125.666,1.579,1.579,0,0,1-.9.9,1.7,1.7,0,0,1-.646.125H309.2V266.2h2.915a1.1,1.1,0,0,1,.583.146,2,2,0,0,1,.458.375,1.7,1.7,0,0,1,.292.541,2.046,2.046,0,0,1,.1.6,1.928,1.928,0,0,1-.229.916,1.348,1.348,0,0,1-.666.6,1.516,1.516,0,0,1,.854.625A2.144,2.144,0,0,1,313.8,271.073Zm-4.165-4.415v2.624h2.291a1.06,1.06,0,0,0,.458-.1,1.221,1.221,0,0,0,.375-.292,1.33,1.33,0,0,0,.333-.916,1.26,1.26,0,0,0-.083-.5,1.342,1.342,0,0,0-.229-.416,1.207,1.207,0,0,0-.354-.292,1.061,1.061,0,0,0-.458-.1h-2.332Zm3.727,4.352a1.4,1.4,0,0,0-.083-.5,1.5,1.5,0,0,0-.25-.437,1.018,1.018,0,0,0-.375-.292,1.135,1.135,0,0,0-.458-.1h-2.54v2.686h2.478a1.431,1.431,0,0,0,.5-.1,1.762,1.762,0,0,0,.4-.292,2.23,2.23,0,0,0,.271-.437A3.956,3.956,0,0,0,313.365,271.01Z" transform="translate(-249.019 -266.158)"/><path class="a" d="M345.8,272.859V266.3h.458v6.559Z" transform="translate(-277.998 -266.237)"/><path class="a" d="M364.5,272.859V266.3h.458v6.122h3.748v.416H364.5Z" transform="translate(-292.804 -266.237)"/><path class="a" d="M401.865,272.443v.416H397.7V266.3h4.1v.416h-3.644V269.3h3.186v.416h-3.186v2.728Z" transform="translate(-319.09 -266.237)"/><path class="a" d="M449.665,266.3h.4l2.645,6.559h-.479l-.875-2.166h-3l-.875,2.166H447Zm1.562,4.019-1.374-3.436-1.4,3.436Z" transform="translate(-358.124 -266.237)"/><path class="a" d="M487.6,272.859V266.3h2.582a1.7,1.7,0,0,1,.729.167,2.1,2.1,0,0,1,.583.458,2.015,2.015,0,0,1,.375.646,2.27,2.27,0,0,1,.146.729,2.39,2.39,0,0,1-.125.77,2.144,2.144,0,0,1-.354.646,1.753,1.753,0,0,1-.562.458,1.446,1.446,0,0,1-.729.167h-2.186v2.478l-.458.042Zm.437-2.915H490.2a1.24,1.24,0,0,0,.562-.125,1.148,1.148,0,0,0,.417-.354,1.552,1.552,0,0,0,.271-.521,1.993,1.993,0,0,0-.021-1.208,1.6,1.6,0,0,0-.292-.521,1.425,1.425,0,0,0-.437-.354,1.215,1.215,0,0,0-.541-.125h-2.1l-.021,3.207Z" transform="translate(-390.27 -266.237)"/><path class="a" d="M522.5,272.859V266.3h2.582a1.7,1.7,0,0,1,.729.167,2.106,2.106,0,0,1,.583.458,2.016,2.016,0,0,1,.375.646,2.269,2.269,0,0,1,.146.729,2.389,2.389,0,0,1-.125.77,2.144,2.144,0,0,1-.354.646,1.752,1.752,0,0,1-.562.458,1.446,1.446,0,0,1-.729.167h-2.186v2.478l-.458.042Zm.437-2.915H525.1a1.24,1.24,0,0,0,.562-.125,1.148,1.148,0,0,0,.416-.354,1.551,1.551,0,0,0,.271-.521,1.993,1.993,0,0,0-.021-1.208,1.6,1.6,0,0,0-.292-.521,1.425,1.425,0,0,0-.437-.354,1.215,1.215,0,0,0-.541-.125h-2.1l-.021,3.207Z" transform="translate(-417.902 -266.237)"/><path class="a" d="M558.986,267.245a2.116,2.116,0,0,0-1.728-.708,1.96,1.96,0,0,0-1.333.375,1.257,1.257,0,0,0-.417.979,1.286,1.286,0,0,0,.1.521.9.9,0,0,0,.333.354,1.76,1.76,0,0,0,.562.25c.229.062.5.146.833.208a8.231,8.231,0,0,1,.916.25,2.64,2.64,0,0,1,.687.333,1.273,1.273,0,0,1,.437.5,1.516,1.516,0,0,1,.146.729,1.659,1.659,0,0,1-.167.75,1.632,1.632,0,0,1-.458.541,2.232,2.232,0,0,1-.708.333,3.167,3.167,0,0,1-.916.1,3.442,3.442,0,0,1-2.478-.979l.229-.375a2.771,2.771,0,0,0,.979.687,3.245,3.245,0,0,0,1.291.25,2.322,2.322,0,0,0,1.291-.312,1.057,1.057,0,0,0,.458-.958,1.1,1.1,0,0,0-.125-.541,1.127,1.127,0,0,0-.375-.4,3.264,3.264,0,0,0-.6-.292,6.584,6.584,0,0,0-.875-.229c-.333-.083-.625-.146-.9-.229a2.33,2.33,0,0,1-.646-.312,1.2,1.2,0,0,1-.4-.458,1.586,1.586,0,0,1-.125-.666,1.918,1.918,0,0,1,.167-.791,1.778,1.778,0,0,1,1.145-.937,3,3,0,0,1,.9-.125,2.953,2.953,0,0,1,1.083.187,2.576,2.576,0,0,1,.875.583Z" transform="translate(-443.476 -266.079)"/></g></g><g transform="translate(18.7 38.685)"><path class="a" d="M22.865,167.286a1.25,1.25,0,0,0-.437,1,1.116,1.116,0,0,0,.541.979,8.774,8.774,0,0,0,2.457.854,6.765,6.765,0,0,1,3,1.5,3.774,3.774,0,0,1,1.062,2.894,3.913,3.913,0,0,1-1.374,3.1,5.292,5.292,0,0,1-3.6,1.187,8.176,8.176,0,0,1-5.81-2.5l1.812-2.311a6.34,6.34,0,0,0,4.061,2.02,2.05,2.05,0,0,0,1.312-.375,1.309,1.309,0,0,0-.021-2.041,6.656,6.656,0,0,0-2-.77,8.254,8.254,0,0,1-3.457-1.541A4.34,4.34,0,0,1,20.7,165.2a5.411,5.411,0,0,1,3.457-1.1,8.246,8.246,0,0,1,2.707.479,7.882,7.882,0,0,1,2.374,1.374l-1.52,2.353a5.809,5.809,0,0,0-3.644-1.4A1.784,1.784,0,0,0,22.865,167.286Z" transform="translate(-18.7 -164.1)"/><path class="a" d="M81.126,179.9H78.106v-5.6L73.4,165.7h3.29l2.936,5.289,2.936-5.289h3.29l-4.727,8.6Z" transform="translate(-62.009 -165.367)"/><path class="a" d="M149.675,165.8h3.019V180h-3.019l-6.455-8.892V180H140.2V165.8h2.832l6.664,9.142V165.8Z" transform="translate(-114.899 -165.446)"/><path class="a" d="M226.57,167.653a6.8,6.8,0,0,1,1.937,5.164,7.151,7.151,0,0,1-1.895,5.248c-1.27,1.291-3.186,1.937-5.768,1.937H216.2V165.8h4.789A7.688,7.688,0,0,1,226.57,167.653Zm-2.228,8.434a4.245,4.245,0,0,0,1.124-3.186,4.379,4.379,0,0,0-1.124-3.228,4.676,4.676,0,0,0-3.436-1.124h-1.687v8.642h1.916A4.339,4.339,0,0,0,224.342,176.087Z" transform="translate(-175.073 -165.446)"/><path class="a" d="M287.9,165.8h3.019V180H287.9Z" transform="translate(-231.842 -165.446)"/><path class="a" d="M321.638,176a4.407,4.407,0,0,0,3.644-1.853l1.937,2.082a7.1,7.1,0,0,1-10.6.666,7.144,7.144,0,0,1-2.02-5.227,7.257,7.257,0,0,1,2.062-5.268,6.759,6.759,0,0,1,5.06-2.1,7.028,7.028,0,0,1,5.581,2.665l-1.874,2.228a4.335,4.335,0,0,0-3.561-1.874,4.074,4.074,0,0,0-2.915,1.166,4.142,4.142,0,0,0-1.208,3.144,4.432,4.432,0,0,0,1.145,3.186A3.641,3.641,0,0,0,321.638,176Z" transform="translate(-252.983 -164.258)"/><path class="a" d="M393.782,176.757a7.139,7.139,0,0,1-10.12,0,7.657,7.657,0,0,1,0-10.454,7.139,7.139,0,0,1,10.12,0,7.657,7.657,0,0,1,0,10.454Zm-1.02-5.206A4.82,4.82,0,0,0,391.6,168.3a3.72,3.72,0,0,0-5.706,0,4.82,4.82,0,0,0-1.166,3.249,4.729,4.729,0,0,0,1.166,3.228,3.72,3.72,0,0,0,5.706,0A4.8,4.8,0,0,0,392.762,171.551Z" transform="translate(-306.031 -164.179)"/><path class="a" d="M472.67,167.653a6.8,6.8,0,0,1,1.937,5.164,7.151,7.151,0,0,1-1.895,5.248c-1.27,1.291-3.186,1.937-5.768,1.937H462.3V165.8h4.789A7.688,7.688,0,0,1,472.67,167.653Zm-2.228,8.434a4.245,4.245,0,0,0,1.124-3.186,4.379,4.379,0,0,0-1.124-3.228,4.676,4.676,0,0,0-3.436-1.124h-1.687v8.642h1.916A4.405,4.405,0,0,0,470.442,176.087Z" transform="translate(-369.926 -165.446)"/><path class="a" d="M543.787,165.8v2.832H537.04v2.915h6.081v2.707H537.04v2.936H544V180H534V165.8Z" transform="translate(-426.695 -165.446)"/></g></g></svg>