<svg xmlns="http://www.w3.org/2000/svg" viewBox="0 0 120.984 36.285"><defs><style>.a,.b{fill:#fff;}.b{fill-rule:evenodd;}</style></defs><g transform="translate(0 0)"><path class="a" d="M11.688,1.174V4.739H7.871V21.447H3.917V4.739H.1V1.174ZM58.373,21.447H47.426V1.174H58.373V4.739H51.352V9.362h7.021v3.508H51.352v5.012h7.021ZM72.439,1.174V4.739H68.626V21.447H64.668V4.739H60.855V1.174ZM78.95,13.2v8.244H74.985V1.174H78.95V9.386h6.516V1.174h3.966V21.447H85.466V13.2Zm24.8,8.244H92.808V1.174H103.75V4.739H96.733V9.362h7.017v3.508H96.733v5.012h7.017Zm7.282-10.425h.9a6.414,6.414,0,0,0,3.657-.866A2.907,2.907,0,0,0,116.83,7.61a2.779,2.779,0,0,0-1.043-2.382,5.6,5.6,0,0,0-3.264-.762h-1.472V11.03Zm0,10.425h-3.97V1.174h4.812a26.829,26.829,0,0,1,3.416.16,6.981,6.981,0,0,1,1.917.525,5.959,5.959,0,0,1,2.634,2.253,6.271,6.271,0,0,1,.91,3.4,6.223,6.223,0,0,1-1.3,3.986,5.754,5.754,0,0,1-3.52,2.085L121,21.455h-4.739l-5.233-9.423Z" transform="translate(-0.06 -0.701)"/><path class="b" d="M41.393,0a10.469,10.469,0,0,1,5.181,1.363,11.853,11.853,0,0,0-2.807,3.292,6.323,6.323,0,1,0,1.2.638,10.642,10.642,0,0,1,2.807-3.144A10.513,10.513,0,1,1,41.393,0Z" transform="translate(-18.505 0)"/><path class="b" d="M72.858.22A10.5,10.5,0,0,1,80.3,3.3L77.32,6.275A6.311,6.311,0,1,0,69.3,15.962a10.606,10.606,0,0,1-2.807,3.144A10.517,10.517,0,0,1,72.858.22ZM70.508,16.6a6.331,6.331,0,0,0,6.816-1.4l-4.467-4.463,2.915-2.915,3.38,3.376,3.412,3.412h0l.052.052a10.529,10.529,0,0,1-14.94,5.213,11.941,11.941,0,0,0,2.831-3.3Z" transform="translate(-37.348 -0.132)"/><path class="b" d="M76.5,16.285a9.864,9.864,0,0,0-1.071-2.875l-.092.068A14.975,14.975,0,0,1,76.5,16.285Zm-3.729,2.326v-.485a9.164,9.164,0,0,1,0,.938c0-.148-.02-.3-.024-.453Zm.144-1.387a9.294,9.294,0,0,1,.088,1.824,13,13,0,0,0-.156-1.5q.024-.16.06-.325Zm2.807-3.781h0v.024a10.594,10.594,0,0,1,.974,2.574,15.353,15.353,0,0,0-1.2-2.711l.092-.06.092.156Zm-2.5,5.433a9.4,9.4,0,0,0-.172-2.169c-.024.088-.052.172-.072.261A12.691,12.691,0,0,1,73.223,18.876Zm.221-.172a9.451,9.451,0,0,0-.253-2.406l-.08.221a12.9,12.9,0,0,1,.333,2.177Zm.221-.172a9.559,9.559,0,0,0-.333-2.562l-.084.2a12.927,12.927,0,0,1,.4,2.374Zm.217-.172a9.262,9.262,0,0,0-.4-2.7l-.088.18a12.486,12.486,0,0,1,.489,2.534Zm.221-.172a9.33,9.33,0,0,0-.477-2.807l-.088.16a13.088,13.088,0,0,1,.565,2.634Zm.217-.172a9.415,9.415,0,0,0-.541-2.847l-.092.144a12.831,12.831,0,0,1,.634,2.723Zm.221-.172a9.382,9.382,0,0,0-.609-2.923l-.092.136a12.907,12.907,0,0,1,.7,2.807Zm.217-.172a9.386,9.386,0,0,0-.67-2.963l-.1.128A12.618,12.618,0,0,1,74.755,17.669Zm.221-.172a9.386,9.386,0,0,0-.734-2.987l-.092.116A13.152,13.152,0,0,1,74.975,17.5Zm.217-.176a9.407,9.407,0,0,0-.8-3l-.1.108a13.072,13.072,0,0,1,.882,2.887Zm.221-.172a9.471,9.471,0,0,0-.846-3l-.092.1A13.316,13.316,0,0,1,75.412,17.147Zm.217-.172a9.527,9.527,0,0,0-.894-2.991l-.1.092A13.372,13.372,0,0,1,75.629,16.975Zm.221-.172a9.623,9.623,0,0,0-.946-2.975l-.092.088A13.677,13.677,0,0,1,75.849,16.8Zm.217-.172a9.643,9.643,0,0,0-.99-2.947l-.092.08a13.994,13.994,0,0,1,1.075,2.867Zm.221-.172a9.764,9.764,0,0,0-1.031-2.895l-.092.072a14.287,14.287,0,0,1,1.127,2.843Z" transform="translate(-43.58 -7.949)"/><path class="b" d="M63.161,26.217a9.491,9.491,0,0,0,1.014,3.978l.1-.072a11.66,11.66,0,0,1-1.119-3.905Zm.245-.132a9.29,9.29,0,0,0,.946,3.986l.1-.08a11.656,11.656,0,0,1-1.047-3.905Zm.241-.136a9.222,9.222,0,0,0,.886,3.986l.1-.084a11.492,11.492,0,0,1-.974-3.9Zm.245-.136a9.13,9.13,0,0,0,.8,3.982l.1-.088a11.428,11.428,0,0,1-.9-3.893Zm.245-.132a9.118,9.118,0,0,0,.722,3.966l.1-.1a11.359,11.359,0,0,1-.8-3.865Zm.245-.136a9.026,9.026,0,0,0,.642,3.942l.1-.1A11.319,11.319,0,0,1,64.38,25.543Zm.245-.132a8.978,8.978,0,0,0,.561,3.9l.1-.112a11.472,11.472,0,0,1-.662-3.789Zm.245-.136a8.994,8.994,0,0,0,.465,3.857l.1-.124a11.46,11.46,0,0,1-.581-3.733Zm.245-.136a9.058,9.058,0,0,0,.4,3.8l.1-.136a11.628,11.628,0,0,1-.5-3.661Zm.241-.132a9.114,9.114,0,0,0,.317,3.717l.1-.148a11.552,11.552,0,0,1-.4-3.569Zm.245-.136a9.25,9.25,0,0,0,.229,3.609l.108-.164a11.741,11.741,0,0,1-.337-3.456Zm.245-.132a9.222,9.222,0,0,0,.148,3.5l.1-.184a11.92,11.92,0,0,1-.253-3.312Zm.245-.136a9.263,9.263,0,0,0,.048,3.344l.12-.2a12.073,12.073,0,0,1-.168-3.132Zm.245-.132a9.3,9.3,0,0,0,0,3.144c.036-.084.072-.168.1-.253a12.262,12.262,0,0,1-.084-2.891Zm.245-.136a9.483,9.483,0,0,0-.1,2.875c.04-.1.076-.2.108-.309a12.483,12.483,0,0,1,0-2.566Zm.237-.112a9.41,9.41,0,0,0-.164,2.442c.04-.148.076-.3.1-.457a12.43,12.43,0,0,1,.064-1.977h0ZM64.007,30.3c-.136-.245-.265-.489-.4-.746a9.876,9.876,0,0,1-.726-3.208,11.993,11.993,0,0,0,1.2,3.893l-.08.052Z" transform="translate(-37.667 -14.509)"/><path class="b" d="M0,64.86H120.984v.225H0V64.86Z" transform="translate(0 -38.853)"/><path class="a" d="M35.57,82.4V77.268h.7L38.95,81.3V77.268H39.6V82.4h-.682l-2.7-4.038V82.4Zm12.7,0V77.268h3.713v.605H48.946v1.572h2.835v.6H48.934V81.8H52.1V82.4Zm13.577,0V77.874h-1.7v-.605h4.062v.605h-1.7V82.4Zm11.464,0-1.363-5.136h.686l.8,3.364c.092.4.164.746.217,1.055l.233-.95.978-3.468h.822l.734,2.6a14.032,14.032,0,0,1,.4,1.82c.048-.245.132-.617.257-1.119l.8-3.3h.686L77.15,82.4h-.658L75.41,78.487l-.16-.6c-.048.209-.1.4-.152.6L74.011,82.4Zm13.164-2.5a3.208,3.208,0,0,1,.309-1.452,2.282,2.282,0,0,1,.85-.954,2.47,2.47,0,0,1,1.3-.333A2.314,2.314,0,0,1,90.7,77.9a2.711,2.711,0,0,1,.686,1.937,2.562,2.562,0,0,1-.73,2,2.486,2.486,0,0,1-1.728.666,2.294,2.294,0,0,1-1.776-.746,2.642,2.642,0,0,1-.682-1.844Zm.7,0a2.133,2.133,0,0,0,.477,1.435,1.6,1.6,0,0,0,1.275.561,1.536,1.536,0,0,0,1.323-.6,2.442,2.442,0,0,0,.441-1.472,2.165,2.165,0,0,0-.509-1.528,1.66,1.66,0,0,0-1.243-.525,1.516,1.516,0,0,0-1.343.613,2.658,2.658,0,0,0-.4,1.54ZM99.769,82.4V77.268h2.277a3.733,3.733,0,0,1,.914.092,1.171,1.171,0,0,1,.642.449,1.347,1.347,0,0,1,.273.858q0,1.2-1.443,1.4a2.342,2.342,0,0,1,.97.938l.906,1.4h-.854l-.682-1.071a6.134,6.134,0,0,0-.589-.826,1.135,1.135,0,0,0-.4-.309,1.431,1.431,0,0,0-.533-.076h-.8V82.4Zm.678-2.871H101.9q1.263,0,1.263-.866c0-.557-.365-.834-1.1-.834h-1.628v1.7ZM112.408,82.4V77.268h.682v2.546l2.55-2.546h.918L114.4,79.349l2.253,3.055h-.9l-1.824-2.6-.838.8v1.78Zm12.077-1.648.638-.06a1.235,1.235,0,0,0,.493.9,1.76,1.76,0,0,0,1.026.289,1.508,1.508,0,0,0,.962-.257.8.8,0,0,0,.317-.617.641.641,0,0,0-.3-.561,4.535,4.535,0,0,0-1.263-.417,2.682,2.682,0,0,1-1.327-.585,1.276,1.276,0,0,1,.184-1.9,2.253,2.253,0,0,1,1.283-.357,2.061,2.061,0,0,1,1.427.433,1.52,1.52,0,0,1,.493,1.091l-.654.048q-.1-.986-1.251-.986c-.8,0-1.183.257-1.183.774a.553.553,0,0,0,.249.481,3,3,0,0,0,.978.341,8.368,8.368,0,0,1,1.111.313,1.492,1.492,0,0,1,.646.477,1.235,1.235,0,0,1,.257.8,1.315,1.315,0,0,1-.561,1.131,2.225,2.225,0,0,1-1.335.4,2.362,2.362,0,0,1-1.636-.493A1.684,1.684,0,0,1,124.485,80.749Z" transform="translate(-21.308 -46.225)"/></g></svg>