<svg xmlns="http://www.w3.org/2000/svg" viewBox="0 0 135.598 36.384"><defs><style>.a{fill:#fff;}</style></defs><path class="a" d="M73.4,1.182l2.308,4.5h.071L74.157.793h.063c.793,1.491,1.586,3,2.426,4.488h.063L74.981.381h.056l2.569,4.377h.063L75.893,0h.04a.976.976,0,0,1,.079.1c1.126,1.974,2.26,3.965,3.243,5.987a6.883,6.883,0,0,1,.42,1.094,4.346,4.346,0,0,1,0,1.634c-.048.452-.087.9-.127,1.356a1.435,1.435,0,0,0,.127.737c.888,1.99,1.752,3.965,2.656,5.971,1.76,3.878,3.545,7.739,5.313,11.609.682,1.483,1.4,2.95,2.2,4.369a5.821,5.821,0,0,1,.69,1.752,2.824,2.824,0,0,1,.048.547,1.063,1.063,0,0,1-.658,1.023,1.182,1.182,0,0,1-1.269-.1,2.744,2.744,0,0,1-.73-.856,7.629,7.629,0,0,1-.793-1.824,45.449,45.449,0,0,0-1.689-4.663q-3.323-8.231-6.661-16.462c-.119-.293-.254-.579-.373-.872a1.419,1.419,0,0,0-.5-.65l-.666-.444c-.278-.2-.555-.389-.793-.595A2.593,2.593,0,0,1,75.449,8.39c-.46-1.459-.92-2.918-1.364-4.385-.222-.833-.452-1.729-.7-2.593a.319.319,0,0,0-.048-.206Z" transform="translate(-15.183)"/><path class="a" d="M79.969,21.62l.373.9c.127.317.254.642.389.959a.444.444,0,0,1,0,.389q-1.15,2.569-2.292,5.146c-.975,2.22-1.959,4.433-2.91,6.669-.3.706-.508,1.451-.793,2.165a9.276,9.276,0,0,1-.642,1.3,2.688,2.688,0,0,1-.595.666,1.047,1.047,0,0,1-1.189.1,1.126,1.126,0,0,1-.69-.991,3.283,3.283,0,0,1,.365-1.649,12.068,12.068,0,0,1,.73-1.38,34.614,34.614,0,0,0,1.689-3.1l5.4-10.872Z" transform="translate(-14.827 -4.476)"/><path class="a" d="M83.192,27.91l.3.73c.19.476.381.959.579,1.435a.579.579,0,0,1,0,.484c-.864,2.141-1.737,4.274-2.569,6.431-.365.936-.626,1.911-.975,2.863a12.172,12.172,0,0,1-.682,1.483,2.165,2.165,0,0,1-.492.579,1.205,1.205,0,0,1-1.911-.706,2.91,2.91,0,0,1,.127-1.332,8.072,8.072,0,0,1,.793-1.832,38.6,38.6,0,0,0,1.816-3.632l2.894-6.344Z" transform="translate(-16.027 -5.778)"/><path class="a" d="M87.467,21.258c-.309-.69-.611-1.324-.88-1.967a.468.468,0,0,1,.048-.325c.468-1.055.952-2.1,1.427-3.172L94.136,2.314c.056-.127.1-.262.159-.381a1.023,1.023,0,0,1,.595-.6.365.365,0,0,1,.515.381,1.364,1.364,0,0,1-.1.42L87.6,21C87.563,21.076,87.523,21.147,87.467,21.258Z" transform="translate(-17.924 -0.269)"/><path class="a" d="M84.738,16.329c-.206-.444-.357-.864-.571-1.237a1.086,1.086,0,0,1,0-1.15q3.005-6.027,5.955-12.061c.071-.143.135-.293.206-.436a.967.967,0,0,1,.515-.476c.357-.135.611.079.547.452a1.538,1.538,0,0,1-.119.373L87.68,9.763q-1.419,3.116-2.823,6.288Z" transform="translate(-17.391 -0.192)"/><path class="a" d="M0,30.87V14.13H4.5a5.955,5.955,0,0,1,1.776.262,2.855,2.855,0,0,1,2.062,2.22,7.6,7.6,0,0,1,0,3.251,2.807,2.807,0,0,1-1.515,2H6.756l-.04.1A.293.293,0,0,0,6.78,22a2.966,2.966,0,0,1,1.9,2.482,11.617,11.617,0,0,1,0,3.426,3.243,3.243,0,0,1-2.752,2.823,6.479,6.479,0,0,1-1.3.143H.214Zm2.831-7.533v5.146c.658,0,1.3.04,1.935,0A1.126,1.126,0,0,0,5.9,27.27a23.178,23.178,0,0,0,0-2.514,1.316,1.316,0,0,0-1.3-1.388,12.164,12.164,0,0,0-1.356,0Zm0-6.82v4.266c0,.048.048.174.167.167A14.227,14.227,0,0,0,4.425,20.9a1.237,1.237,0,0,0,1.126-1.118,6.6,6.6,0,0,0,0-2.3,1.094,1.094,0,0,0-1.031-.959c-.555-.048-1.11-.008-1.689-.008Z" transform="translate(0 -2.925)"/><path class="a" d="M23.355,30.86H20.547V19.291h0L17,30.86H14.124c-.063-.159-.1-16.327,0-16.732h2.482V24.516h.063l.071-.222c.285-1.023.547-2.054.864-3.069.4-1.3.856-2.585,1.285-3.878.341-1.007.682-2.014,1.015-3.021a.293.293,0,0,1,.341-.238H23.37Z" transform="translate(-2.912 -2.916)"/><path class="a" d="M168.588,30.855H165.8V19.214h-.048c-.579,1.943-1.142,3.893-1.729,5.836s-1.205,3.878-1.808,5.82H159.35V14.131h2.474V24.575h.063a1.837,1.837,0,0,0,.063-.182c.793-3.251,1.975-6.4,3.029-9.571l.19-.571a.182.182,0,0,1,.2-.151h3.219Z" transform="translate(-32.99 -2.919)"/><path class="a" d="M67.992,14.1V30.853H65.177V19.259h-.056a.71.71,0,0,1-.071.206c-1.007,3.767-2.228,7.462-3.37,11.181a.278.278,0,0,1-.325.23H58.73V14.121h2.506v10.4H61.3a1.056,1.056,0,0,1,.1-.293c.341-1.182.642-2.379,1.023-3.553.682-2.125,1.419-4.234,2.125-6.344a.285.285,0,0,1,.325-.238h2.91Z" transform="translate(-12.159 -2.916)"/><path class="a" d="M99.28,14.13h8.873V30.854H105.4V16.517h-3.275V30.854H99.28Z" transform="translate(-20.554 -2.925)"/><path class="a" d="M127.83,30.854v-2.3c.182,0,.365-.048.547-.056a1.031,1.031,0,0,0,1.1-.991c.063-.507.079-1.031.1-1.546.056-1.887.1-3.775.143-5.662s.1-3.965.143-6V14.13h8.088V30.862h-2.767V16.517h-2.458v.492c-.063,2.22-.127,4.433-.2,6.653,0,1.189-.079,2.379-.135,3.576a5.551,5.551,0,0,1-.317,1.586,2.855,2.855,0,0,1-2.062,1.9,6.685,6.685,0,0,1-2.014.19Z" transform="translate(-26.464 -2.925)"/><path class="a" d="M35.213,16.5H32.731v.254q-.119,3.893-.238,7.779a21.685,21.685,0,0,1-.087,2.379A9.261,9.261,0,0,1,32.16,28.5a2.894,2.894,0,0,1-2.506,2.276,15.859,15.859,0,0,1-1.634.119.738.738,0,0,1-.151,0V28.524l.547-.04a1.007,1.007,0,0,0,1.094-.983c.071-.642.087-1.293.1-1.935.071-2.53.127-5.067.19-7.6q.04-1.776.087-3.56V14.1h8.136V30.855H35.213Z" transform="translate(-5.77 -2.919)"/><path class="a" d="M154.012,14.088l-.127.262q-1.84,3.481-3.687,6.954a.507.507,0,0,0,0,.492q1.879,4.393,3.743,8.794l.087.23h-2.664a.262.262,0,0,1-.285-.19q-1.277-3.093-2.561-6.185l-.119-.278a.944.944,0,0,0-.111.127c-.238.412-.484.793-.714,1.245a.793.793,0,0,0-.079.349V30.8h-2.76c-.063-.151-.1-16.359,0-16.724h2.783v7.137h.056c.048-.071.1-.151.135-.222q1.713-3.362,3.426-6.732a.4.4,0,0,1,.42-.254A22.34,22.34,0,0,0,154.012,14.088Z" transform="translate(-29.952 -2.9)"/><path class="a" d="M44.37,14.113h2.815v7.137h.063c0-.071.079-.135.119-.206,1.1-2.165,2.22-4.33,3.307-6.51a.706.706,0,0,1,.793-.476c.666.04,1.34,0,2.006,0h.285c-.048.1-.079.182-.119.254q-1.84,3.473-3.679,6.939a.6.6,0,0,0,0,.579q1.871,4.377,3.735,8.723a.589.589,0,0,0,.079.214H51c-.159,0-.19-.1-.23-.206l-1.38-3.227-1.205-2.9-.1-.206c-.056.071-.087.119-.119.167-.222.381-.452.793-.658,1.142a.912.912,0,0,0-.111.412v4.908H44.37Z" transform="translate(-9.186 -2.908)"/><path class="a" d="M123.545,30.878H120.92c-.143,0-.206-.048-.23-.19-.135-.856-.278-1.713-.42-2.577a.527.527,0,0,0-.056-.278h-3.473l-.476,3.029H113.45l2.815-16.732h4.361ZM118.517,17.3h-.063l-1.34,8.255h2.752Z" transform="translate(-23.487 -2.925)"/><path class="a" d="M3.568,25.735h.4a12.164,12.164,0,0,1,1.356,0,1.316,1.316,0,0,1,1.293,1.4,23.179,23.179,0,0,1,0,2.514,1.126,1.126,0,0,1-1.126,1.221c-.634.056-1.277,0-1.935,0ZM4,30.493a11.621,11.621,0,0,0,1.586-.071.634.634,0,0,0,.579-.555,3.172,3.172,0,0,0,.063-.571c0-.539,0-1.078,0-1.586a5.162,5.162,0,0,0-.1-.793.793.793,0,0,0-.642-.7,7.438,7.438,0,0,0-1.475-.063Z" transform="translate(-0.737 -5.324)"/><path class="a" d="M3.556,17.14H5.245a1.094,1.094,0,0,1,1.031.975,6.6,6.6,0,0,1,0,2.3,1.237,1.237,0,0,1-1.182,1.11c-.476.048-.952,0-1.427.048-.119,0-.167-.056-.167-.167V17.433A.877.877,0,0,0,3.556,17.14ZM4,17.529v3.592h.944a.952.952,0,0,0,.991-.967s0-.079,0-.119V18.583a2.109,2.109,0,0,0-.087-.5.611.611,0,0,0-.547-.492C4.872,17.552,4.436,17.544,4,17.529Z" transform="translate(-0.725 -3.548)"/><path class="a" d="M119.461,18.13l1.34,8.255H118.05l1.34-8.255Zm0,2.656h-.048l-.841,5.17h1.721Z" transform="translate(-24.44 -3.753)"/></svg>