<svg xmlns="http://www.w3.org/2000/svg" viewBox="0 0 83.367 83.363"><defs><style>.a{fill:#fff;}</style></defs><g transform="translate(0.007 0.346)"><path class="a" d="M83.22,38A41.68,41.68,0,1,0,45.16,82.87,41.68,41.68,0,0,0,83.22,38ZM66.75,70.31a38.18,38.18,0,1,1,3.74-53.86A38.18,38.18,0,0,1,66.75,70.31Z"/><path class="a" d="M47.53,22.32h4.4c-.12,2-.12,4-.12,6-.09,2.26,0,4.53,0,6.79,0,1,.07,2,0,3.07,0,3.9,0,7.8.16,11.7H47.52c.25-2.83.13-5.68.16-8.52-.11-3.38,0-6.76-.06-10.13C47.62,28.25,47.68,25.28,47.53,22.32Z"/><path class="a" d="M68.94,47.43a.83.83,0,0,1-.65-.44,2.54,2.54,0,0,1-.19-.78c-.19-2.31,0-4.63,0-6.94a16.64,16.64,0,0,0-1-5.64,6.1,6.1,0,0,0-2.64-3.18,7.68,7.68,0,0,0-3.85-.87,6.92,6.92,0,0,0-4,1.14h0a6.19,6.19,0,0,0-2.46,3.19,9.35,9.35,0,0,0-.47,2.84H57.5a4.14,4.14,0,0,1,1.1-2.62,3,3,0,0,1,2.65-.52,2.44,2.44,0,0,1,1.35,1c.88,1.27.84,2.9.83,4.37a5.89,5.89,0,0,0-2.87-.91,6.4,6.4,0,0,0-3.41.58,5.93,5.93,0,0,0-2.26,1.93,7.43,7.43,0,0,0-.32,7.48,5.6,5.6,0,0,0,4.72,2.76,6.71,6.71,0,0,0,4.85-2.06,5.83,5.83,0,0,0,2.92,1.78,4.1,4.1,0,0,0,3-.7V47A2.23,2.23,0,0,1,68.94,47.43Zm-5.51-1.77c0,.19-.19.31-.31.45a4.74,4.74,0,0,1-3.31,1.27A2.31,2.31,0,0,1,58,46.2a4.23,4.23,0,0,1-.44-2.26,3,3,0,0,1,1-2.22h0a2.76,2.76,0,0,1,1.87-.53,8.55,8.55,0,0,1,2.92.71c.07,1.26.1,2.51.08,3.77Z"/><path class="a" d="M46,38.48a11.71,11.71,0,0,0-1.56-5.43A6.8,6.8,0,0,0,42,30.68h0a8.66,8.66,0,0,0-4.71-1,7.74,7.74,0,0,0-5.49,2.71,10.78,10.78,0,0,0-2.38,6.19A20.92,20.92,0,0,0,29.45,42a10.53,10.53,0,0,0,2.11,5.49,7.61,7.61,0,0,0,5.78,2.8,8.31,8.31,0,0,0,5.73-1.77,8.48,8.48,0,0,0,2.58-4.64,18.09,18.09,0,0,0,.35-5.4Zm-5.1,5.33a3.93,3.93,0,0,1-1.45,1.93,3.27,3.27,0,0,1-3.42,0,4,4,0,0,1-1.62-2,10.17,10.17,0,0,1-.58-3.24,12,12,0,0,1,.45-4,4.09,4.09,0,0,1,1.41-2.12A3.47,3.47,0,0,1,37,33.83h0a3.94,3.94,0,0,1,2.13.24,3.18,3.18,0,0,1,1.37,1.2,7.7,7.7,0,0,1,.92,3.36,12.42,12.42,0,0,1-.52,5.18Z"/><path class="a" d="M13.27,30.3h4.67c-.24,1.78-.11,3.58-.19,5.36-.07,2.26,0,4.51,0,6.77a5,5,0,0,0,.92,3,2.4,2.4,0,0,0,2,.84,4.24,4.24,0,0,0,2.75-1.56V38.52a61.35,61.35,0,0,0-.06-8.19h4.78c-.25,2.27-.38,4.56-.43,6.85v8.25c0,2.75.14,5.45,0,8.17A7.81,7.81,0,0,1,25,59.36a7.33,7.33,0,0,1-3.6,1.35H19.63a7.35,7.35,0,0,1-3.33-1.14,6,6,0,0,1-2.19-2.75,13.35,13.35,0,0,1-.73-5.49h4.29a9.46,9.46,0,0,0,.43,3.73,2.26,2.26,0,0,0,1.17,1.22,3.56,3.56,0,0,0,1.63.21,2.33,2.33,0,0,0,1.49-.65,3.71,3.71,0,0,0,.76-2.06,36.22,36.22,0,0,0,.19-5A7.54,7.54,0,0,1,21,49.91a6.53,6.53,0,0,1-4.12-.09A6.18,6.18,0,0,1,15,48.54a3,3,0,0,1-.62-.85,11.53,11.53,0,0,1-.88-3.77,90.649,90.649,0,0,1,0-9.47,29.13,29.13,0,0,0-.17-3.81Z"/></g></svg>