<svg xmlns="http://www.w3.org/2000/svg" viewBox="0 0 70.06 86.944"><defs><style>.a,.b{fill:#fff;}.b{fill-rule:evenodd;}.c{fill:none;stroke:#fff;stroke-miterlimit:22.93;stroke-width:0.5px;}</style></defs><path class="a" d="M30.587,65.277l-.13-.1a18.017,18.017,0,0,0-4.274-2.93c-1.23-.5-2.444-.971-3.61-1.408-3.9-1.489-7.592-2.9-10.214-5.73a18.826,18.826,0,0,1-4.97-6.977v-.113h.1a18.664,18.664,0,0,0,7.22-12.367c.453-3.238-.842-7.268-3.966-12.092v-.113l.113-.1,5.617-5.73h.13a17.612,17.612,0,0,0,6.637,2.234,14.569,14.569,0,0,0,7.284-.939h0A19.959,19.959,0,0,0,38,19.854a14.876,14.876,0,0,0,6.475-2.234h.129l5.65,5.844-.1.13a15.7,15.7,0,0,0-3.432,12.74c.68,3.691,3.14,7.187,8,11.331l.1.1v.113a20.575,20.575,0,0,1-5.763,7.333A25.9,25.9,0,0,1,39.7,60.145l-1.619.55A29.915,29.915,0,0,0,30.7,65.18ZM7.762,48.118a18.794,18.794,0,0,0,4.856,6.75c2.59,2.784,6.07,4.112,10.085,5.633,1.182.453,2.4.923,3.642,1.441A18.211,18.211,0,0,1,30.6,64.807a30.886,30.886,0,0,1,7.365-4.484l1.619-.567A25.107,25.107,0,0,0,48.831,54.9a20.526,20.526,0,0,0,5.617-7.09c-4.856-4.176-7.333-7.722-8.013-11.461a16.042,16.042,0,0,1,3.4-12.95l-5.245-5.423a15.006,15.006,0,0,1-6.475,2.2,19.684,19.684,0,0,1-7.56-.939,14.828,14.828,0,0,1-7.382.939,17.806,17.806,0,0,1-6.7-2.2l-5.407,5.439c3.108,4.856,4.387,8.838,3.934,12.206a18.907,18.907,0,0,1-7.236,12.5Z" transform="translate(4.573 10.903)"/><path class="b" d="M12.471,15.233a40.113,40.113,0,0,1,18.017-4.322,47.2,47.2,0,0,1,18.6,4.063L47.955,16.8A42.428,42.428,0,0,0,30.488,12.95a39.984,39.984,0,0,0-16.8,4.079ZM14.2,11.688a1.182,1.182,0,0,0-1.214,1.263,1.214,1.214,0,0,0,2.428,0A1.182,1.182,0,0,0,14.2,11.736m6.232-2.218a1.2,1.2,0,0,0-1.214,1.214,1.214,1.214,0,1,0,2.428,0,1.2,1.2,0,0,0-1.214-1.214M27.186,8.3a1.279,1.279,0,0,0-1.3,1.214,1.344,1.344,0,0,0,1.3,1.311A1.327,1.327,0,0,0,28.4,9.518,1.246,1.246,0,0,0,27.186,8.3m6.928,0A1.2,1.2,0,0,0,32.9,9.518a1.263,1.263,0,0,0,1.214,1.311,1.344,1.344,0,0,0,1.311-1.311A1.279,1.279,0,0,0,34.114,8.3M40.59,9.437A1.214,1.214,0,1,0,41.8,10.652,1.214,1.214,0,0,0,40.59,9.437m5.973,1.619a1.246,1.246,0,0,0-1.214,1.3,1.214,1.214,0,0,0,2.428,0,1.246,1.246,0,0,0-1.214-1.3M7,5.536l4.176,7.106A40,40,0,0,1,30.132,7.964,47.09,47.09,0,0,1,50.4,12.384L54.64,5.2a8,8,0,0,1-.955-.518c-2.979,4.241-4.6,4.419-5.714,3.982s-1.813-1.91-.777-6.232c-.34-.1-.7-.259-1.036-.356-1.926,4.16-3.9,4.856-5.164,4.6S38.712,5.8,39.375.777A7.123,7.123,0,0,0,38.08.6c-.955,3.642-2.687,5.034-3.9,4.937S31.168,4.678,31.006,0H29.663C29.5,3.8,27.85,5.277,26.636,5.455S23.4,4.5,22.832.6a7.09,7.09,0,0,0-1.392.259c.518,4.16-.6,5.374-1.732,5.633s-3.885-.178-4.759-4.063c-.437.162-.874.259-1.214.421,1.214,3.238.178,5.2-.858,5.714S10.011,9,7.68,5.1A5.585,5.585,0,0,0,7,5.536" transform="translate(4.331)"/><path class="b" d="M53.894,16.55h5.2a.469.469,0,0,1,.437.437c0,.421-.437.7-.7.858a.793.793,0,0,0,0,.777c.162.259,1.991,4.516,1.991,4.516l.421.081A46.384,46.384,0,0,1,62.862,18.8a9.81,9.81,0,0,1,1.473-1.813c.162-.1.858-.178.955.421a14.568,14.568,0,0,1,0,2.687s-.437-.955-.793-.955-1.619,1.619-2.153,3.383a28.41,28.41,0,0,0-1.214,8.32c0,1.894.162,1.894.518,2.153s.6-.081.955-.518a2.623,2.623,0,0,1,.777-.6,20.218,20.218,0,0,1-1.619,3.464c-.275.259-.275.6-.793.437s-.939-2.347-.939-3.238a46.91,46.91,0,0,1,.162-4.775,12.7,12.7,0,0,0,.178-1.813H58.977a1.619,1.619,0,0,1-.68-.615c-.259-.34-2.606-6.669-2.606-6.669s-.437-.939-.858-1.117a2.218,2.218,0,0,1-.874-.437ZM35.2,10.48H47.208L45.4,13.345l-1.619-1.392H42.352v7.463l1.214.939.081.437H38.92v-.437l1.117-.939V11.872H38.823L37.2,13.264ZM21.5,10.658h3.464l-.259,1.036v1.133H26.8V11.694l-.259-1.036H29.9a4.5,4.5,0,0,0-.518,1.473V19.14s.178,1.133.518,1.392H26.666A4.16,4.16,0,0,0,27.1,19.14V15.514s-.259-.7-.7-.7a3.06,3.06,0,0,0-1.214,0,1.166,1.166,0,0,0-.7,1.214V19.27a2.363,2.363,0,0,0,.178.6,2.93,2.93,0,0,1,.178.7H21.615a3.61,3.61,0,0,0,.437-1.392V12.05a5.034,5.034,0,0,0-.437-1.392M2.19,18.461H11.6L8.05,23.317c5.115,3.238,4.759,7.964-1.036,13.938,3.027-5.536,3.464-9.081-1.473-12.206l3.982-5.536H7.564a5.034,5.034,0,0,0-3.545,2.428Z" transform="translate(1.355 6.485)"/><path class="b" d="M13.64,23.909l1.052-1.036,1.716-1.052.874-.081.518.356-.437.518-.777.518.34.518,1.311-.874.437.437-.178.777-1.036.615,1.732,2.59,2.25-3.286-1.214-1.133L21.264,21.4l1.133.858.518-.6.68.518-.259.7,1.473,1.554-.081.259-.259.259-1.392-.178-.68-.34L19.71,28.069l3.723,5.1-.178.7-.7.081-3.367-4.759-3.043,4.759-.939-.777,3.367-5.1L16.683,25.2l-.793.437-.777.081-.518-.259-.081-.34,1.376-.874-.421-.6-1.311.777h-.421Z" transform="translate(8.44 13.242)"/><path class="c" d="M28.677,24.13c3.124,0,5.73.518,5.73,1.117S31.8,26.38,28.677,26.38s-5.617-.518-5.617-1.133,2.509-1.117,5.617-1.117" transform="translate(14.269 14.931)"/><path class="c" d="M27.729,26.242c3.124-3.982,6.475-6.75,7.187-6.151s-1.133,4.419-4.241,8.482S24.2,35.34,23.391,34.725s1.1-4.419,4.338-8.482" transform="translate(14.359 12.381)"/><path class="c" d="M27.576,28.469c-3.027-3.561-5.018-7.025-4.241-7.624s3.8,1.813,6.847,5.374,5.018,7.09,4.241,7.705S30.6,32.1,27.576,28.469" transform="translate(14.334 12.842)"/><path class="b" d="M26.863,24.5a.615.615,0,1,1-.615.271.615.615,0,0,1,.615-.271" transform="translate(16.18 15.157)"/><path class="c" d="M26.863,24.5a.615.615,0,1,1-.615.271.615.615,0,0,1,.615-.271Z" transform="translate(16.18 15.157)"/><path class="a" d="M18.737,42.884a2.234,2.234,0,0,1-1.457-.955l-5.86.809L12.942,33.8c.308-.826,2.622-1.619,3.351-1.619a2.671,2.671,0,0,1,2.38,1.068,4.533,4.533,0,0,1,3.011-.987,6.087,6.087,0,0,1,2.995,1.878h0l1.781,8.369-6.394-.437h0A1.781,1.781,0,0,1,18.737,42.884Zm-1.3-1.327v.081c.178.259.761.89,1.246.89a1.408,1.408,0,0,0,1.036-.6c.113-.113.162-.178.259-.178l6.022.421L24.386,34.3a5.956,5.956,0,0,0-2.72-1.732,4.241,4.241,0,0,0-2.833.939l-.13.1-.178-.1a2.444,2.444,0,0,0-2.218-1.085c-.793.1-2.784.874-3.027,1.441l-1.425,8.4Z" transform="translate(7.066 19.908)"/><path class="a" d="M12.23,41.813l.987-8.094c.1-.826,1.619-1.457,2.671-1.619a2.687,2.687,0,0,1,2.121.987l.162.1a5.86,5.86,0,0,1,3.092-1,2.444,2.444,0,0,1,1.894,1.133h0L24.6,41.651h-.227c-1.619-.1-2.655-.227-3.594-.324s-1.425-.162-2.2-.21h-.243a1.263,1.263,0,0,0-.486,0Zm1.327-8.094-.923,7.657,5.148-.583a1.619,1.619,0,0,1,.615,0h.194a20.447,20.447,0,0,1,2.234.194c.777.081,1.878.227,3.351.308l-1.344-7.738a1.975,1.975,0,0,0-1.619-.923,5.649,5.649,0,0,0-3.027,1.02h-.113l-.049-.1a.647.647,0,0,0-.21-.146h0a2.347,2.347,0,0,0-1.878-.907c-.971.1-2.25.68-2.331,1.246Z" transform="translate(7.568 19.862)"/><rect class="a" width="0.615" height="7.883" transform="translate(25.463 53.08)"/><path class="b" d="M25.449,35.79a.809.809,0,1,1-.809.809.809.809,0,0,1,.809-.809" transform="translate(15.247 22.146)"/><path class="b" d="M25.029,36.64a.809.809,0,1,1-.809.809.809.809,0,0,1,.809-.809" transform="translate(14.987 22.672)"/><path class="b" d="M26.093,36.54a.777.777,0,1,1-.56.222.777.777,0,0,1,.56-.222" transform="translate(15.655 22.61)"/><path class="b" d="M26.679,37.39a.809.809,0,1,1-.809.809.809.809,0,0,1,.809-.809" transform="translate(16.008 23.136)"/><path class="b" d="M25.657,37.5a.777.777,0,1,1-.777.777.761.761,0,0,1,.777-.777" transform="translate(15.395 23.204)"/><path class="b" d="M24.527,37.55a.793.793,0,1,1-.777.777.793.793,0,0,1,.777-.777" transform="translate(14.696 23.235)"/><path class="b" d="M29.16,35.718A1.489,1.489,0,0,1,30.2,35.2a2.525,2.525,0,0,1,1.376.518c.259.356.518.874.356,1.214" transform="translate(18.043 21.781)"/><path class="b" d="M23.65,35.736l1.894-2.946,1.214,1.732-.777,1.3Z" transform="translate(14.634 20.29)"/><path class="b" d="M28.075,34.83l1.829.858L28.852,37.42,27.12,36.384Z" transform="translate(16.781 21.552)"/><path class="b" d="M25.649,32.68l1.311,1.829,5.617,2.509,4.241,1.991,1.473,1.473,1.133.955-4.16-.146L32.5,39.479l1.036,1.813-.437.615-3.545-.1-.259-.518,1.991-2.347-5.342-2.962H23.48Zm5.617,7.8H31.8l1.068,1.408.291-.21-1.182-1.619h-.858L29.68,41.6l.259.243Zm4.743-.34a4.338,4.338,0,0,0,.372-1.182h-.34a5.536,5.536,0,0,1-.308,1.052,9.709,9.709,0,0,1-.761.842l.243.243A7.22,7.22,0,0,0,36.009,40.143Zm-.664-.469a3.238,3.238,0,0,1,.275-.615,1.3,1.3,0,0,0,.162-.486h-.34a1.619,1.619,0,0,1-.146.324,6.087,6.087,0,0,0-.275.631,3.529,3.529,0,0,1-.809.809l.194.291A3.82,3.82,0,0,0,35.346,39.673Z" transform="translate(14.529 20.221)"/><path class="a" d="M31,44.546H17.92V39.69H31ZM18.276,44.19H30.644V39.965H18.276Z" transform="translate(11.088 24.559)"/><path class="b" d="M19.513,40.244h.421v2.768h.356v.259H18.9v-.259h.356v-2.25H18.72v-.178a1.619,1.619,0,0,0,.793-.34m3.108,1.619H22.54a.939.939,0,0,0-.259.162.728.728,0,0,1-.437.1,3.8,3.8,0,0,1-.518-.259.971.971,0,0,1-.259-.7,1.052,1.052,0,0,1,.178-.518.664.664,0,0,1,.34-.356,1.619,1.619,0,0,1,.6-.081,1.068,1.068,0,0,1,.793.259,1.894,1.894,0,0,1,.34.518v.777a1.829,1.829,0,0,1,0,.7c0,.178-.178.34-.356.6a1.052,1.052,0,0,1-.777.259,1.764,1.764,0,0,1-.7-.162c-.162-.178-.259-.259-.259-.437s.1-.178.178-.259.081,0,.259,0a.324.324,0,0,1,.259,0c0,.081.081.081.081.178s-.081.162-.081.259h0v.162h.259a.4.4,0,0,0,.437-.421,2.542,2.542,0,0,0,.081-.777m0-.793a3.933,3.933,0,0,0-.081-.421c-.1-.178-.178-.259-.356-.259a.453.453,0,0,0-.34.162,1.2,1.2,0,0,0,0,.518,1.424,1.424,0,0,0,0,.615.31.31,0,0,0,.259.178.5.5,0,0,0,.437-.275,3.124,3.124,0,0,0,.081-.518m1.392.7a2.218,2.218,0,0,1,.34-1.214,1.117,1.117,0,0,1,.874-.34.631.631,0,0,1,.518.178.874.874,0,0,1,.421.518,1.943,1.943,0,0,1,.178.858,2.331,2.331,0,0,1-.178.874.923.923,0,0,1-.421.518,1.068,1.068,0,0,1-1.133,0,1.02,1.02,0,0,1-.437-.518,2.72,2.72,0,0,1-.162-.874m.7,0v.874c0,.081.081.162.081.259a.486.486,0,0,0,.356.162c.081,0,.162-.081.259-.162a.356.356,0,0,0,.081-.259v-.178h.081V41.151h-.081V41.07c0-.178,0-.259-.081-.356a.387.387,0,0,0-.259-.162.341.341,0,0,0-.356.259.779.779,0,0,0-.081.421,1.619,1.619,0,0,0,0,.7m2.331,0a1.7,1.7,0,0,1,.34-1.214.858.858,0,0,1,.793-.34.712.712,0,0,1,.6.178.89.89,0,0,1,.437.518,2.509,2.509,0,0,1,.081.858,2.865,2.865,0,0,1-.081.874c-.178.259-.259.421-.437.518a1.311,1.311,0,0,1-.6.162,1.36,1.36,0,0,1-.534-.162A.923.923,0,0,1,27.3,42.8a2.331,2.331,0,0,1-.178-.874m.7,0v.615a.8.8,0,0,1,.081.259.356.356,0,0,0,.081.259c.1,0,.178.162.275.162a.453.453,0,0,0,.34-.162c0-.1.081-.178.081-.259V40.94c0-.178-.081-.259-.081-.356a.453.453,0,0,0-.34-.162.356.356,0,0,0-.356.259,3.934,3.934,0,0,0-.081.421Z" transform="translate(11.583 24.879)"/><path class="b" d="M7.964,37.157c-.162,0,4.419,13.76,23.731,16.706.178,1.133.081,2.088.178,2.509a55.25,55.25,0,0,0,6.75,0V54.041A31.615,31.615,0,0,0,62.517,36.38a24.282,24.282,0,0,0,2.525,3.545l5.018-.7C65.382,50.56,56.026,58.2,41.748,61.568l.34,2.169s-9.178,1.619-13.938-.081c.162-1.133.34-2.428.34-2.428S5.018,57.068,0,39.407c3.464.955,4.937,1.473,4.937,1.473ZM6.75,47.987l.437.518,4.144-1.311a3.771,3.771,0,0,1,1.133-.259,1.8,1.8,0,0,1,.6,0l-.421-.6-.437-.534a.874.874,0,0,1-.437.356,2.3,2.3,0,0,1-.7.34l-2.979.874,1.619-2.509a1.522,1.522,0,0,1,.437-.6,1.408,1.408,0,0,1,.421-.4l-.518-.6-.437-.615c-.081.356-.178.615-.259.874a8.676,8.676,0,0,1-.437.858Zm5.034,1.036a1.618,1.618,0,0,0,.34-.437,1.036,1.036,0,0,0,.34-.518l.356.437.437.34c-.1.081-.275.081-.356.259a2.072,2.072,0,0,0-.518.437l-1.052,1.117c-.162.259-.34.437-.421.615a.583.583,0,0,0-.178.34l-.437-.34-.421-.437a.793.793,0,0,0,.421-.178l.518-.518Zm2.153-1.732a.583.583,0,0,1,.178.34.6.6,0,0,1-.178.437.453.453,0,0,1-.421.178c-.178,0-.259,0-.356-.1a.34.34,0,0,1-.21-.34.68.68,0,0,1,.178-.437.712.712,0,0,1,.437-.178c0-.081.259,0,.34.1m-.858,3.626c-.178.518-.437,1.133-.7,1.829l.6.437L15.3,51.564a1.975,1.975,0,0,1,.518-.356l.518-.259-.308-.291-.356-.324a1.505,1.505,0,0,1-.162.356,1.845,1.845,0,0,1-.356.259l-1.894,1.376.777-2.153a1.619,1.619,0,0,0,.162-.437l.259-.259-.421-.356-.437-.34a6.232,6.232,0,0,1-.178.777,2.8,2.8,0,0,1-.162.7Zm3.14,4.274a1.813,1.813,0,0,1-.858-1.117,2.282,2.282,0,0,1,.259-1.473,2.59,2.59,0,0,1,1.117-1.036,1.36,1.36,0,0,1,1.311,0,1.052,1.052,0,0,1,.6.874,1.619,1.619,0,0,1-.34,1.3l-.178.259-1.813-1.036a3.238,3.238,0,0,0-.178.858,1.246,1.246,0,0,0,.518.874l.437.162c.178,0,.34.1.518.1l-.7.437c-.178,0-.259-.1-.34-.1s-.259-.1-.356-.1M17.806,53.3a1.327,1.327,0,0,0,.259-.7.583.583,0,0,0-.34-.518.664.664,0,0,0-.7,0,1.311,1.311,0,0,0-.518.518l1.3.7m1.036,1.813a4.192,4.192,0,0,1-.34.615c-.1,0-.178.259-.259.259l.518.259.437.259a.842.842,0,0,1,0-.437,2.882,2.882,0,0,0,.259-.7l.777-1.619h.178a4.856,4.856,0,0,1,.6.081.955.955,0,0,1,.437.437l.518-.7a.437.437,0,0,0-.34-.178.712.712,0,0,0-.437-.162l-.858.34.34-.615-.437-.162-.437-.178c-.081.178-.081.34-.162.518a1.23,1.23,0,0,1-.178.518l-.7,1.473m3.9,2.817a2.1,2.1,0,0,1-1.052-1.036,1.829,1.829,0,0,1,.1-1.473,2.2,2.2,0,0,1,.955-1.214,1.408,1.408,0,0,1,1.3-.1,1.8,1.8,0,0,1,.777.777,2.8,2.8,0,0,1-.178,1.392l-.162.259L22.4,55.773a1.619,1.619,0,0,0,0,.955.987.987,0,0,0,.6.7,1,1,0,0,0,.437,0,.583.583,0,0,0,.518,0l-.615.6h-.68m1.376-2.088a1.3,1.3,0,0,0,.1-.777c0-.259-.178-.34-.356-.437a.664.664,0,0,0-.7.1.874.874,0,0,0-.421.372l1.376.6m22.177,1.829a1.166,1.166,0,0,0-.518.259.357.357,0,0,0-.356.162,1.214,1.214,0,0,1-.955-.162,2.088,2.088,0,0,1-.518-1.052,1.408,1.408,0,0,1,.1-1.036.907.907,0,0,1,.68-.518.421.421,0,0,1,.437,0,1.327,1.327,0,0,1,.518.178l-.178-.874c-.162,0-.34,0-.421.1h-.437a1.845,1.845,0,0,0-1.214.955,2.428,2.428,0,0,0-.259,1.619,2.137,2.137,0,0,0,.874,1.214,1.716,1.716,0,0,0,1.3.259c.162,0,.259-.1.437-.1s.162,0,.34-.162ZM48.9,57.44a1.845,1.845,0,0,0,.939-2.606,2.007,2.007,0,0,0-.939-1.117,1.392,1.392,0,0,0-1.311,0,1.619,1.619,0,0,0-1.036,1.036,2.509,2.509,0,0,0,.955,2.687,1.878,1.878,0,0,0,1.392,0m.162-.615a1.3,1.3,0,0,1-1.036,0,1.8,1.8,0,0,1-.777-.955,1.473,1.473,0,0,1-.081-.858.793.793,0,0,1,.259-.615,1.133,1.133,0,0,1,1.036.1,1.732,1.732,0,0,1,.777.955,1.473,1.473,0,0,1,0,.858.745.745,0,0,1-.259.6M51.8,54.9l.1-.162a2.57,2.57,0,0,0,.259-.178,1.311,1.311,0,0,0,.7-.777,1.2,1.2,0,0,0-.1-.955c-.081-.259-.259-.34-.34-.518l.518-.259-.259-.615c0,.1,0,.178-.259.275s-.178,0-.356.162l-.34.178a2.25,2.25,0,0,0-.777.178,1.117,1.117,0,0,0-.7.858,1.489,1.489,0,0,0,.178,1.036,1.117,1.117,0,0,0,.7.615h.518a2.266,2.266,0,0,0-.356.777s0,.178,0,.34.178.178.356.1a.809.809,0,0,0,.421-.1,2.849,2.849,0,0,1-.259.777.5.5,0,0,0,.1.356.745.745,0,0,0,.518.162,4.031,4.031,0,0,0,1-.34,2.072,2.072,0,0,0,.858-.858,1.279,1.279,0,0,0,.1-.955,1.619,1.619,0,0,0-.518-.518,1.619,1.619,0,0,0-.793.162l-.7.437h-.34l-.178-.162Zm-.68-2.153a.648.648,0,0,1,.6,0,1.1,1.1,0,0,1,.437.421.631.631,0,0,1,.081.534.453.453,0,0,1-.259.421.648.648,0,0,1-.6,0,.842.842,0,0,1-.437-.518.987.987,0,0,1-.1-.518c0-.178.1-.259.275-.34m1.2,3.238v-.259l.7-.356a.712.712,0,0,1,.4-.178c.162,0,.259.081.259.178a.389.389,0,0,1,0,.421c-.1.1-.259.178-.437.356a3.771,3.771,0,0,1-.518.162.486.486,0,0,1-.356-.162Zm1.554-4.031a2.153,2.153,0,0,0-.356-.437c-.081-.178-.259-.259-.34-.437l.421-.259.437-.34a.6.6,0,0,0,.178.421,2.007,2.007,0,0,0,.259.615l.858,1.376a5.8,5.8,0,0,1,.437.615,1.117,1.117,0,0,0,.356.259l-.534.259-.421.34a3.35,3.35,0,0,0-.1-.421,3.545,3.545,0,0,0-.34-.615ZM52.74,49.427a1.343,1.343,0,0,0-.259.356c0,.178,0,.34.178.437s.162.259.34.259a.275.275,0,0,0,.34,0c.178-.1.178-.178.259-.356a.777.777,0,0,0,0-.421.469.469,0,0,0-.34-.275.421.421,0,0,0-.437,0m5.2,2.946a.858.858,0,0,0,.34-.259c.1,0,.1-.162.178-.259l-.259-.761c0,.178,0,.259-.162.34a.709.709,0,0,0-.259.178.388.388,0,0,1-.437.1c-.1,0-.259-.178-.437-.356l-1.133-1.619.7-.518-.34-.437-.7.518-.469-.583-.178,1.91.437-.34,1.3,1.813c.259.34.518.518.7.518a.728.728,0,0,0,.7-.178m2.25-1.813a1.2,1.2,0,0,1-.777.437,1.052,1.052,0,0,1-.7-.259c-.178-.178-.178-.356-.259-.615a2.574,2.574,0,0,1,.178-.7l.518-1.036-.259-.259c-.178-.178-.259-.259-.437-.259a.615.615,0,0,0-.518.259l-.259.259a1.165,1.165,0,0,0-.178.518l-.34-.7c0-.162.162-.259.259-.421l.259-.259a1.02,1.02,0,0,1,.858-.437,1.327,1.327,0,0,1,.955.518l.955,1.036.518.518a1.845,1.845,0,0,1,.356.259l-.275.275-.34.34-.259-.259-.178.7h0M59.7,48.812l-.68.7c-.1,0,0,.081,0,.178a.987.987,0,0,0,.259.34.68.68,0,0,0,.421.178.793.793,0,0,0,.437-.259c.1-.1.178-.259.259-.356Zm1.813-1.182a2.072,2.072,0,0,1,.437.518c.178.081.178.259.259.356l.34-.437.437-.356a1.036,1.036,0,0,1-.437-.259A1.166,1.166,0,0,1,62,47.1l-1.376-1.214V45.7a1.36,1.36,0,0,1,.259-.518.761.761,0,0,1,.518-.259l-.518-.7a.421.421,0,0,0-.259.178,1.716,1.716,0,0,0-.259.437V45.7l-.518-.437-.34.356-.259.34a2.59,2.59,0,0,1,.437.259,1.619,1.619,0,0,1,.421.356L61.319,47.7M65.3,44.846a1.505,1.505,0,0,1-1.214.68,1.91,1.91,0,0,1-1.376-.34,3.238,3.238,0,0,1-.955-1.3,1.392,1.392,0,0,1,.178-1.311,1.23,1.23,0,0,1,1.036-.518,2.137,2.137,0,0,1,1.214.518l.259.178-1.3,1.732a1.878,1.878,0,0,0,.939.259.761.761,0,0,0,.793-.437.486.486,0,0,0,.259-.421.584.584,0,0,1,.162-.437l.356.7c-.1.162-.1.34-.178.437s0,.162-.178.259m-1.619-1.91a1.327,1.327,0,0,0-.7-.259.793.793,0,0,0-.615.259.971.971,0,0,0,0,.7,2.4,2.4,0,0,0,.437.518l.955-1.214M32.035,62.96h.437a.955.955,0,0,0,.518-.1l.356-.858a5.148,5.148,0,0,0-.518.259h-.615a1.23,1.23,0,0,1-1.036-.518,1.8,1.8,0,0,1-.34-.955h2.59v-.437a2.541,2.541,0,0,0-.437-1.619,1.425,1.425,0,0,0-1.214-.518,1.619,1.619,0,0,0-1.376.68,2.752,2.752,0,0,0-.615,1.829,2.266,2.266,0,0,0,.615,1.619,2.347,2.347,0,0,0,1.619.7m-1.182-2.995a1.052,1.052,0,0,1,.259-.777.745.745,0,0,1,.68-.437,1.085,1.085,0,0,1,.7.356,2.2,2.2,0,0,1,.178.858Zm5.714-1.619a.842.842,0,0,0-.437-.081h-.437a1.619,1.619,0,0,0-1.117.34,1.2,1.2,0,0,0-.534.955,1.052,1.052,0,0,0,.259.7,2.752,2.752,0,0,0,.7.7,1.845,1.845,0,0,1,.615.518c.081,0,.081.162.081.34s0,.259-.178.34-.259.178-.421.178a.923.923,0,0,1-.615-.178,2.363,2.363,0,0,1-.469-.567V62.7a2.444,2.444,0,0,0,.615.178h.6a1.862,1.862,0,0,0,1.133-.437,1.3,1.3,0,0,0,.34-.955.874.874,0,0,0-.178-.68,3.853,3.853,0,0,0-.89-.761c-.178-.162-.356-.259-.437-.421s0-.178,0-.356,0-.259.162-.34a.631.631,0,0,1,.437-.178,1.052,1.052,0,0,1,.518.178c.1,0,.259.178.356.259Zm2.153,4.6a1.133,1.133,0,0,0,.518,0,.858.858,0,0,0,.437-.1l.356-.858a1.619,1.619,0,0,1-.437.162h-.356a.583.583,0,0,1-.518-.162,1.764,1.764,0,0,1-.162-.7V58.881H39.66v-.6H38.543v-.955l-1.619,1.619h.615v2.687a1.619,1.619,0,0,0,.259,1.052,1.344,1.344,0,0,0,.858.34" transform="translate(0 22.511)"/><rect class="a" width="0.372" height="45.779" transform="translate(34.982 29.963)"/><rect class="a" width="33.233" height="0.405" transform="translate(18.713 49.453)"/></svg>