<svg xmlns="http://www.w3.org/2000/svg" viewBox="0 0 612.949 567.838"><defs><style>.a{opacity:0.15;}.b{fill:#0071b9;}.c{fill:#ffa615;}.d{fill:#75bf1e;}</style></defs><g class="a" transform="translate(612.949) rotate(90)"><path class="b" d="M320.26,186.641,273.754,159.9H152.606L106.1,186.641c44.413,77.2,177.188,203.464,321.124,214.393C377.23,372.9,297.472,271.979,320.26,186.641" transform="translate(140.614 211.915)"/><path class="c" d="M156.03,253.458h0l-.93-1.628ZM288.107,0c.7,57.435-46.739,176.955-132.31,199.976v53.482l60.69,105.1L262.761,385.3c44.878-76.967,87.9-255.318,25.346-385.3" transform="translate(205.554)"/><path class="d" d="M285.547,244.586h0l-.93,1.628ZM346.237,86C257.178,85.768,81.386,137.622,0,256.91c49.3-29.3,176.723-48.134,239.273,14.649l46.273-26.741,60.69-105.1Z" transform="translate(0 113.975)"/><path class="b" d="M140,157.169a28.369,28.369,0,1,1,28.369,28.369A28.186,28.186,0,0,1,140,157.169" transform="translate(185.542 170.699)"/></g></svg>