<svg xmlns="http://www.w3.org/2000/svg" viewBox="0 0 180 91.247"><defs><style>.a,.b{fill:#fff;}.b{font-size:9px;font-family:Tahoma;}</style></defs><path class="a" d="M264.723,106.523a8.215,8.215,0,0,1-.9,3.877,8.02,8.02,0,0,1-2.388,2.769,11.825,11.825,0,0,1-3.808,1.869,21.343,21.343,0,0,1-5.227.554h-9V86.1h8.308a44.065,44.065,0,0,1,5.019.208,9.869,9.869,0,0,1,3.219.969,5.715,5.715,0,0,1,2.458,2.215,6.431,6.431,0,0,1,.8,3.219,6.061,6.061,0,0,1-1.177,3.7,7.923,7.923,0,0,1-3.219,2.562v.173a8.142,8.142,0,0,1,4.362,2.6,7.4,7.4,0,0,1,1.558,4.777M258.873,93.3a4.224,4.224,0,0,0-.381-1.835,2.8,2.8,0,0,0-1.212-1.246,5.881,5.881,0,0,0-2.25-.658q-1.246-.1-3.427-.1h-4.015v8.619h4.742A18.109,18.109,0,0,0,255.2,97.9a5.893,5.893,0,0,0,1.9-.8,3.471,3.471,0,0,0,1.35-1.488,5.907,5.907,0,0,0,.415-2.319m1.488,13.4a6.212,6.212,0,0,0-.519-2.735,3.994,3.994,0,0,0-2.042-1.835,5.7,5.7,0,0,0-2.146-.623,27.533,27.533,0,0,0-3.323-.138h-4.742v10.9h3.392a28.617,28.617,0,0,0,4.327-.242,7.16,7.16,0,0,0,2.769-1,4.587,4.587,0,0,0,2.285-4.327" transform="translate(-159.146 -56.296)"/><path class="a" d="M316.9,115.592V86.1h19.662v3.5H321.088v8.065h14.435v3.5H321.088V112.1h15.473v3.5Z" transform="translate(-207.204 -56.296)"/><path class="a" d="M392.715,115.131a21.7,21.7,0,0,1-5.815-.658,30.069,30.069,0,0,1-4.5-1.627v-4.915h.312a15.283,15.283,0,0,0,4.673,2.8,14.232,14.232,0,0,0,5.019,1,8.563,8.563,0,0,0,5.227-1.35,4.642,4.642,0,0,0,.831-6.438,5.576,5.576,0,0,0-2.942-1.627c-.969-.277-1.869-.485-2.665-.658s-1.8-.415-3.012-.692a15.893,15.893,0,0,1-2.908-1,8.2,8.2,0,0,1-2.285-1.592,7.336,7.336,0,0,1-1.523-2.285,8.243,8.243,0,0,1-.554-3.046,7.536,7.536,0,0,1,2.977-6.023,11.514,11.514,0,0,1,7.581-2.423,25.365,25.365,0,0,1,4.985.485,21.459,21.459,0,0,1,4.362,1.419v4.708h-.312a13.559,13.559,0,0,0-3.842-2.25,12.454,12.454,0,0,0-4.915-.969,7.888,7.888,0,0,0-4.708,1.281,4.011,4.011,0,0,0-1.8,3.358,4.158,4.158,0,0,0,1.038,2.977,6.4,6.4,0,0,0,3.046,1.627c.9.208,1.973.485,3.254.762s2.354.554,3.185.8a9.19,9.19,0,0,1,4.742,2.8,7.168,7.168,0,0,1,1.488,4.638,7.93,7.93,0,0,1-.762,3.392,7.828,7.828,0,0,1-2.112,2.838,10.556,10.556,0,0,1-3.427,1.973,13.1,13.1,0,0,1-4.638.692" transform="translate(-250.031 -55.315)"/><path class="a" d="M457.623,115.592v-26H447.1V86.1h25.235v3.5H461.812v26Z" transform="translate(-292.335 -56.296)"/><text class="b" transform="translate(102.665 68.752)"><tspan x="0" y="0">ZAPORIZHZHYA</tspan></text><path class="a" d="M137.981,163.881l-6.923-3.981H113.023l-6.923,3.981c6.612,11.492,26.377,30.288,47.8,31.915-7.442-4.188-19.315-19.212-15.923-31.915" transform="translate(-69.373 -104.55)"/><path class="a" d="M155.238,37.731h0l-.138-.242ZM174.9,0c.1,8.55-6.958,26.342-19.7,29.769v7.962l9.035,15.646,6.888,3.981C177.808,45.9,184.212,19.35,174.9,0" transform="translate(-101.412)"/><path class="a" d="M42.508,109.607h0l-.138.242ZM51.542,86C38.285,85.965,12.115,93.684,0,111.442c7.338-4.362,26.308-7.165,35.619,2.181l6.888-3.981L51.542,94Z" transform="translate(0 -56.231)"/><path class="a" d="M140,133.023a4.223,4.223,0,1,1,4.223,4.223A4.2,4.2,0,0,1,140,133.023" transform="translate(-91.538 -84.215)"/></svg>